  0
SECTION
  2
HEADER
  9
$ACADVER
  1
AC1014
  9
$HANDSEED
  5
FFFF
  9
$MEASUREMENT
 70
     1
  0
ENDSEC
  0
SECTION
  2
TABLES
  0
TABLE
  2
VPORT
  5
8
330
0
100
AcDbSymbolTable
 70
     4
  0
VPORT
  5
2E
330
8
100
AcDbSymbolTableRecord
100
AcDbViewportTableRecord
  2
*ACTIVE
 70
     0
 10
0.0
 20
0.0
 11
1.0
 21
1.0
 12
210.0
 22
148.5
 13
0.0
 23
0.0
 14
10.0
 24
10.0
 15
10.0
 25
10.0
 16
0.0
 26
0.0
 36
1.0
 17
0.0
 27
0.0
 37
0.0
 40
341.0
 41
1.24
 42
50.0
 43
0.0
 44
0.0
 50
0.0
 51
0.0
 71
     0
 72
   100
 73
     1
 74
     3
 75
     0
 76
     0
 77
     0
 78
     0
  0
ENDTAB
  0
TABLE
  2
LTYPE
  5
5
330
0
100
AcDbSymbolTable
 70
     1
  0
LTYPE
  5
14
330
5
100
AcDbSymbolTableRecord
100
AcDbLinetypeTableRecord
  2
BYBLOCK
 70
     0
  3

 72
    65
 73
     0
 40
0.0
  0
LTYPE
  5
15
330
5
100
AcDbSymbolTableRecord
100
AcDbLinetypeTableRecord
  2
BYLAYER
 70
     0
  3

 72
    65
 73
     0
 40
0.0
  0
LTYPE
  5
16
330
5
100
AcDbSymbolTableRecord
100
AcDbLinetypeTableRecord
  2
CONTINUOUS
 70
     0
  3
Solid line
 72
    65
 73
     0
 40
0.0
  0
ENDTAB
  0
TABLE
  2
LAYER
  5
2
100
AcDbSymbolTable
 70
2
  0
LAYER
  5
50
100
AcDbSymbolTableRecord
100
AcDbLayerTableRecord
  2
0
 70
0
  6
CONTINUOUS
  0
LAYER
  5
51
100
AcDbSymbolTableRecord
100
AcDbLayerTableRecord
  2
Layer_1
 70
0
  6
CONTINUOUS
  0
ENDTAB
  0
TABLE
  2
STYLE
  5
3
330
0
100
AcDbSymbolTable
 70
     1
  0
STYLE
  5
11
330
3
100
AcDbSymbolTableRecord
100
AcDbTextStyleTableRecord
  2
STANDARD
 70
     0
 40
0.0
 41
1.0
 50
0.0
 71
     0
 42
2.5
  3
txt
  4

  0
ENDTAB
  0
TABLE
  2
VIEW
  5
6
330
0
100
AcDbSymbolTable
 70
     0
  0
ENDTAB
  0
TABLE
  2
UCS
  5
7
330
0
100
AcDbSymbolTable
 70
     0
  0
ENDTAB
  0
TABLE
  2
APPID
  5
9
330
0
100
AcDbSymbolTable
 70
     2
  0
APPID
  5
12
330
9
100
AcDbSymbolTableRecord
100
AcDbRegAppTableRecord
  2
ACAD
 70
     0
  0
ENDTAB
  0
TABLE
  2
DIMSTYLE
  5
A
330
0
100
AcDbSymbolTable
 70
     1
  0
DIMSTYLE
105
27
330
A
100
AcDbSymbolTableRecord
100
AcDbDimStyleTableRecord
  2
ISO-25
 70
     0
  3

  4

  5

  6

  7

 40
1.0
 41
2.5
 42
0.625
 43
3.75
 44
1.25
 45
0.0
 46
0.0
 47
0.0
 48
0.0
140
2.5
141
2.5
142
0.0
143
0.03937007874016
144
1.0
145
0.0
146
1.0
147
0.625
 71
     0
 72
     0
 73
     0
 74
     0
 75
     0
 76
     0
 77
     1
 78
     8
170
     0
171
     3
172
     1
173
     0
174
     0
175
     0
176
     0
177
     0
178
     0
270
     2
271
     2
272
     2
273
     2
274
     3
340
11
275
     0
280
     0
281
     0
282
     0
283
     0
284
     8
285
     0
286
     0
287
     3
288
     0
  0
ENDTAB
  0
TABLE
  2
BLOCK_RECORD
  5
1
330
0
100
AcDbSymbolTable
 70
     1
  0
BLOCK_RECORD
  5
1F
330
1
100
AcDbSymbolTableRecord
100
AcDbBlockTableRecord
  2
*MODEL_SPACE
  0
BLOCK_RECORD
  5
1B
330
1
100
AcDbSymbolTableRecord
100
AcDbBlockTableRecord
  2
*PAPER_SPACE
  0
ENDTAB
  0
ENDSEC
  0
SECTION
  2
BLOCKS
  0
BLOCK
  5
20
330
1F
100
AcDbEntity
  8
0
100
AcDbBlockBegin
  2
*MODEL_SPACE
 70
     0
 10
0.0
 20
0.0
 30
0.0
  3
*MODEL_SPACE
  1

  0
ENDBLK
  5
21
330
1F
100
AcDbEntity
  8
0
100
AcDbBlockEnd
  0
BLOCK
  5
1C
330
1B
100
AcDbEntity
 67
     1
  8
0
100
AcDbBlockBegin
  2
*PAPER_SPACE
  1

  0
ENDBLK
  5
1D
330
1B
100
AcDbEntity
 67
     1
  8
0
100
AcDbBlockEnd
  0
ENDSEC
  0
SECTION
  2
ENTITIES
  0
LWPOLYLINE
  5
100
100
AcDbEntity
  8
Layer_1
 62
7
100
AcDbPolyline
 90
6
 70
0
 10
142.760342
 20
291.756062
 30
0.0
 10
142.698620
 20
1.755085
 30
0.0
 10
179.528620
 20
1.755085
 30
0.0
 10
180.066592
 20
291.756062
 30
0.0
 10
142.760342
 20
291.756062
 30
0.0
 10
142.760342
 20
291.756062
 30
0.0
  0
SPLINE
  5
101
100
AcDbEntity
  8
Layer_1
 62
7
100
AcDbSpline
 70
8
 71
3
 72
8
 73
4
 74
0
 40
0
 40
0
 40
0
 40
0
 40
1
 40
1
 40
1
 40
1
 10
68.968050
 20
90.028930
 30
0.0
 10
73.757643
 20
46.135077
 30
0.0
 10
76.507419
 20
43.199796
 30
0.0
 10
86.210050
 20
20.522882
 30
0.0
  0
SPLINE
  5
102
100
AcDbEntity
  8
Layer_1
 62
7
100
AcDbSpline
 70
8
 71
3
 72
8
 73
4
 74
0
 40
0
 40
0
 40
0
 40
0
 40
1
 40
1
 40
1
 40
1
 10
86.210050
 20
20.522882
 30
0.0
 10
98.132925
 20
45.419502
 30
0.0
 10
100.499218
 20
52.168028
 30
0.0
 10
105.454080
 20
89.632041
 30
0.0
  0
LWPOLYLINE
  5
103
100
AcDbEntity
  8
Layer_1
 62
7
100
AcDbPolyline
 90
2
 70
0
 10
69.003328
 20
291.756062
 30
0.0
 10
68.968050
 20
90.028930
 30
0.0
  0
LWPOLYLINE
  5
104
100
AcDbEntity
  8
Layer_1
 62
7
100
AcDbPolyline
 90
4
 70
0
 10
105.454080
 20
89.632041
 30
0.0
 10
105.833331
 20
291.756062
 30
0.0
 10
69.003328
 20
291.756062
 30
0.0
 10
69.003328
 20
291.756062
 30
0.0
  0
SPLINE
  5
105
100
AcDbEntity
  8
Layer_1
 62
7
100
AcDbSpline
 70
8
 71
3
 72
8
 73
4
 74
0
 40
0
 40
0
 40
0
 40
0
 40
1
 40
1
 40
1
 40
1
 10
94.032914
 20
102.755374
 30
0.0
 10
87.476607
 20
103.293261
 30
0.0
 10
88.415729
 20
96.506410
 30
0.0
 10
88.476661
 20
88.758930
 30
0.0
  0
SPLINE
  5
106
100
AcDbEntity
  8
Layer_1
 62
7
100
AcDbSpline
 70
8
 71
3
 72
8
 73
4
 74
0
 40
0
 40
0
 40
0
 40
0
 40
1
 40
1
 40
1
 40
1
 10
88.476661
 20
88.758930
 30
0.0
 10
91.610513
 20
89.202075
 30
0.0
 10
95.265830
 20
87.055239
 30
0.0
 10
95.479303
 20
93.830096
 30
0.0
  0
LWPOLYLINE
  5
107
100
AcDbEntity
  8
Layer_1
 62
7
100
AcDbPolyline
 90
3
 70
0
 10
78.678244
 20
106.865235
 30
0.0
 10
94.121108
 20
106.821152
 30
0.0
 10
94.032914
 20
102.755374
 30
0.0
  0
SPLINE
  5
108
100
AcDbEntity
  8
Layer_1
 62
7
100
AcDbSpline
 70
8
 71
3
 72
8
 73
4
 74
0
 40
0
 40
0
 40
0
 40
0
 40
1
 40
1
 40
1
 40
1
 10
95.435191
 20
79.657263
 30
0.0
 10
95.348549
 20
84.791788
 30
0.0
 10
92.026819
 20
83.241739
 30
0.0
 10
88.520744
 20
83.290874
 30
0.0
  0
SPLINE
  5
109
100
AcDbEntity
  8
Layer_1
 62
7
100
AcDbSpline
 70
8
 71
3
 72
8
 73
4
 74
0
 40
0
 40
0
 40
0
 40
0
 40
1
 40
1
 40
1
 40
1
 10
88.520744
 20
83.290874
 30
0.0
 10
88.577555
 20
77.325769
 30
0.0
 10
87.025164
 20
70.065687
 30
0.0
 10
94.253386
 20
70.520319
 30
0.0
  0
LWPOLYLINE
  5
10a
100
AcDbEntity
  8
Layer_1
 62
7
100
AcDbPolyline
 90
4
 70
0
 10
95.479303
 20
93.830096
 30
0.0
 10
99.721441
 20
93.741902
 30
0.0
 10
99.677358
 20
79.657263
 30
0.0
 10
95.435191
 20
79.657263
 30
0.0
  0
SPLINE
  5
10b
100
AcDbEntity
  8
Layer_1
 62
7
100
AcDbSpline
 70
8
 71
3
 72
8
 73
4
 74
0
 40
0
 40
0
 40
0
 40
0
 40
1
 40
1
 40
1
 40
1
 10
78.942827
 20
70.476207
 30
0.0
 10
82.677277
 20
70.407599
 30
0.0
 10
84.637197
 20
74.275003
 30
0.0
 10
84.366800
 20
83.158568
 30
0.0
  0
SPLINE
  5
10c
100
AcDbEntity
  8
Layer_1
 62
7
100
AcDbSpline
 70
8
 71
3
 72
8
 73
4
 74
0
 40
0
 40
0
 40
0
 40
0
 40
1
 40
1
 40
1
 40
1
 10
84.366800
 20
83.158568
 30
0.0
 10
77.698425
 20
83.747961
 30
0.0
 10
77.188732
 20
81.760355
 30
0.0
 10
77.240689
 20
79.569040
 30
0.0
  0
LWPOLYLINE
  5
10d
100
AcDbEntity
  8
Layer_1
 62
7
100
AcDbPolyline
 90
4
 70
0
 10
94.253386
 20
70.520319
 30
0.0
 10
94.297497
 20
66.313430
 30
0.0
 10
78.942827
 20
66.313430
 30
0.0
 10
78.942827
 20
70.476207
 30
0.0
  0
SPLINE
  5
10e
100
AcDbEntity
  8
Layer_1
 62
7
100
AcDbSpline
 70
8
 71
3
 72
8
 73
4
 74
0
 40
0
 40
0
 40
0
 40
0
 40
1
 40
1
 40
1
 40
1
 10
77.284772
 20
93.741902
 30
0.0
 10
77.059897
 20
88.443800
 30
0.0
 10
80.576443
 20
88.468890
 30
0.0
 10
84.278605
 20
88.714818
 30
0.0
  0
SPLINE
  5
10f
100
AcDbEntity
  8
Layer_1
 62
7
100
AcDbSpline
 70
8
 71
3
 72
8
 73
4
 74
0
 40
0
 40
0
 40
0
 40
0
 40
1
 40
1
 40
1
 40
1
 10
84.278605
 20
88.714818
 30
0.0
 10
84.544572
 20
96.339842
 30
0.0
 10
84.339565
 20
103.243308
 30
0.0
 10
78.810550
 20
102.755374
 30
0.0
  0
LWPOLYLINE
  5
110
100
AcDbEntity
  8
Layer_1
 62
7
100
AcDbPolyline
 90
4
 70
0
 10
77.240689
 20
79.569040
 30
0.0
 10
73.042633
 20
79.524957
 30
0.0
 10
73.174911
 20
93.830096
 30
0.0
 10
77.284772
 20
93.741902
 30
0.0
  0
LWPOLYLINE
  5
111
100
AcDbEntity
  8
Layer_1
 62
7
100
AcDbPolyline
 90
3
 70
0
 10
78.810550
 20
102.755374
 30
0.0
 10
78.678244
 20
106.865235
 30
0.0
 10
78.678244
 20
106.865235
 30
0.0
  0
SPLINE
  5
112
100
AcDbEntity
  8
Layer_1
 62
7
100
AcDbSpline
 70
8
 71
3
 72
8
 73
4
 74
0
 40
0
 40
0
 40
0
 40
0
 40
1
 40
1
 40
1
 40
1
 10
105.833331
 20
90.028916
 30
0.0
 10
110.622924
 20
46.135063
 30
0.0
 10
113.372700
 20
43.199782
 30
0.0
 10
123.075342
 20
20.522854
 30
0.0
  0
SPLINE
  5
113
100
AcDbEntity
  8
Layer_1
 62
7
100
AcDbSpline
 70
8
 71
3
 72
8
 73
4
 74
0
 40
0
 40
0
 40
0
 40
0
 40
1
 40
1
 40
1
 40
1
 10
123.075342
 20
20.522854
 30
0.0
 10
134.998214
 20
45.419488
 30
0.0
 10
137.364507
 20
52.168014
 30
0.0
 10
142.319369
 20
89.632027
 30
0.0
  0
LWPOLYLINE
  5
114
100
AcDbEntity
  8
Layer_1
 62
7
100
AcDbPolyline
 90
2
 70
0
 10
105.868608
 20
291.756062
 30
0.0
 10
105.833331
 20
90.028916
 30
0.0
  0
LWPOLYLINE
  5
115
100
AcDbEntity
  8
Layer_1
 62
7
100
AcDbPolyline
 90
4
 70
0
 10
142.319369
 20
89.632027
 30
0.0
 10
142.698620
 20
291.756062
 30
0.0
 10
105.868608
 20
291.756062
 30
0.0
 10
105.868608
 20
291.756062
 30
0.0
  0
SPLINE
  5
116
100
AcDbEntity
  8
Layer_1
 62
7
100
AcDbSpline
 70
8
 71
3
 72
8
 73
4
 74
0
 40
0
 40
0
 40
0
 40
0
 40
1
 40
1
 40
1
 40
1
 10
130.898203
 20
102.755360
 30
0.0
 10
124.341898
 20
103.293247
 30
0.0
 10
125.281021
 20
96.506395
 30
0.0
 10
125.341953
 20
88.758916
 30
0.0
  0
SPLINE
  5
117
100
AcDbEntity
  8
Layer_1
 62
7
100
AcDbSpline
 70
8
 71
3
 72
8
 73
4
 74
0
 40
0
 40
0
 40
0
 40
0
 40
1
 40
1
 40
1
 40
1
 10
125.341953
 20
88.758916
 30
0.0
 10
128.475805
 20
89.202061
 30
0.0
 10
132.131119
 20
87.055225
 30
0.0
 10
132.344592
 20
93.830082
 30
0.0
  0
LWPOLYLINE
  5
118
100
AcDbEntity
  8
Layer_1
 62
7
100
AcDbPolyline
 90
3
 70
0
 10
115.543536
 20
106.865221
 30
0.0
 10
130.986397
 20
106.821138
 30
0.0
 10
130.898203
 20
102.755360
 30
0.0
  0
SPLINE
  5
119
100
AcDbEntity
  8
Layer_1
 62
7
100
AcDbSpline
 70
8
 71
3
 72
8
 73
4
 74
0
 40
0
 40
0
 40
0
 40
0
 40
1
 40
1
 40
1
 40
1
 10
132.300480
 20
79.657249
 30
0.0
 10
132.213838
 20
84.791774
 30
0.0
 10
128.892111
 20
83.241725
 30
0.0
 10
125.386036
 20
83.290860
 30
0.0
  0
SPLINE
  5
11a
100
AcDbEntity
  8
Layer_1
 62
7
100
AcDbSpline
 70
8
 71
3
 72
8
 73
4
 74
0
 40
0
 40
0
 40
0
 40
0
 40
1
 40
1
 40
1
 40
1
 10
125.386036
 20
83.290860
 30
0.0
 10
125.442847
 20
77.325755
 30
0.0
 10
123.890456
 20
70.065673
 30
0.0
 10
131.118675
 20
70.520305
 30
0.0
  0
LWPOLYLINE
  5
11b
100
AcDbEntity
  8
Layer_1
 62
7
100
AcDbPolyline
 90
4
 70
0
 10
132.344592
 20
93.830082
 30
0.0
 10
136.586730
 20
93.741888
 30
0.0
 10
136.542647
 20
79.657249
 30
0.0
 10
132.300480
 20
79.657249
 30
0.0
  0
SPLINE
  5
11c
100
AcDbEntity
  8
Layer_1
 62
7
100
AcDbSpline
 70
8
 71
3
 72
8
 73
4
 74
0
 40
0
 40
0
 40
0
 40
0
 40
1
 40
1
 40
1
 40
1
 10
115.808119
 20
70.476193
 30
0.0
 10
119.542568
 20
70.407585
 30
0.0
 10
121.502489
 20
74.274989
 30
0.0
 10
121.232092
 20
83.158554
 30
0.0
  0
SPLINE
  5
11d
100
AcDbEntity
  8
Layer_1
 62
7
100
AcDbSpline
 70
8
 71
3
 72
8
 73
4
 74
0
 40
0
 40
0
 40
0
 40
0
 40
1
 40
1
 40
1
 40
1
 10
121.232092
 20
83.158554
 30
0.0
 10
114.563706
 20
83.747947
 30
0.0
 10
114.054012
 20
81.760341
 30
0.0
 10
114.105969
 20
79.569026
 30
0.0
  0
LWPOLYLINE
  5
11e
100
AcDbEntity
  8
Layer_1
 62
7
100
AcDbPolyline
 90
4
 70
0
 10
131.118675
 20
70.520305
 30
0.0
 10
131.162786
 20
66.313415
 30
0.0
 10
115.808119
 20
66.313415
 30
0.0
 10
115.808119
 20
70.476193
 30
0.0
  0
SPLINE
  5
11f
100
AcDbEntity
  8
Layer_1
 62
7
100
AcDbSpline
 70
8
 71
3
 72
8
 73
4
 74
0
 40
0
 40
0
 40
0
 40
0
 40
1
 40
1
 40
1
 40
1
 10
114.150053
 20
93.741888
 30
0.0
 10
113.925178
 20
88.443786
 30
0.0
 10
117.441734
 20
88.468876
 30
0.0
 10
121.143897
 20
88.714804
 30
0.0
  0
SPLINE
  5
120
100
AcDbEntity
  8
Layer_1
 62
7
100
AcDbSpline
 70
8
 71
3
 72
8
 73
4
 74
0
 40
0
 40
0
 40
0
 40
0
 40
1
 40
1
 40
1
 40
1
 10
121.143897
 20
88.714804
 30
0.0
 10
121.409864
 20
96.339828
 30
0.0
 10
121.204857
 20
103.243294
 30
0.0
 10
115.675842
 20
102.755360
 30
0.0
  0
LWPOLYLINE
  5
121
100
AcDbEntity
  8
Layer_1
 62
7
100
AcDbPolyline
 90
4
 70
0
 10
114.105969
 20
79.569026
 30
0.0
 10
109.907914
 20
79.524943
 30
0.0
 10
110.040191
 20
93.830082
 30
0.0
 10
114.150053
 20
93.741888
 30
0.0
  0
LWPOLYLINE
  5
122
100
AcDbEntity
  8
Layer_1
 62
7
100
AcDbPolyline
 90
3
 70
0
 10
115.675842
 20
102.755360
 30
0.0
 10
115.543536
 20
106.865221
 30
0.0
 10
115.543536
 20
106.865221
 30
0.0
  0
LWPOLYLINE
  5
123
100
AcDbEntity
  8
Layer_1
 62
7
100
AcDbPolyline
 90
6
 70
0
 10
31.661800
 20
291.756062
 30
0.0
 10
31.600078
 20
1.755057
 30
0.0
 10
68.430078
 20
1.755057
 30
0.0
 10
68.968050
 20
291.756062
 30
0.0
 10
31.661800
 20
291.756062
 30
0.0
 10
31.661800
 20
291.756062
 30
0.0
  0
ENDSEC
  0
SECTION
  2
OBJECTS
  0
DICTIONARY
  5
C
330
0
100
AcDbDictionary
  3
ACAD_GROUP
350
D
  3
ACAD_MLINESTYLE
350
17
  0
DICTIONARY
  5
D
330
C
100
AcDbDictionary
  0
DICTIONARY
  5
1A
330
C
100
AcDbDictionary
  0
DICTIONARY
  5
17
330
C
100
AcDbDictionary
  3
STANDARD
350
18
  0
DICTIONARY
  5
19
330
C
100
AcDbDictionary
  0
ENDSEC
  0
EOF
