  0
SECTION
  2
HEADER
  9
$ACADVER
  1
AC1014
  9
$HANDSEED
  5
FFFF
  9
$MEASUREMENT
 70
     1
  0
ENDSEC
  0
SECTION
  2
TABLES
  0
TABLE
  2
VPORT
  5
8
330
0
100
AcDbSymbolTable
 70
     4
  0
VPORT
  5
2E
330
8
100
AcDbSymbolTableRecord
100
AcDbViewportTableRecord
  2
*ACTIVE
 70
     0
 10
0.0
 20
0.0
 11
1.0
 21
1.0
 12
210.0
 22
148.5
 13
0.0
 23
0.0
 14
10.0
 24
10.0
 15
10.0
 25
10.0
 16
0.0
 26
0.0
 36
1.0
 17
0.0
 27
0.0
 37
0.0
 40
341.0
 41
1.24
 42
50.0
 43
0.0
 44
0.0
 50
0.0
 51
0.0
 71
     0
 72
   100
 73
     1
 74
     3
 75
     0
 76
     0
 77
     0
 78
     0
  0
ENDTAB
  0
TABLE
  2
LTYPE
  5
5
330
0
100
AcDbSymbolTable
 70
     1
  0
LTYPE
  5
14
330
5
100
AcDbSymbolTableRecord
100
AcDbLinetypeTableRecord
  2
BYBLOCK
 70
     0
  3

 72
    65
 73
     0
 40
0.0
  0
LTYPE
  5
15
330
5
100
AcDbSymbolTableRecord
100
AcDbLinetypeTableRecord
  2
BYLAYER
 70
     0
  3

 72
    65
 73
     0
 40
0.0
  0
LTYPE
  5
16
330
5
100
AcDbSymbolTableRecord
100
AcDbLinetypeTableRecord
  2
CONTINUOUS
 70
     0
  3
Solid line
 72
    65
 73
     0
 40
0.0
  0
ENDTAB
  0
TABLE
  2
LAYER
  5
2
100
AcDbSymbolTable
 70
2
  0
LAYER
  5
50
100
AcDbSymbolTableRecord
100
AcDbLayerTableRecord
  2
0
 70
0
  6
CONTINUOUS
  0
LAYER
  5
51
100
AcDbSymbolTableRecord
100
AcDbLayerTableRecord
  2
Layer_1
 70
0
  6
CONTINUOUS
  0
ENDTAB
  0
TABLE
  2
STYLE
  5
3
330
0
100
AcDbSymbolTable
 70
     1
  0
STYLE
  5
11
330
3
100
AcDbSymbolTableRecord
100
AcDbTextStyleTableRecord
  2
STANDARD
 70
     0
 40
0.0
 41
1.0
 50
0.0
 71
     0
 42
2.5
  3
txt
  4

  0
ENDTAB
  0
TABLE
  2
VIEW
  5
6
330
0
100
AcDbSymbolTable
 70
     0
  0
ENDTAB
  0
TABLE
  2
UCS
  5
7
330
0
100
AcDbSymbolTable
 70
     0
  0
ENDTAB
  0
TABLE
  2
APPID
  5
9
330
0
100
AcDbSymbolTable
 70
     2
  0
APPID
  5
12
330
9
100
AcDbSymbolTableRecord
100
AcDbRegAppTableRecord
  2
ACAD
 70
     0
  0
ENDTAB
  0
TABLE
  2
DIMSTYLE
  5
A
330
0
100
AcDbSymbolTable
 70
     1
  0
DIMSTYLE
105
27
330
A
100
AcDbSymbolTableRecord
100
AcDbDimStyleTableRecord
  2
ISO-25
 70
     0
  3

  4

  5

  6

  7

 40
1.0
 41
2.5
 42
0.625
 43
3.75
 44
1.25
 45
0.0
 46
0.0
 47
0.0
 48
0.0
140
2.5
141
2.5
142
0.0
143
0.03937007874016
144
1.0
145
0.0
146
1.0
147
0.625
 71
     0
 72
     0
 73
     0
 74
     0
 75
     0
 76
     0
 77
     1
 78
     8
170
     0
171
     3
172
     1
173
     0
174
     0
175
     0
176
     0
177
     0
178
     0
270
     2
271
     2
272
     2
273
     2
274
     3
340
11
275
     0
280
     0
281
     0
282
     0
283
     0
284
     8
285
     0
286
     0
287
     3
288
     0
  0
ENDTAB
  0
TABLE
  2
BLOCK_RECORD
  5
1
330
0
100
AcDbSymbolTable
 70
     1
  0
BLOCK_RECORD
  5
1F
330
1
100
AcDbSymbolTableRecord
100
AcDbBlockTableRecord
  2
*MODEL_SPACE
  0
BLOCK_RECORD
  5
1B
330
1
100
AcDbSymbolTableRecord
100
AcDbBlockTableRecord
  2
*PAPER_SPACE
  0
ENDTAB
  0
ENDSEC
  0
SECTION
  2
BLOCKS
  0
BLOCK
  5
20
330
1F
100
AcDbEntity
  8
0
100
AcDbBlockBegin
  2
*MODEL_SPACE
 70
     0
 10
0.0
 20
0.0
 30
0.0
  3
*MODEL_SPACE
  1

  0
ENDBLK
  5
21
330
1F
100
AcDbEntity
  8
0
100
AcDbBlockEnd
  0
BLOCK
  5
1C
330
1B
100
AcDbEntity
 67
     1
  8
0
100
AcDbBlockBegin
  2
*PAPER_SPACE
  1

  0
ENDBLK
  5
1D
330
1B
100
AcDbEntity
 67
     1
  8
0
100
AcDbBlockEnd
  0
ENDSEC
  0
SECTION
  2
ENTITIES
  0
SPLINE
  5
100
100
AcDbEntity
  8
Layer_1
 62
7
100
AcDbSpline
 70
8
 71
3
 72
8
 73
4
 74
0
 40
0
 40
0
 40
0
 40
0
 40
1
 40
1
 40
1
 40
1
 10
-504.211788
 20
602.977177
 30
0.0
 10
-509.199586
 20
601.476658
 30
0.0
 10
-513.181290
 20
596.375604
 30
0.0
 10
-513.436926
 20
591.952872
 30
0.0
  0
SPLINE
  5
101
100
AcDbEntity
  8
Layer_1
 62
7
100
AcDbSpline
 70
8
 71
3
 72
8
 73
4
 74
0
 40
0
 40
0
 40
0
 40
0
 40
1
 40
1
 40
1
 40
1
 10
-513.436926
 20
591.952872
 30
0.0
 10
-513.524698
 20
590.951350
 30
0.0
 10
-513.864154
 20
585.091880
 30
0.0
 10
-503.947204
 20
580.496399
 30
0.0
  0
LWPOLYLINE
  5
102
100
AcDbEntity
  8
Layer_1
 62
7
100
AcDbPolyline
 90
2
 70
0
 10
-504.432288
 20
618.464122
 30
0.0
 10
-504.211788
 20
602.977177
 30
0.0
  0
SPLINE
  5
103
100
AcDbEntity
  8
Layer_1
 62
7
100
AcDbSpline
 70
8
 71
3
 72
8
 73
4
 74
0
 40
0
 40
0
 40
0
 40
0
 40
1
 40
1
 40
1
 40
1
 10
-490.171232
 20
581.325427
 30
0.0
 10
-488.779679
 20
582.220692
 30
0.0
 10
-482.018650
 20
586.029281
 30
0.0
 10
-482.163176
 20
591.653010
 30
0.0
  0
SPLINE
  5
104
100
AcDbEntity
  8
Layer_1
 62
7
100
AcDbSpline
 70
8
 71
3
 72
8
 73
4
 74
0
 40
0
 40
0
 40
0
 40
0
 40
1
 40
1
 40
1
 40
1
 10
-482.163176
 20
591.653010
 30
0.0
 10
-482.708740
 20
599.949779
 30
0.0
 10
-488.388547
 20
600.851310
 30
0.0
 10
-490.391732
 20
602.236344
 30
0.0
  0
LWPOLYLINE
  5
105
100
AcDbEntity
  8
Layer_1
 62
7
100
AcDbPolyline
 90
4
 70
0
 10
-503.947204
 20
580.496399
 30
0.0
 10
-504.026593
 20
524.828060
 30
0.0
 10
-490.171232
 20
524.828060
 30
0.0
 10
-490.171232
 20
581.325427
 30
0.0
  0
LWPOLYLINE
  5
106
100
AcDbEntity
  8
Layer_1
 62
7
100
AcDbPolyline
 90
4
 70
0
 10
-490.391732
 20
602.236344
 30
0.0
 10
-490.647482
 20
618.464122
 30
0.0
 10
-504.432288
 20
618.464122
 30
0.0
 10
-504.432288
 20
618.464122
 30
0.0
  0
SPLINE
  5
107
100
AcDbEntity
  8
Layer_1
 62
7
100
AcDbSpline
 70
8
 71
3
 72
8
 73
4
 74
0
 40
0
 40
0
 40
0
 40
0
 40
1
 40
1
 40
1
 40
1
 10
-417.445811
 20
473.269625
 30
0.0
 10
-411.770237
 20
475.946333
 30
0.0
 10
-404.425319
 20
479.159348
 30
0.0
 10
-403.361144
 20
482.494735
 30
0.0
  0
LWPOLYLINE
  5
108
100
AcDbEntity
  8
Layer_1
 62
7
100
AcDbPolyline
 90
2
 70
0
 10
-417.631005
 20
334.195797
 30
0.0
 10
-417.445811
 20
473.269625
 30
0.0
  0
SPLINE
  5
109
100
AcDbEntity
  8
Layer_1
 62
7
100
AcDbSpline
 70
8
 71
3
 72
8
 73
4
 74
0
 40
0
 40
0
 40
0
 40
0
 40
1
 40
1
 40
1
 40
1
 10
-399.604061
 20
512.242735
 30
0.0
 10
-400.081129
 20
527.561306
 30
0.0
 10
-402.697950
 20
532.610770
 30
0.0
 10
-410.363783
 20
535.993513
 30
0.0
  0
LWPOLYLINE
  5
10a
100
AcDbEntity
  8
Layer_1
 62
7
100
AcDbPolyline
 90
4
 70
0
 10
-403.361144
 20
482.494735
 30
0.0
 10
-382.626644
 20
482.494735
 30
0.0
 10
-382.362061
 20
512.242735
 30
0.0
 10
-399.604061
 20
512.242735
 30
0.0
  0
SPLINE
  5
10b
100
AcDbEntity
  8
Layer_1
 62
7
100
AcDbSpline
 70
8
 71
3
 72
8
 73
4
 74
0
 40
0
 40
0
 40
0
 40
0
 40
1
 40
1
 40
1
 40
1
 10
-410.407894
 20
556.728013
 30
0.0
 10
-410.726862
 20
565.965824
 30
0.0
 10
-412.012948
 20
608.895575
 30
0.0
 10
-421.123505
 20
618.464122
 30
0.0
  0
SPLINE
  5
10c
100
AcDbEntity
  8
Layer_1
 62
7
100
AcDbSpline
 70
8
 71
3
 72
8
 73
4
 74
0
 40
0
 40
0
 40
0
 40
0
 40
1
 40
1
 40
1
 40
1
 10
-421.123505
 20
618.464122
 30
0.0
 10
-425.347299
 20
609.925883
 30
0.0
 10
-428.386663
 20
612.447821
 30
0.0
 10
-432.059616
 20
557.063152
 30
0.0
  0
LWPOLYLINE
  5
10d
100
AcDbEntity
  8
Layer_1
 62
7
100
AcDbPolyline
 90
2
 70
0
 10
-410.363783
 20
535.993513
 30
0.0
 10
-410.407894
 20
556.728013
 30
0.0
  0
SPLINE
  5
10e
100
AcDbEntity
  8
Layer_1
 62
7
100
AcDbSpline
 70
8
 71
3
 72
8
 73
4
 74
0
 40
0
 40
0
 40
0
 40
0
 40
1
 40
1
 40
1
 40
1
 10
-432.271283
 20
536.434457
 30
0.0
 10
-439.586737
 20
532.789303
 30
0.0
 10
-444.633914
 20
523.883245
 30
0.0
 10
-446.796922
 20
513.680291
 30
0.0
  0
LWPOLYLINE
  5
10f
100
AcDbEntity
  8
Layer_1
 62
7
100
AcDbPolyline
 90
2
 70
0
 10
-432.059616
 20
557.063152
 30
0.0
 10
-432.271283
 20
536.434457
 30
0.0
  0
SPLINE
  5
110
100
AcDbEntity
  8
Layer_1
 62
7
100
AcDbSpline
 70
8
 71
3
 72
8
 73
4
 74
0
 40
0
 40
0
 40
0
 40
0
 40
1
 40
1
 40
1
 40
1
 10
-444.609700
 20
482.494735
 30
0.0
 10
-443.712741
 20
479.589991
 30
0.0
 10
-438.132333
 20
476.813150
 30
0.0
 10
-431.486366
 20
473.269625
 30
0.0
  0
LWPOLYLINE
  5
111
100
AcDbEntity
  8
Layer_1
 62
7
100
AcDbPolyline
 90
5
 70
0
 10
-446.796922
 20
513.680291
 30
0.0
 10
-499.590116
 20
512.983569
 30
0.0
 10
-524.355116
 20
498.766624
 30
0.0
 10
-501.080588
 20
482.759347
 30
0.0
 10
-444.609700
 20
482.494735
 30
0.0
  0
LWPOLYLINE
  5
112
100
AcDbEntity
  8
Layer_1
 62
7
100
AcDbPolyline
 90
4
 70
0
 10
-431.486366
 20
473.269625
 30
0.0
 10
-431.486366
 20
334.195797
 30
0.0
 10
-417.631005
 20
334.195797
 30
0.0
 10
-417.631005
 20
334.195797
 30
0.0
  0
SPLINE
  5
113
100
AcDbEntity
  8
Layer_1
 62
7
100
AcDbSpline
 70
8
 71
3
 72
8
 73
4
 74
0
 40
0
 40
0
 40
0
 40
0
 40
1
 40
1
 40
1
 40
1
 10
-539.673151
 20
479.390282
 30
0.0
 10
-545.348724
 20
476.713574
 30
0.0
 10
-552.693642
 20
473.500559
 30
0.0
 10
-553.757818
 20
470.165172
 30
0.0
  0
LWPOLYLINE
  5
114
100
AcDbEntity
  8
Layer_1
 62
7
100
AcDbPolyline
 90
2
 70
0
 10
-539.487957
 20
618.464122
 30
0.0
 10
-539.673151
 20
479.390282
 30
0.0
  0
SPLINE
  5
115
100
AcDbEntity
  8
Layer_1
 62
7
100
AcDbSpline
 70
8
 71
3
 72
8
 73
4
 74
0
 40
0
 40
0
 40
0
 40
0
 40
1
 40
1
 40
1
 40
1
 10
-557.514901
 20
440.417171
 30
0.0
 10
-557.037833
 20
425.098601
 30
0.0
 10
-554.421012
 20
420.049137
 30
0.0
 10
-546.755179
 20
416.666393
 30
0.0
  0
LWPOLYLINE
  5
116
100
AcDbEntity
  8
Layer_1
 62
7
100
AcDbPolyline
 90
4
 70
0
 10
-553.757818
 20
470.165172
 30
0.0
 10
-574.492318
 20
470.165172
 30
0.0
 10
-574.756901
 20
440.417171
 30
0.0
 10
-557.514901
 20
440.417171
 30
0.0
  0
SPLINE
  5
117
100
AcDbEntity
  8
Layer_1
 62
7
100
AcDbSpline
 70
8
 71
3
 72
8
 73
4
 74
0
 40
0
 40
0
 40
0
 40
0
 40
1
 40
1
 40
1
 40
1
 10
-546.711068
 20
395.931894
 30
0.0
 10
-546.392100
 20
386.694072
 30
0.0
 10
-545.106013
 20
343.764332
 30
0.0
 10
-535.995457
 20
334.195768
 30
0.0
  0
SPLINE
  5
118
100
AcDbEntity
  8
Layer_1
 62
7
100
AcDbSpline
 70
8
 71
3
 72
8
 73
4
 74
0
 40
0
 40
0
 40
0
 40
0
 40
1
 40
1
 40
1
 40
1
 10
-535.995457
 20
334.195768
 30
0.0
 10
-531.771662
 20
342.734024
 30
0.0
 10
-528.732298
 20
340.212097
 30
0.0
 10
-525.059346
 20
395.596755
 30
0.0
  0
LWPOLYLINE
  5
119
100
AcDbEntity
  8
Layer_1
 62
7
100
AcDbPolyline
 90
2
 70
0
 10
-546.755179
 20
416.666393
 30
0.0
 10
-546.711068
 20
395.931894
 30
0.0
  0
SPLINE
  5
11a
100
AcDbEntity
  8
Layer_1
 62
7
100
AcDbSpline
 70
8
 71
3
 72
8
 73
4
 74
0
 40
0
 40
0
 40
0
 40
0
 40
1
 40
1
 40
1
 40
1
 10
-524.847679
 20
416.225449
 30
0.0
 10
-517.532225
 20
419.870603
 30
0.0
 10
-512.485047
 20
428.776662
 30
0.0
 10
-510.322040
 20
438.979616
 30
0.0
  0
LWPOLYLINE
  5
11b
100
AcDbEntity
  8
Layer_1
 62
7
100
AcDbPolyline
 90
2
 70
0
 10
-525.059346
 20
395.596755
 30
0.0
 10
-524.847679
 20
416.225449
 30
0.0
  0
SPLINE
  5
11c
100
AcDbEntity
  8
Layer_1
 62
7
100
AcDbSpline
 70
8
 71
3
 72
8
 73
4
 74
0
 40
0
 40
0
 40
0
 40
0
 40
1
 40
1
 40
1
 40
1
 10
-512.509262
 20
470.165172
 30
0.0
 10
-513.406221
 20
473.069916
 30
0.0
 10
-518.986629
 20
475.846757
 30
0.0
 10
-525.632595
 20
479.390282
 30
0.0
  0
LWPOLYLINE
  5
11d
100
AcDbEntity
  8
Layer_1
 62
7
100
AcDbPolyline
 90
5
 70
0
 10
-510.322040
 20
438.979616
 30
0.0
 10
-457.528845
 20
439.676338
 30
0.0
 10
-432.763845
 20
453.893283
 30
0.0
 10
-456.038373
 20
469.900560
 30
0.0
 10
-512.509262
 20
470.165172
 30
0.0
  0
LWPOLYLINE
  5
11e
100
AcDbEntity
  8
Layer_1
 62
7
100
AcDbPolyline
 90
4
 70
0
 10
-525.632595
 20
479.390282
 30
0.0
 10
-525.632595
 20
618.464122
 30
0.0
 10
-539.487957
 20
618.464122
 30
0.0
 10
-539.487957
 20
618.464122
 30
0.0
  0
SPLINE
  5
11f
100
AcDbEntity
  8
Layer_1
 62
7
100
AcDbSpline
 70
8
 71
3
 72
8
 73
4
 74
0
 40
0
 40
0
 40
0
 40
0
 40
1
 40
1
 40
1
 40
1
 10
-464.512716
 20
602.977177
 30
0.0
 10
-469.500514
 20
601.476658
 30
0.0
 10
-473.482218
 20
596.375604
 30
0.0
 10
-473.737855
 20
591.952872
 30
0.0
  0
SPLINE
  5
120
100
AcDbEntity
  8
Layer_1
 62
7
100
AcDbSpline
 70
8
 71
3
 72
8
 73
4
 74
0
 40
0
 40
0
 40
0
 40
0
 40
1
 40
1
 40
1
 40
1
 10
-473.737855
 20
591.952872
 30
0.0
 10
-473.825626
 20
590.951350
 30
0.0
 10
-474.165083
 20
585.091880
 30
0.0
 10
-464.248133
 20
580.496399
 30
0.0
  0
LWPOLYLINE
  5
121
100
AcDbEntity
  8
Layer_1
 62
7
100
AcDbPolyline
 90
2
 70
0
 10
-464.733217
 20
618.464122
 30
0.0
 10
-464.512716
 20
602.977177
 30
0.0
  0
SPLINE
  5
122
100
AcDbEntity
  8
Layer_1
 62
7
100
AcDbSpline
 70
8
 71
3
 72
8
 73
4
 74
0
 40
0
 40
0
 40
0
 40
0
 40
1
 40
1
 40
1
 40
1
 10
-450.472161
 20
581.325427
 30
0.0
 10
-449.080608
 20
582.220692
 30
0.0
 10
-442.319579
 20
586.029281
 30
0.0
 10
-442.464105
 20
591.653010
 30
0.0
  0
SPLINE
  5
123
100
AcDbEntity
  8
Layer_1
 62
7
100
AcDbSpline
 70
8
 71
3
 72
8
 73
4
 74
0
 40
0
 40
0
 40
0
 40
0
 40
1
 40
1
 40
1
 40
1
 10
-442.464105
 20
591.653010
 30
0.0
 10
-443.009669
 20
599.949779
 30
0.0
 10
-448.689476
 20
600.851310
 30
0.0
 10
-450.692661
 20
602.236344
 30
0.0
  0
LWPOLYLINE
  5
124
100
AcDbEntity
  8
Layer_1
 62
7
100
AcDbPolyline
 90
4
 70
0
 10
-464.248133
 20
580.496399
 30
0.0
 10
-464.327522
 20
524.828071
 30
0.0
 10
-450.472161
 20
524.828071
 30
0.0
 10
-450.472161
 20
581.325427
 30
0.0
  0
LWPOLYLINE
  5
125
100
AcDbEntity
  8
Layer_1
 62
7
100
AcDbPolyline
 90
4
 70
0
 10
-450.692661
 20
602.236344
 30
0.0
 10
-450.948411
 20
618.464122
 30
0.0
 10
-464.733217
 20
618.464122
 30
0.0
 10
-464.733217
 20
618.464122
 30
0.0
  0
ENDSEC
  0
SECTION
  2
OBJECTS
  0
DICTIONARY
  5
C
330
0
100
AcDbDictionary
  3
ACAD_GROUP
350
D
  3
ACAD_MLINESTYLE
350
17
  0
DICTIONARY
  5
D
330
C
100
AcDbDictionary
  0
DICTIONARY
  5
1A
330
C
100
AcDbDictionary
  0
DICTIONARY
  5
17
330
C
100
AcDbDictionary
  3
STANDARD
350
18
  0
DICTIONARY
  5
19
330
C
100
AcDbDictionary
  0
ENDSEC
  0
EOF
