<?xml version="1.0" encoding="UTF-8" standalone="no"?>
<!-- Created with Inkscape (http://www.inkscape.org/) -->

<svg
   xmlns:dc="http://purl.org/dc/elements/1.1/"
   xmlns:cc="http://creativecommons.org/ns#"
   xmlns:rdf="http://www.w3.org/1999/02/22-rdf-syntax-ns#"
   xmlns:svg="http://www.w3.org/2000/svg"
   xmlns="http://www.w3.org/2000/svg"
   version="1.1"
   width="744.09448"
   height="1052.3622"
   id="svg2996">
  <defs
     id="defs2998" />
  <metadata
     id="metadata3001">
    <rdf:RDF>
      <cc:Work
         rdf:about="">
        <dc:format>image/svg+xml</dc:format>
        <dc:type
           rdf:resource="http://purl.org/dc/dcmitype/StillImage" />
        <dc:title></dc:title>
      </cc:Work>
    </rdf:RDF>
  </metadata>
  <g
     id="layer1">
    <path
       d="m 191.23898,0 0.77495,54.866554 c -17.67331,5.316785 -31.79721,23.386416 -32.70294,39.057537 -0.31098,3.54867 -1.50586,24.324299 33.63289,40.607459 l -0.92995,690.01666 c -20.11025,9.48441 -26.29741,20.88475 -30.06811,32.70319 l -73.465395,0 -0.92993,105.39339 61.066165,0 c 1.69035,54.27841 10.96513,72.17341 38.1276,84.15951 l 0,39.0575 c -27.2819,1.8113 -61.42842,-33.1069 -95.62899,-68.1957 -39.648497,48.0485 -58.113765,43.2272 -79.665016,46.0324 25.959075,74.1562 12.316962,113.6086 1.704893,155.765 27.293573,-5.3873 61.39505,-5.7473 73.465404,-22.0087 3.141123,50.1177 7.437347,99.8619 45.257159,140.7312 l -0.92994,2404.5189 c 15.19976,193.1701 63.41938,260.228 94.69904,329.509 50.66011,-80.6887 90.05089,-181.684 105.39339,-325.9439 l -2.63484,-2540.9104 c 34.2779,1.7751 69.53846,-5.0951 102.75855,6.1996 -10.9752,-25.2329 -4.64951,-69.6886 -6.19962,-105.3934 76.74281,-69.6499 54.49022,-95.8688 70.83056,-139.02656 l 7.12955,-1.85987 87.7245,-50.37159 -82.45483,-56.72643 -200.09243,-0.92995 c -3.17827,-10.29235 -3.10957,-20.14725 -26.65833,-32.70319 l 0,-692.96123 c 4.93073,-3.17222 28.87526,-16.65116 28.36322,-36.577699 -1.93308,-29.398063 -22.04036,-32.600036 -29.13817,-37.50765 L 279.73843,0 191.23898,0 z m 124.61217,967.75922 59.51626,0 c -16.07628,68.96798 -54.61579,102.11508 -103.99846,117.79268 l -1.23992,-38.2824 c 25.92086,-12.916 38.05796,-43.3581 45.72212,-79.51028 z"
       id="path3090"
       style="fill:#cccccc;fill-opacity:1;stroke:none" />
    <path
       d="m 191.23898,0 0.77495,54.866554 c -17.67331,5.316785 -31.79721,23.386416 -32.70294,39.057533 -0.31098,3.54867 -1.50586,24.324303 33.63289,40.607463 l -0.92995,690.01666 c -20.11025,9.48441 -26.29741,20.88475 -30.06811,32.70319 l -73.465395,0 -0.92993,105.39339 61.066165,0 c 1.69035,54.27841 10.96513,72.17341 38.1276,84.15951 l 0,39.0575 c -27.2819,1.8113 -61.42842,-33.1069 -95.62899,-68.1957 -39.648497,48.0485 -58.113765,43.2272 -79.665016,46.0324 25.959075,74.1562 12.316962,113.6086 1.704893,155.765 27.293573,-5.3873 61.39505,-5.7473 73.465404,-22.0087 3.141123,50.1177 7.437347,99.8619 45.257159,140.7312 l -0.92994,2404.5189 c 15.19976,193.1701 63.41938,260.228 94.69904,329.509 50.66011,-80.6887 90.05089,-181.684 105.39339,-325.9439 l -2.63484,-2540.9104 c 34.2779,1.7751 69.53846,-5.0951 102.75855,6.1996 -10.9752,-25.2329 -4.64951,-69.6886 -6.19962,-105.3934 76.74281,-69.6499 54.49022,-95.8688 70.83056,-139.02656 l 7.12955,-1.85987 87.7245,-50.37159 -82.45483,-56.72643 -200.09243,-0.92995 c -3.17827,-10.29235 -3.10957,-20.14725 -26.65833,-32.70319 l 0,-692.96123 c 4.93073,-3.17222 28.87526,-16.65116 28.36322,-36.577703 C 307.87345,65.611218 287.76617,62.409245 280.66836,57.501631 L 279.73843,0 191.23898,0 z m 124.61217,967.75922 59.51626,0 c -16.07628,68.96798 -54.61579,102.11508 -103.99846,117.79268 l -1.23992,-38.2824 c 25.92086,-12.916 38.05796,-43.3581 45.72212,-79.51028 z"
       id="path3090-28"
       style="fill:#cccccc;fill-opacity:1;stroke:none" />
    <path
       d="m 191.23898,0 0.77495,54.866554 c -17.67331,5.316785 -31.79721,23.386416 -32.70294,39.057533 -0.31098,3.54867 -1.50586,24.324303 33.63289,40.607463 l -0.92995,690.01666 c -20.11025,9.48441 -26.29741,20.88475 -30.06811,32.70319 l -73.465395,0 -0.92993,105.39339 61.066165,0 c 1.69035,54.27841 10.96513,72.17341 38.1276,84.15951 l 0,39.0575 c -27.2819,1.8113 -61.42842,-33.1069 -95.62899,-68.1957 -39.648497,48.0485 -58.113765,43.2272 -79.665016,46.0324 25.959075,74.1562 12.316962,113.6086 1.704893,155.765 27.293573,-5.3873 61.39505,-5.7473 73.465404,-22.0087 3.141123,50.1177 7.437347,99.8619 45.257159,140.7312 l -0.92994,2404.5189 c 15.19976,193.1701 63.41938,260.228 94.69904,329.509 50.66011,-80.6887 90.05089,-181.684 105.39339,-325.9439 l -2.63484,-2540.9104 c 34.2779,1.7751 69.53846,-5.0951 102.75855,6.1996 -10.9752,-25.2329 -4.64951,-69.6886 -6.19962,-105.3934 76.74281,-69.6499 54.49022,-95.8688 70.83056,-139.02656 l 7.12955,-1.85987 87.7245,-50.37159 -82.45483,-56.72643 -200.09243,-0.92995 c -3.17827,-10.29235 -3.10957,-20.14725 -26.65833,-32.70319 l 0,-692.96123 c 4.93073,-3.17222 28.87526,-16.65116 28.36322,-36.577703 C 307.87345,65.611218 287.76617,62.409245 280.66836,57.501631 L 279.73843,0 191.23898,0 z m 124.61217,967.75922 59.51626,0 c -16.07628,68.96798 -54.61579,102.11508 -103.99846,117.79268 l -1.23992,-38.2824 c 25.92086,-12.916 38.05796,-43.3581 45.72212,-79.51028 z"
       id="path3090-4"
       style="fill:#cccccc;fill-opacity:1;stroke:none" />
    <path
       d="m 191.23898,0 0.77495,54.866554 c -17.67331,5.316785 -31.79721,23.386416 -32.70294,39.057533 -0.31098,3.54867 -1.50586,24.324303 33.63289,40.607463 l -0.92995,690.01666 c -20.11025,9.48441 -26.29741,20.88475 -30.06811,32.70319 l -73.465395,0 -0.92993,105.39339 61.066165,0 c 1.69035,54.27841 10.96513,72.17341 38.1276,84.15951 l 0,39.0575 c -27.2819,1.8113 -61.42842,-33.1069 -95.62899,-68.1957 -39.648497,48.0485 -58.113765,43.2272 -79.665016,46.0324 25.959075,74.1562 12.316962,113.6086 1.704893,155.765 27.293573,-5.3873 61.39505,-5.7473 73.465404,-22.0087 3.141123,50.1177 7.437347,99.8619 45.257159,140.7312 l -0.92994,2404.5189 c 15.19976,193.1701 63.41938,260.228 94.69904,329.509 50.66011,-80.6887 90.05089,-181.684 105.39339,-325.9439 l -2.63484,-2540.9104 c 34.2779,1.7751 69.53846,-5.0951 102.75855,6.1996 -10.9752,-25.2329 -4.64951,-69.6886 -6.19962,-105.3934 76.74281,-69.6499 54.49022,-95.8688 70.83056,-139.02656 l 7.12955,-1.85987 87.7245,-50.37159 -82.45483,-56.72643 -200.09243,-0.92995 c -3.17827,-10.29235 -3.10957,-20.14725 -26.65833,-32.70319 l 0,-692.96123 c 4.93073,-3.17222 28.87526,-16.65116 28.36322,-36.577703 C 307.87345,65.611218 287.76617,62.409245 280.66836,57.501631 L 279.73843,0 191.23898,0 z m 124.61217,967.75922 59.51626,0 c -16.07628,68.96798 -54.61579,102.11508 -103.99846,117.79268 l -1.23992,-38.2824 c 25.92086,-12.916 38.05796,-43.3581 45.72212,-79.51028 z"
       id="path3090-49"
       style="fill:#cccccc;fill-opacity:1;stroke:none" />
    <path
       d="m 201.2794,0 0.7749,54.866554 c -17.6733,5.316788 -31.79711,23.386418 -32.7029,39.057544 -0.31097,3.54867 -1.50585,24.324302 33.6329,40.607462 l -0.93,690.01666 c -20.1102,9.48441 -36.21674,20.88475 -39.98745,32.70319 l -73.465376,0 -0.92995,105.39343 61.066176,0 c 1.69035,54.27826 10.96517,72.17326 38.1276,84.15936 l 0.1547,73.4654 c -30.82978,-3.7079 -64.23686,-20.7365 -98.418796,-55.7965 -10.52762,8.4379 -14.71647,19.3586 -36.26771,22.1638 l 0.30998,87.5693 c 19.29209,-5.0227 37.76337,-4.983 60.601196,-25.5732 0.40968,49.7269 6.23478,133.6989 52.38671,175.759 l -0.46472,2419.5528 c 16.97104,155.5294 26.68674,165.9279 61.06614,246.2792 42.2464,-88.2164 50.6391,-112.1375 68.1957,-244.884 l 4.8047,-2576.8682 84.7797,1.2399 -0.1547,-67.111 c 83.0829,-76.2086 73.1031,-105.08086 78.89,-137.32136 l 40.2975,0 87.7245,-50.37155 -82.4548,-56.72643 -200.0925,-0.92995 c -3.1782,-10.29235 -13.0289,-20.14725 -36.5777,-32.70319 l 0,-692.96123 c 4.9307,-3.17222 28.8753,-16.65116 28.3632,-36.577702 C 298.0753,65.611222 277.9681,62.409242 270.8703,57.501631 L 269.9403,0 201.2796,0 z m 114.6928,967.75924 86.6395,0.1537 c -9.5748,80.52596 -78.8275,144.09276 -132.2067,152.66566 l -0.1547,-73.3102 c 25.9209,-12.916 38.058,-43.3581 45.7221,-79.51016 z m -116.3977,2716.51456 54.7116,0.1537 -0.31,14.4138 c -23.231,-1.9059 -19.8997,22.1451 -19.6838,49.5969 11.1042,-1.5702 24.0421,6.0266 24.7985,-17.9788 l 15.034,0.3075 -0.1547,49.9069 -15.0341,0 c -0.307,-18.1932 -12.0653,-12.6898 -24.4884,-12.8639 0.2013,21.1362 -5.3081,46.8681 20.3037,45.2572 l 0.1547,14.879 -54.4016,0 0,-14.7244 c 13.2323,0.2431 20.1769,-13.47 19.2188,-44.9472 -23.6281,-2.0884 -25.4475,4.9448 -25.2634,12.7093 l -14.879,0.1537 0.4647,-50.6816 14.5691,0.3076 c -0.7968,18.7728 11.6805,18.6949 24.7984,17.8235 0.9424,-27.0178 0.2172,-51.4804 -19.3738,-49.7515 l -0.4647,-14.5691 z"
       id="path3090-2"
       style="fill:#666666;fill-opacity:1;stroke:none" />
    <path
       d="m 264.10302,1121.464 0.73097,-73.0885 c 25.92091,-12.916 43.81472,-44.4651 51.47888,-80.61733 l -2.4e-4,0.001 187.07344,-2.4798 87.72449,-50.3716 -82.45483,-56.72642 -200.09238,-0.92995 c -3.17821,-10.29235 -22.94833,-20.14725 -46.49708,-32.70319 l 0,-692.96123 C 266.997,128.41476 290.94158,114.93582 290.42949,95.009281 288.4964,65.611215 268.38918,62.409245 261.29133,57.501635 L 260.36138,0 191.7007,0 l 19.8385,0 0.77494,54.866555 c -17.67329,5.31678 -31.79714,23.38641 -32.70293,39.057536 -0.31097,3.54867 -1.50587,24.324299 33.63288,40.607459 l -0.92995,690.01666 c -20.11023,9.48441 -46.13615,20.88475 -49.90685,32.70319 l -73.465376,0 -0.93,105.39337 61.066206,0 c 1.69037,54.27843 10.96518,72.17343 38.12761,84.15953 l 0.15474,73.4654 c 1.13022,32.7324 5.69114,184.8531 37.97261,218.7574 14.96622,-30.2536 25.75551,-21.3182 38.76994,-217.5631 z"
       id="path3090-2-2"
       style="fill:#333333;fill-opacity:1;stroke:none" />
  </g>
</svg>
