  0
SECTION
  2
HEADER
  9
$ACADVER
  1
AC1014
  9
$HANDSEED
  5
FFFF
  9
$MEASUREMENT
 70
     1
  0
ENDSEC
  0
SECTION
  2
TABLES
  0
TABLE
  2
VPORT
  5
8
330
0
100
AcDbSymbolTable
 70
     4
  0
VPORT
  5
2E
330
8
100
AcDbSymbolTableRecord
100
AcDbViewportTableRecord
  2
*ACTIVE
 70
     0
 10
0.0
 20
0.0
 11
1.0
 21
1.0
 12
210.0
 22
148.5
 13
0.0
 23
0.0
 14
10.0
 24
10.0
 15
10.0
 25
10.0
 16
0.0
 26
0.0
 36
1.0
 17
0.0
 27
0.0
 37
0.0
 40
341.0
 41
1.24
 42
50.0
 43
0.0
 44
0.0
 50
0.0
 51
0.0
 71
     0
 72
   100
 73
     1
 74
     3
 75
     0
 76
     0
 77
     0
 78
     0
  0
ENDTAB
  0
TABLE
  2
LTYPE
  5
5
330
0
100
AcDbSymbolTable
 70
     1
  0
LTYPE
  5
14
330
5
100
AcDbSymbolTableRecord
100
AcDbLinetypeTableRecord
  2
BYBLOCK
 70
     0
  3

 72
    65
 73
     0
 40
0.0
  0
LTYPE
  5
15
330
5
100
AcDbSymbolTableRecord
100
AcDbLinetypeTableRecord
  2
BYLAYER
 70
     0
  3

 72
    65
 73
     0
 40
0.0
  0
LTYPE
  5
16
330
5
100
AcDbSymbolTableRecord
100
AcDbLinetypeTableRecord
  2
CONTINUOUS
 70
     0
  3
Solid line
 72
    65
 73
     0
 40
0.0
  0
ENDTAB
  0
TABLE
  2
LAYER
  5
2
100
AcDbSymbolTable
 70
2
  0
LAYER
  5
50
100
AcDbSymbolTableRecord
100
AcDbLayerTableRecord
  2
0
 70
0
  6
CONTINUOUS
  0
LAYER
  5
51
100
AcDbSymbolTableRecord
100
AcDbLayerTableRecord
  2
Layer_1
 70
0
  6
CONTINUOUS
  0
ENDTAB
  0
TABLE
  2
STYLE
  5
3
330
0
100
AcDbSymbolTable
 70
     1
  0
STYLE
  5
11
330
3
100
AcDbSymbolTableRecord
100
AcDbTextStyleTableRecord
  2
STANDARD
 70
     0
 40
0.0
 41
1.0
 50
0.0
 71
     0
 42
2.5
  3
txt
  4

  0
ENDTAB
  0
TABLE
  2
VIEW
  5
6
330
0
100
AcDbSymbolTable
 70
     0
  0
ENDTAB
  0
TABLE
  2
UCS
  5
7
330
0
100
AcDbSymbolTable
 70
     0
  0
ENDTAB
  0
TABLE
  2
APPID
  5
9
330
0
100
AcDbSymbolTable
 70
     2
  0
APPID
  5
12
330
9
100
AcDbSymbolTableRecord
100
AcDbRegAppTableRecord
  2
ACAD
 70
     0
  0
ENDTAB
  0
TABLE
  2
DIMSTYLE
  5
A
330
0
100
AcDbSymbolTable
 70
     1
  0
DIMSTYLE
105
27
330
A
100
AcDbSymbolTableRecord
100
AcDbDimStyleTableRecord
  2
ISO-25
 70
     0
  3

  4

  5

  6

  7

 40
1.0
 41
2.5
 42
0.625
 43
3.75
 44
1.25
 45
0.0
 46
0.0
 47
0.0
 48
0.0
140
2.5
141
2.5
142
0.0
143
0.03937007874016
144
1.0
145
0.0
146
1.0
147
0.625
 71
     0
 72
     0
 73
     0
 74
     0
 75
     0
 76
     0
 77
     1
 78
     8
170
     0
171
     3
172
     1
173
     0
174
     0
175
     0
176
     0
177
     0
178
     0
270
     2
271
     2
272
     2
273
     2
274
     3
340
11
275
     0
280
     0
281
     0
282
     0
283
     0
284
     8
285
     0
286
     0
287
     3
288
     0
  0
ENDTAB
  0
TABLE
  2
BLOCK_RECORD
  5
1
330
0
100
AcDbSymbolTable
 70
     1
  0
BLOCK_RECORD
  5
1F
330
1
100
AcDbSymbolTableRecord
100
AcDbBlockTableRecord
  2
*MODEL_SPACE
  0
BLOCK_RECORD
  5
1B
330
1
100
AcDbSymbolTableRecord
100
AcDbBlockTableRecord
  2
*PAPER_SPACE
  0
ENDTAB
  0
ENDSEC
  0
SECTION
  2
BLOCKS
  0
BLOCK
  5
20
330
1F
100
AcDbEntity
  8
0
100
AcDbBlockBegin
  2
*MODEL_SPACE
 70
     0
 10
0.0
 20
0.0
 30
0.0
  3
*MODEL_SPACE
  1

  0
ENDBLK
  5
21
330
1F
100
AcDbEntity
  8
0
100
AcDbBlockEnd
  0
BLOCK
  5
1C
330
1B
100
AcDbEntity
 67
     1
  8
0
100
AcDbBlockBegin
  2
*PAPER_SPACE
  1

  0
ENDBLK
  5
1D
330
1B
100
AcDbEntity
 67
     1
  8
0
100
AcDbBlockEnd
  0
ENDSEC
  0
SECTION
  2
ENTITIES
  0
LWPOLYLINE
  5
100
100
AcDbEntity
  8
Layer_1
 62
7
100
AcDbPolyline
 90
49
 70
0
 10
1.135366
 20
16.135972
 30
0.0
 10
0.693210
 20
16.048715
 30
0.0
 10
0.332345
 20
15.810683
 30
0.0
 10
0.089150
 20
15.457482
 30
0.0
 10
0.000000
 20
15.024722
 30
0.0
 10
0.000000
 20
1.116472
 30
0.0
 10
0.089150
 20
0.683656
 30
0.0
 10
0.332345
 20
0.330455
 30
0.0
 10
0.693210
 20
0.092429
 30
0.0
 10
1.135366
 20
0.005194
 30
0.0
 10
69.365427
 20
0.005194
 30
0.0
 10
69.807585
 20
0.092429
 30
0.0
 10
70.168448
 20
0.330455
 30
0.0
 10
70.411648
 20
0.683656
 30
0.0
 10
70.500793
 20
1.116472
 30
0.0
 10
70.500793
 20
15.024722
 30
0.0
 10
70.411648
 20
15.457482
 30
0.0
 10
70.168448
 20
15.810683
 30
0.0
 10
69.807585
 20
16.048715
 30
0.0
 10
69.365427
 20
16.135972
 30
0.0
 10
55.578846
 20
16.135972
 30
0.0
 10
55.173358
 20
16.135972
 30
0.0
 10
55.173358
 20
13.737083
 30
0.0
 10
55.124390
 20
13.500525
 30
0.0
 10
54.990963
 20
13.307061
 30
0.0
 10
54.793298
 20
13.176449
 30
0.0
 10
54.551611
 20
13.128528
 30
0.0
 10
42.504120
 20
13.128528
 30
0.0
 10
42.263845
 20
13.176449
 30
0.0
 10
42.069275
 20
13.307061
 30
0.0
 10
41.938945
 20
13.500525
 30
0.0
 10
41.891385
 20
13.737083
 30
0.0
 10
41.891385
 20
16.135972
 30
0.0
 10
41.485896
 20
16.135972
 30
0.0
 10
30.033121
 20
16.135972
 30
0.0
 10
29.627635
 20
16.135972
 30
0.0
 10
29.627635
 20
13.737083
 30
0.0
 10
29.580075
 20
13.500525
 30
0.0
 10
29.449745
 20
13.307061
 30
0.0
 10
29.255175
 20
13.176449
 30
0.0
 10
29.014897
 20
13.128528
 30
0.0
 10
16.967407
 20
13.128528
 30
0.0
 10
16.725721
 20
13.176449
 30
0.0
 10
16.528055
 20
13.307061
 30
0.0
 10
16.394628
 20
13.500525
 30
0.0
 10
16.345659
 20
13.737083
 30
0.0
 10
16.345659
 20
16.135972
 30
0.0
 10
15.940172
 20
16.135972
 30
0.0
 10
1.135366
 20
16.135972
 30
0.0
  0
LWPOLYLINE
  5
101
100
AcDbEntity
  8
Layer_1
 62
7
100
AcDbPolyline
 90
45
 70
0
 10
2.000406
 20
15.130556
 30
0.0
 10
15.327435
 20
15.130556
 30
0.0
 10
15.327435
 20
12.740472
 30
0.0
 10
15.374996
 20
12.503942
 30
0.0
 10
15.505325
 20
12.310478
 30
0.0
 10
15.699894
 20
12.179894
 30
0.0
 10
15.940172
 20
12.131944
 30
0.0
 10
30.033121
 20
12.131944
 30
0.0
 10
30.274808
 20
12.179866
 30
0.0
 10
30.472473
 20
12.310478
 30
0.0
 10
30.605899
 20
12.503942
 30
0.0
 10
30.654871
 20
12.740472
 30
0.0
 10
30.654871
 20
15.130556
 30
0.0
 10
40.864149
 20
15.130556
 30
0.0
 10
40.864149
 20
12.740472
 30
0.0
 10
40.913118
 20
12.503942
 30
0.0
 10
41.046547
 20
12.310478
 30
0.0
 10
41.244210
 20
12.179894
 30
0.0
 10
41.485896
 20
12.131944
 30
0.0
 10
55.578846
 20
12.131944
 30
0.0
 10
55.819125
 20
12.179866
 30
0.0
 10
56.013694
 20
12.310478
 30
0.0
 10
56.144025
 20
12.503942
 30
0.0
 10
56.191585
 20
12.740472
 30
0.0
 10
56.191585
 20
15.130556
 30
0.0
 10
68.491377
 20
15.130556
 30
0.0
 10
68.874296
 20
15.055202
 30
0.0
 10
69.186425
 20
14.849547
 30
0.0
 10
69.396579
 20
14.544041
 30
0.0
 10
69.473558
 20
14.169250
 30
0.0
 10
69.473558
 20
1.963139
 30
0.0
 10
69.396579
 20
1.588320
 30
0.0
 10
69.186425
 20
1.282814
 30
0.0
 10
68.874296
 20
1.077131
 30
0.0
 10
68.491377
 20
1.001806
 30
0.0
 10
2.000406
 20
1.001806
 30
0.0
 10
1.617486
 20
1.077159
 30
0.0
 10
1.305356
 20
1.282814
 30
0.0
 10
1.095205
 20
1.588320
 30
0.0
 10
1.018224
 20
1.963139
 30
0.0
 10
1.018224
 20
14.169250
 30
0.0
 10
1.095205
 20
14.544041
 30
0.0
 10
1.305356
 20
14.849547
 30
0.0
 10
1.617486
 20
15.055202
 30
0.0
 10
2.000406
 20
15.130556
 30
0.0
  0
ENDSEC
  0
SECTION
  2
OBJECTS
  0
DICTIONARY
  5
C
330
0
100
AcDbDictionary
  3
ACAD_GROUP
350
D
  3
ACAD_MLINESTYLE
350
17
  0
DICTIONARY
  5
D
330
C
100
AcDbDictionary
  0
DICTIONARY
  5
1A
330
C
100
AcDbDictionary
  0
DICTIONARY
  5
17
330
C
100
AcDbDictionary
  3
STANDARD
350
18
  0
DICTIONARY
  5
19
330
C
100
AcDbDictionary
  0
ENDSEC
  0
EOF
