<?xml version="1.0" encoding="UTF-8" standalone="no"?>
<!-- Created with Inkscape (http://www.inkscape.org/) -->

<svg
   xmlns:dc="http://purl.org/dc/elements/1.1/"
   xmlns:cc="http://creativecommons.org/ns#"
   xmlns:rdf="http://www.w3.org/1999/02/22-rdf-syntax-ns#"
   xmlns:svg="http://www.w3.org/2000/svg"
   xmlns="http://www.w3.org/2000/svg"
   xmlns:sodipodi="http://sodipodi.sourceforge.net/DTD/sodipodi-0.dtd"
   xmlns:inkscape="http://www.inkscape.org/namespaces/inkscape"
   width="1052.3622"
   height="744.09448"
   id="svg2"
   version="1.1"
   inkscape:version="0.48.3.1 r9886"
   sodipodi:docname="MF70_NEMA23.svg">
  <defs
     id="defs4" />
  <sodipodi:namedview
     id="base"
     pagecolor="#ffffff"
     bordercolor="#666666"
     borderopacity="1.0"
     inkscape:pageopacity="0.0"
     inkscape:pageshadow="2"
     inkscape:zoom="0.70710678"
     inkscape:cx="752.33836"
     inkscape:cy="190.64408"
     inkscape:document-units="px"
     inkscape:current-layer="layer1"
     showgrid="false"
     inkscape:window-width="1600"
     inkscape:window-height="1145"
     inkscape:window-x="0"
     inkscape:window-y="0"
     inkscape:window-maximized="1" />
  <metadata
     id="metadata7">
    <rdf:RDF>
      <cc:Work
         rdf:about="">
        <dc:format>image/svg+xml</dc:format>
        <dc:type
           rdf:resource="http://purl.org/dc/dcmitype/StillImage" />
        <dc:title />
      </cc:Work>
    </rdf:RDF>
  </metadata>
  <g
     inkscape:label="Layer 1"
     inkscape:groupmode="layer"
     id="layer1"
     transform="translate(0,-308.2677)">
    <path
       style="color:#000000;fill:#00baff;fill-opacity:1;fill-rule:nonzero;stroke:none;stroke-width:1;marker:none;visibility:visible;display:inline;overflow:visible;enable-background:accumulate"
       d="m 683.43868,523.31615 c -9.89286,0 -17.84375,7.98214 -17.84375,17.875 l 0,212.31247 c 0,9.8929 7.95089,17.8438 17.84375,17.8438 l 212.34381,0 c 9.8928,0 17.8437,-7.9509 17.8437,-17.8438 l 0,-212.31247 c 0,-9.89286 -7.9509,-17.875 -17.8437,-17.875 l -212.34381,0 z m 22.0625,31.46875 c 0.27884,-0.0183 0.55997,-0.008 0.84375,0 0.3027,0.009 0.59959,0.054 0.90625,0.0937 l 0.125,0 c 4.94009,0.70045 8.35669,5.27861 7.65625,10.21875 -0.70044,4.94014 -5.27866,8.38795 -10.21875,7.6875 -4.94009,-0.70045 -8.35669,-5.27861 -7.65625,-10.21875 0.61046,-4.30555 4.16113,-7.50679 8.34375,-7.78125 z m 167.03131,0 c 0.2788,-0.0183 0.5599,-0.008 0.8437,0 0.3027,0.009 0.5996,0.054 0.9063,0.0937 l 0.125,0 c 4.9401,0.70045 8.3567,5.27861 7.6562,10.21875 -0.7004,4.94014 -5.2786,8.38795 -10.21874,7.6875 -4.9401,-0.70045 -8.3567,-5.27861 -7.6563,-10.21875 0.6105,-4.30555 4.1612,-7.50679 8.34384,-7.78125 z m -83.84384,51.8125 c 2.0301,-0.0435 4.0818,0.0747 6.1563,0.34375 l 0.5,0.0625 c 22.2788,3.15888 37.7526,23.78344 34.5937,46.0625 -3.1588,22.27906 -23.7836,37.78388 -46.0625,34.625 -22.2788,-3.15888 -37.7526,-23.78344 -34.5937,-46.0625 2.8387,-20.02128 19.7826,-34.61038 39.4062,-35.03125 z m -66.24997,57.03125 c 0.16619,0.005 0.33164,0.0407 0.5,0.0625 l 0.0312,0 c 2.71221,0.38456 4.60331,2.88152 4.21875,5.59375 -0.38456,2.71223 -2.88154,4.60331 -5.59376,4.21875 -2.71221,-0.38456 -4.60331,-2.88152 -4.21875,-5.59375 0.3575,-2.52142 2.56969,-4.3525 5.0625,-4.28125 z m 134.62497,0 c 0.1662,0.005 0.3317,0.0407 0.5,0.0625 l 0.062,0 c 2.7122,0.38456 4.6033,2.88152 4.2188,5.59375 -0.3846,2.71223 -2.8816,4.60331 -5.5938,4.21875 -2.7122,-0.38456 -4.6033,-2.88152 -4.2187,-5.59375 0.3575,-2.52142 2.5384,-4.3525 5.0312,-4.28125 z m -151.56247,58.1875 c 0.27884,-0.0183 0.55997,-0.008 0.84375,0 0.3027,0.009 0.59959,0.0541 0.90625,0.0937 l 0.125,0 c 4.94009,0.70045 8.35669,5.27861 7.65625,10.21877 -0.70044,4.9401 -5.27866,8.3879 -10.21875,7.6875 -4.94009,-0.7005 -8.35669,-5.2786 -7.65625,-10.2188 0.61046,-4.30552 4.16113,-7.50676 8.34375,-7.78122 z m 167.03131,0 c 0.2788,-0.0183 0.5599,-0.008 0.8437,0 0.3027,0.009 0.5996,0.0541 0.9063,0.0937 l 0.125,0 c 4.9401,0.70045 8.3567,5.27861 7.6562,10.21877 -0.7004,4.9401 -5.2786,8.3879 -10.21874,7.6875 -4.9401,-0.7005 -8.3567,-5.2786 -7.6563,-10.2188 0.6105,-4.30552 4.1612,-7.50676 8.34384,-7.78122 z"
       id="rect2985-1"
       inkscape:connector-curvature="0" />
    <path
       style="color:#000000;fill:#00baff;fill-opacity:1;fill-rule:nonzero;stroke:none;stroke-width:1;marker:none;visibility:visible;display:inline;overflow:visible;enable-background:accumulate"
       d="m 169.68661,523.31615 c -13.42603,0 -24.25,10.82398 -24.25,24.25 l 0,288.1562 c 0,13.4267 10.82397,24.2188 24.25,24.2188 l 199.5625,0 c 13.42603,0 24.25,-10.7924 24.25,-24.2188 l 0,-288.1562 c 0,-13.42602 -10.82397,-24.25 -24.25,-24.25 l -199.5625,0 z m 29.03125,14.53125 c 0.16619,0.005 0.33164,0.0407 0.5,0.0625 l 0.0625,0 c 2.71221,0.38456 4.60331,2.88152 4.21875,5.59375 -0.38456,2.71223 -2.88154,4.60331 -5.59375,4.21875 -2.71221,-0.38456 -4.60331,-2.88152 -4.21875,-5.59375 0.3575,-2.52142 2.53844,-4.3525 5.03125,-4.28125 z m 141.75,0 c 0.16619,0.005 0.33164,0.0407 0.5,0.0625 l 0.0625,0 c 2.71221,0.38456 4.57206,2.88152 4.1875,5.59375 -0.38456,2.71223 -2.88154,4.60331 -5.59375,4.21875 -2.71221,-0.38456 -4.60331,-2.88152 -4.21875,-5.59375 0.3575,-2.52142 2.56969,-4.3525 5.0625,-4.28125 z m -155.125,105.53125 c 0.27884,-0.0181 0.55997,-0.008 0.84375,0 0.3027,0.009 0.59959,0.0227 0.90625,0.0625 l 0.125,0.0312 c 4.94009,0.70045 8.35669,5.27861 7.65625,10.21875 -0.70044,4.94014 -5.27866,8.3567 -10.21875,7.65625 -4.94009,-0.70045 -8.35669,-5.27861 -7.65625,-10.21875 0.61046,-4.30554 4.16113,-7.47897 8.34375,-7.75 z m 167.03125,0.0312 c 0.27884,-0.0183 0.55997,-0.008 0.84375,0 0.3027,0.009 0.59959,0.054 0.90625,0.0937 l 0.125,0 c 4.94009,0.70045 8.35669,5.27861 7.65625,10.21875 -0.70044,4.94014 -5.27866,8.3567 -10.21875,7.65625 -4.94009,-0.70045 -8.35669,-5.24736 -7.65625,-10.1875 0.61046,-4.30554 4.16113,-7.50679 8.34375,-7.78125 z m -83.84375,51.7813 c 2.03003,-0.043 4.11302,0.075 6.1875,0.3438 l 0.46875,0.0624 c 22.27885,3.159 37.78385,23.7832 34.625,46.0626 -3.15885,22.2783 -23.78365,37.7526 -46.0625,34.5937 -22.27885,-3.1588 -37.78385,-23.7519 -34.625,-46.0313 2.83873,-20.0208 19.7826,-34.6103 39.40625,-35.0312 z m -99.9375,3.875 c 0.16619,0 0.33164,0.0415 0.5,0.0625 l 0.0625,0 c 2.71221,0.3846 4.60331,2.8815 4.21875,5.5937 -0.38456,2.7125 -2.88154,4.6034 -5.59375,4.2188 -2.71221,-0.3846 -4.60331,-2.8814 -4.21875,-5.5938 0.3575,-2.5212 2.53844,-4.3524 5.03125,-4.2812 z m 201.96875,0 c 0.16619,0 0.33164,0.0415 0.5,0.0625 l 0.0625,0 c 2.71221,0.3846 4.60331,2.8815 4.21875,5.5937 -0.38456,2.7125 -2.88154,4.6034 -5.59375,4.2188 -2.71221,-0.3846 -4.60331,-2.8814 -4.21875,-5.5938 0.3575,-2.5212 2.53844,-4.3524 5.03125,-4.2812 z m -185.21875,111.3438 c 0.27884,-0.0182 0.55997,-0.01 0.84375,0 0.3027,0.01 0.59959,0.0244 0.90625,0.0624 l 0.125,0.0313 c 4.94009,0.7004 8.35669,5.2787 7.65625,10.2187 -0.70044,4.9405 -5.27866,8.3567 -10.21875,7.6563 -4.94009,-0.7004 -8.35669,-5.2474 -7.65625,-10.1875 0.61046,-4.3056 4.16113,-7.5071 8.34375,-7.7812 z m 167.03125,0 c 0.27884,-0.0182 0.55997,-0.01 0.84375,0 0.3027,0.01 0.59959,0.0244 0.90625,0.0624 l 0.125,0.0313 c 4.94009,0.7004 8.35669,5.2791 7.65625,10.2187 -0.70044,4.9405 -5.27866,8.3567 -10.21875,7.6563 -4.94009,-0.7004 -8.35669,-5.2474 -7.65625,-10.1875 0.61046,-4.3056 4.16113,-7.5071 8.34375,-7.7812 z"
       id="rect2985-4"
       inkscape:connector-curvature="0" />
    <path
       style="color:#000000;fill:#00baff;fill-opacity:1;fill-rule:nonzero;stroke:none;stroke-width:1;marker:none;visibility:visible;display:inline;overflow:visible;enable-background:accumulate"
       d="m 424.04147,523.31615 c -9.89286,0 -17.875,7.95089 -17.875,17.84375 l 0,212.34381 c 0,9.8928 7.98214,17.8437 17.875,17.8437 l 212.3125,0 c 9.89286,0 17.84375,-7.9509 17.84375,-17.8437 l 0,-212.34381 c 0,-9.89286 -7.95089,-17.84375 -17.84375,-17.84375 l -212.3125,0 z m 22.03125,31.46875 c 0.27884,-0.0181 0.55997,-0.008 0.84375,0 0.3027,0.009 0.59959,0.0227 0.90625,0.0625 l 0.125,0.0312 c 4.94009,0.70045 8.38794,5.27861 7.6875,10.21875 -0.70044,4.94014 -5.27866,8.3567 -10.21875,7.65625 -4.94009,-0.70045 -8.38794,-5.27861 -7.6875,-10.21875 0.61046,-4.30555 4.16113,-7.47897 8.34375,-7.75 z m 167.03125,0.0312 c 0.27884,-0.0183 0.55997,-0.008 0.84375,0 0.3027,0.009 0.59959,0.0227 0.90625,0.0625 l 0.125,0.0312 c 4.94009,0.70045 8.38794,5.27861 7.6875,10.21875 -0.70044,4.94014 -5.27866,8.3567 -10.21875,7.65625 -4.94009,-0.70045 -8.38794,-5.24736 -7.6875,-10.1875 0.61046,-4.30555 4.16113,-7.50679 8.34375,-7.78125 z m -83.84375,51.78127 c 2.03003,-0.043 4.08177,0.075 6.15625,0.3437 l 0.5,0.062 c 22.27885,3.1589 37.78385,23.7835 34.625,46.0625 -3.15885,22.27914 -23.78365,37.75274 -46.0625,34.59384 -22.27885,-3.1589 -37.78385,-23.7835 -34.625,-46.06254 2.83873,-20.0213 19.7826,-34.5791 39.40625,-35 z m -66.75,46.9375 c 0.32619,-0.023 0.66327,-0.012 1,0.031 l 0.0312,0 c 2.71221,0.3845 4.60331,2.9128 4.21875,5.625 -0.38456,2.71224 -2.88154,4.60334 -5.59375,4.21874 -2.71221,-0.3845 -4.60331,-2.91274 -4.21875,-5.62504 0.33367,-2.3533 2.27915,-4.087 4.5625,-4.25 z m 134.625,0 c 0.32619,-0.023 0.66327,-0.012 1,0.031 l 0.0625,0 c 2.71221,0.3845 4.60331,2.9128 4.21875,5.625 -0.38456,2.71224 -2.91279,4.60334 -5.625,4.21874 -2.71221,-0.3845 -4.57206,-2.91274 -4.1875,-5.62504 0.33367,-2.3533 2.2479,-4.087 4.53125,-4.25 z m -151.0625,68.28124 c 0.27884,-0.018 0.55997,-0.01 0.84375,0 0.3027,0.01 0.59959,0.023 0.90625,0.062 l 0.125,0.031 c 4.94009,0.7005 8.38794,5.2786 7.6875,10.2188 -0.70044,4.9401 -5.27866,8.3567 -10.21875,7.6562 -4.94009,-0.7004 -8.38794,-5.2786 -7.6875,-10.2187 0.61046,-4.3056 4.16113,-7.479 8.34375,-7.75 z m 167.03125,0 c 0.27884,-0.018 0.55997,-0.01 0.84375,0 0.3027,0.01 0.59959,0.023 0.90625,0.062 l 0.125,0.031 c 4.94009,0.7005 8.38794,5.2786 7.6875,10.2188 -0.70044,4.9401 -5.27866,8.3567 -10.21875,7.6562 -4.94009,-0.7004 -8.38794,-5.2786 -7.6875,-10.2187 0.61046,-4.3056 4.16113,-7.479 8.34375,-7.75 z"
       id="rect2985-4-4-8"
       inkscape:connector-curvature="0" />
  </g>
</svg>
