solid OpenSCAD_Model
  facet normal -0 0 -1
    outer loop
      vertex -5.8 0 0
      vertex -5.76823 0.606265 0
      vertex -5.76823 -0.606265 0
    endloop
  endfacet
  facet normal 0 -0 -1
    outer loop
      vertex -5.76823 -0.606265 0
      vertex -5.76823 0.606265 0
      vertex -5.67326 1.20589 0
    endloop
  endfacet
  facet normal 0 0 -1
    outer loop
      vertex -5.76823 -0.606265 0
      vertex -5.67326 1.20589 0
      vertex -5.51613 1.7923 0
    endloop
  endfacet
  facet normal 0 0 -1
    outer loop
      vertex -5.76823 -0.606265 0
      vertex -5.51613 1.7923 0
      vertex -5.29856 2.35907 0
    endloop
  endfacet
  facet normal 0 0 -1
    outer loop
      vertex -5.76823 -0.606265 0
      vertex -5.29856 2.35907 0
      vertex -5.02295 2.9 0
    endloop
  endfacet
  facet normal 0 0 -1
    outer loop
      vertex -5.76823 -0.606265 0
      vertex -5.02295 2.9 0
      vertex -4.6923 3.40915 0
    endloop
  endfacet
  facet normal 0 0 -1
    outer loop
      vertex -5.76823 -0.606265 0
      vertex -4.6923 3.40915 0
      vertex -4.31024 3.88096 0
    endloop
  endfacet
  facet normal 0 0 -1
    outer loop
      vertex -5.76823 -0.606265 0
      vertex -4.31024 3.88096 0
      vertex -3.88096 4.31024 0
    endloop
  endfacet
  facet normal 0 0 -1
    outer loop
      vertex -5.76823 -0.606265 0
      vertex -3.88096 4.31024 0
      vertex -3.40915 4.6923 0
    endloop
  endfacet
  facet normal 0 0 -1
    outer loop
      vertex -5.76823 -0.606265 0
      vertex -3.40915 4.6923 0
      vertex -2.9 5.02295 0
    endloop
  endfacet
  facet normal 0 0 -1
    outer loop
      vertex -5.76823 -0.606265 0
      vertex -2.9 5.02295 0
      vertex -2.35907 5.29856 0
    endloop
  endfacet
  facet normal 0 0 -1
    outer loop
      vertex -5.76823 -0.606265 0
      vertex -2.35907 5.29856 0
      vertex -1.7923 5.51613 0
    endloop
  endfacet
  facet normal 0 0 -1
    outer loop
      vertex -5.76823 -0.606265 0
      vertex -1.7923 5.51613 0
      vertex -1.20589 5.67326 0
    endloop
  endfacet
  facet normal 0 0 -1
    outer loop
      vertex -2.49809 3.43832 0
      vertex -1.20589 5.67326 0
      vertex -0.606265 5.76823 0
    endloop
  endfacet
  facet normal 0 0 -1
    outer loop
      vertex -1.72863 3.88257 0
      vertex -0.606265 5.76823 0
      vertex 0 5.8 0
    endloop
  endfacet
  facet normal 0 0 -1
    outer loop
      vertex -1.31332 4.04199 0
      vertex 0 5.8 0
      vertex 0.606265 5.76823 0
    endloop
  endfacet
  facet normal 0 0 -1
    outer loop
      vertex -0.444246 4.22672 0
      vertex 0.606265 5.76823 0
      vertex 1.20589 5.67326 0
    endloop
  endfacet
  facet normal 0 0 -1
    outer loop
      vertex 0 4.25 0
      vertex 1.20589 5.67326 0
      vertex 1.7923 5.51613 0
    endloop
  endfacet
  facet normal 0 0 -1
    outer loop
      vertex 0.444246 4.22672 0
      vertex 1.7923 5.51613 0
      vertex 2.35907 5.29856 0
    endloop
  endfacet
  facet normal 0 0 -1
    outer loop
      vertex 1.31332 4.04199 0
      vertex 2.35907 5.29856 0
      vertex 2.9 5.02295 0
    endloop
  endfacet
  facet normal 0 0 -1
    outer loop
      vertex 1.72863 3.88257 0
      vertex 2.9 5.02295 0
      vertex 3.40915 4.6923 0
    endloop
  endfacet
  facet normal 0 0 -1
    outer loop
      vertex 2.125 3.68061 0
      vertex 3.40915 4.6923 0
      vertex 3.88096 4.31024 0
    endloop
  endfacet
  facet normal 0 0 -1
    outer loop
      vertex 2.49809 3.43832 0
      vertex 3.88096 4.31024 0
      vertex 4.31024 3.88096 0
    endloop
  endfacet
  facet normal 0 0 -1
    outer loop
      vertex 3.15837 2.8438 0
      vertex 4.31024 3.88096 0
      vertex 4.6923 3.40915 0
    endloop
  endfacet
  facet normal 0 0 -1
    outer loop
      vertex 3.43832 2.49809 0
      vertex 4.6923 3.40915 0
      vertex 5.02295 2.9 0
    endloop
  endfacet
  facet normal 0 0 -1
    outer loop
      vertex 3.68061 2.125 0
      vertex 5.02295 2.9 0
      vertex 5.29856 2.35907 0
    endloop
  endfacet
  facet normal 0 0 -1
    outer loop
      vertex 3.88257 1.72863 0
      vertex 5.29856 2.35907 0
      vertex 5.51613 1.7923 0
    endloop
  endfacet
  facet normal -0 0 -1
    outer loop
      vertex 4.04199 1.31332 0
      vertex 5.51613 1.7923 0
      vertex 5.67326 1.20589 0
    endloop
  endfacet
  facet normal 0 0 -1
    outer loop
      vertex 4.22672 0.444246 0
      vertex 5.67326 1.20589 0
      vertex 5.76823 0.606265 0
    endloop
  endfacet
  facet normal -0 0 -1
    outer loop
      vertex 4.25 0 0
      vertex 5.76823 0.606265 0
      vertex 5.8 0 0
    endloop
  endfacet
  facet normal -0 0 -1
    outer loop
      vertex 4.22672 -0.444246 0
      vertex 5.8 0 0
      vertex 5.76823 -0.606265 0
    endloop
  endfacet
  facet normal -0 0 -1
    outer loop
      vertex 4.15713 -0.883625 0
      vertex 5.76823 -0.606265 0
      vertex 5.67326 -1.20589 0
    endloop
  endfacet
  facet normal -0 0 -1
    outer loop
      vertex 4.04199 -1.31332 0
      vertex 5.67326 -1.20589 0
      vertex 5.51613 -1.7923 0
    endloop
  endfacet
  facet normal 0 0 -1
    outer loop
      vertex 3.88257 -1.72863 0
      vertex 5.51613 -1.7923 0
      vertex 5.29856 -2.35907 0
    endloop
  endfacet
  facet normal -0 0 -1
    outer loop
      vertex 3.43832 -2.49809 0
      vertex 5.29856 -2.35907 0
      vertex 5.02295 -2.9 0
    endloop
  endfacet
  facet normal 0 0 -1
    outer loop
      vertex 3.15837 -2.8438 0
      vertex 5.02295 -2.9 0
      vertex 4.6923 -3.40915 0
    endloop
  endfacet
  facet normal 0 0 -1
    outer loop
      vertex 2.8438 -3.15837 0
      vertex 4.6923 -3.40915 0
      vertex 4.31024 -3.88096 0
    endloop
  endfacet
  facet normal 0 0 -1
    outer loop
      vertex 2.49809 -3.43832 0
      vertex 4.31024 -3.88096 0
      vertex 3.88096 -4.31024 0
    endloop
  endfacet
  facet normal 0 0 -1
    outer loop
      vertex 1.72863 -3.88257 0
      vertex 3.88096 -4.31024 0
      vertex 3.40915 -4.6923 0
    endloop
  endfacet
  facet normal 0 0 -1
    outer loop
      vertex 1.31332 -4.04199 0
      vertex 3.40915 -4.6923 0
      vertex 2.9 -5.02295 0
    endloop
  endfacet
  facet normal 0 0 -1
    outer loop
      vertex 0.883625 -4.15713 0
      vertex 2.9 -5.02295 0
      vertex 2.35907 -5.29856 0
    endloop
  endfacet
  facet normal 0 0 -1
    outer loop
      vertex 0 -4.25 0
      vertex 2.35907 -5.29856 0
      vertex 1.7923 -5.51613 0
    endloop
  endfacet
  facet normal 0 0 -1
    outer loop
      vertex -0.444246 -4.22672 0
      vertex 1.7923 -5.51613 0
      vertex 1.20589 -5.67326 0
    endloop
  endfacet
  facet normal 0 0 -1
    outer loop
      vertex -1.31332 -4.04199 0
      vertex 1.20589 -5.67326 0
      vertex 0.606265 -5.76823 0
    endloop
  endfacet
  facet normal 0 0 -1
    outer loop
      vertex -2.125 -3.68061 0
      vertex 0.606265 -5.76823 0
      vertex 0 -5.8 0
    endloop
  endfacet
  facet normal 0 0 -1
    outer loop
      vertex -5.76823 -0.606265 0
      vertex 0 -5.8 0
      vertex -0.606265 -5.76823 0
    endloop
  endfacet
  facet normal 0 0 -1
    outer loop
      vertex -5.76823 -0.606265 0
      vertex -0.606265 -5.76823 0
      vertex -1.20589 -5.67326 0
    endloop
  endfacet
  facet normal 0 0 -1
    outer loop
      vertex -5.76823 -0.606265 0
      vertex -1.20589 -5.67326 0
      vertex -1.7923 -5.51613 0
    endloop
  endfacet
  facet normal 0 0 -1
    outer loop
      vertex -5.76823 -0.606265 0
      vertex -1.7923 -5.51613 0
      vertex -2.35907 -5.29856 0
    endloop
  endfacet
  facet normal 0 0 -1
    outer loop
      vertex -5.76823 -0.606265 0
      vertex -2.35907 -5.29856 0
      vertex -2.9 -5.02295 0
    endloop
  endfacet
  facet normal 0 0 -1
    outer loop
      vertex -5.76823 -0.606265 0
      vertex -2.9 -5.02295 0
      vertex -3.40915 -4.6923 0
    endloop
  endfacet
  facet normal 0 0 -1
    outer loop
      vertex -5.76823 -0.606265 0
      vertex -3.40915 -4.6923 0
      vertex -3.88096 -4.31024 0
    endloop
  endfacet
  facet normal 0 0 -1
    outer loop
      vertex -5.76823 -0.606265 0
      vertex -3.88096 -4.31024 0
      vertex -4.31024 -3.88096 0
    endloop
  endfacet
  facet normal 0 0 -1
    outer loop
      vertex -5.76823 -0.606265 0
      vertex -4.31024 -3.88096 0
      vertex -4.6923 -3.40915 0
    endloop
  endfacet
  facet normal 0 0 -1
    outer loop
      vertex -5.76823 -0.606265 0
      vertex -4.6923 -3.40915 0
      vertex -5.02295 -2.9 0
    endloop
  endfacet
  facet normal 0 0 -1
    outer loop
      vertex -5.76823 -0.606265 0
      vertex -5.02295 -2.9 0
      vertex -5.29856 -2.35907 0
    endloop
  endfacet
  facet normal 0 0 -1
    outer loop
      vertex -5.76823 -0.606265 0
      vertex -5.29856 -2.35907 0
      vertex -5.51613 -1.7923 0
    endloop
  endfacet
  facet normal 0 0 -1
    outer loop
      vertex -5.76823 -0.606265 0
      vertex -5.51613 -1.7923 0
      vertex -5.67326 -1.20589 0
    endloop
  endfacet
  facet normal 0 0 -1
    outer loop
      vertex -4.22672 -0.444246 0
      vertex -5.76823 -0.606265 0
      vertex -4.25 0 0
    endloop
  endfacet
  facet normal 0 0 -1
    outer loop
      vertex -4.15713 -0.883625 0
      vertex -5.76823 -0.606265 0
      vertex -4.22672 -0.444246 0
    endloop
  endfacet
  facet normal 0 0 -1
    outer loop
      vertex -4.04199 -1.31332 0
      vertex -5.76823 -0.606265 0
      vertex -4.15713 -0.883625 0
    endloop
  endfacet
  facet normal 0 0 -1
    outer loop
      vertex -3.88257 -1.72863 0
      vertex -5.76823 -0.606265 0
      vertex -4.04199 -1.31332 0
    endloop
  endfacet
  facet normal 0 0 -1
    outer loop
      vertex -3.68061 -2.125 0
      vertex -5.76823 -0.606265 0
      vertex -3.88257 -1.72863 0
    endloop
  endfacet
  facet normal 0 0 -1
    outer loop
      vertex -3.43832 -2.49809 0
      vertex -5.76823 -0.606265 0
      vertex -3.68061 -2.125 0
    endloop
  endfacet
  facet normal 0 0 -1
    outer loop
      vertex -2.49809 -3.43832 0
      vertex 0 -5.8 0
      vertex -2.8438 -3.15837 0
    endloop
  endfacet
  facet normal 0 0 -1
    outer loop
      vertex -5.76823 -0.606265 0
      vertex -3.43832 -2.49809 0
      vertex -3.15837 -2.8438 0
    endloop
  endfacet
  facet normal 0 0 -1
    outer loop
      vertex -5.76823 -0.606265 0
      vertex -3.15837 -2.8438 0
      vertex -2.8438 -3.15837 0
    endloop
  endfacet
  facet normal 0 0 -1
    outer loop
      vertex -5.76823 -0.606265 0
      vertex -2.8438 -3.15837 0
      vertex 0 -5.8 0
    endloop
  endfacet
  facet normal 0 0 -1
    outer loop
      vertex -2.125 -3.68061 0
      vertex 0 -5.8 0
      vertex -2.49809 -3.43832 0
    endloop
  endfacet
  facet normal 0 0 -1
    outer loop
      vertex -1.72863 -3.88257 0
      vertex 0.606265 -5.76823 0
      vertex -2.125 -3.68061 0
    endloop
  endfacet
  facet normal 0 0 -1
    outer loop
      vertex -1.31332 -4.04199 0
      vertex 0.606265 -5.76823 0
      vertex -1.72863 -3.88257 0
    endloop
  endfacet
  facet normal 0 0 -1
    outer loop
      vertex -0.883625 -4.15713 0
      vertex 1.20589 -5.67326 0
      vertex -1.31332 -4.04199 0
    endloop
  endfacet
  facet normal 0 0 -1
    outer loop
      vertex -0.444246 -4.22672 0
      vertex 1.20589 -5.67326 0
      vertex -0.883625 -4.15713 0
    endloop
  endfacet
  facet normal 0 0 -1
    outer loop
      vertex 0.444246 -4.22672 0
      vertex 2.35907 -5.29856 0
      vertex 0 -4.25 0
    endloop
  endfacet
  facet normal 0 0 -1
    outer loop
      vertex 0.883625 -4.15713 0
      vertex 2.35907 -5.29856 0
      vertex 0.444246 -4.22672 0
    endloop
  endfacet
  facet normal 0 0 -1
    outer loop
      vertex 0 -4.25 0
      vertex 1.7923 -5.51613 0
      vertex -0.444246 -4.22672 0
    endloop
  endfacet
  facet normal 0 0 -1
    outer loop
      vertex 2.125 -3.68061 0
      vertex 3.88096 -4.31024 0
      vertex 1.72863 -3.88257 0
    endloop
  endfacet
  facet normal 0 0 -1
    outer loop
      vertex 2.49809 -3.43832 0
      vertex 3.88096 -4.31024 0
      vertex 2.125 -3.68061 0
    endloop
  endfacet
  facet normal 0 0 -1
    outer loop
      vertex 1.72863 -3.88257 0
      vertex 3.40915 -4.6923 0
      vertex 1.31332 -4.04199 0
    endloop
  endfacet
  facet normal 0 0 -1
    outer loop
      vertex 1.31332 -4.04199 0
      vertex 2.9 -5.02295 0
      vertex 0.883625 -4.15713 0
    endloop
  endfacet
  facet normal 0 0 -1
    outer loop
      vertex 3.68061 -2.125 0
      vertex 5.29856 -2.35907 0
      vertex 3.43832 -2.49809 0
    endloop
  endfacet
  facet normal 0 0 -1
    outer loop
      vertex 3.88257 -1.72863 0
      vertex 5.29856 -2.35907 0
      vertex 3.68061 -2.125 0
    endloop
  endfacet
  facet normal 0 0 -1
    outer loop
      vertex 3.43832 -2.49809 0
      vertex 5.02295 -2.9 0
      vertex 3.15837 -2.8438 0
    endloop
  endfacet
  facet normal 0 0 -1
    outer loop
      vertex 3.15837 -2.8438 0
      vertex 4.6923 -3.40915 0
      vertex 2.8438 -3.15837 0
    endloop
  endfacet
  facet normal 0 0 -1
    outer loop
      vertex 2.8438 -3.15837 0
      vertex 4.31024 -3.88096 0
      vertex 2.49809 -3.43832 0
    endloop
  endfacet
  facet normal -0 0 -1
    outer loop
      vertex 4.22672 0.444246 0
      vertex 5.76823 0.606265 0
      vertex 4.25 0 0
    endloop
  endfacet
  facet normal -0 0 -1
    outer loop
      vertex 4.15713 0.883625 0
      vertex 5.67326 1.20589 0
      vertex 4.22672 0.444246 0
    endloop
  endfacet
  facet normal 0 0 -1
    outer loop
      vertex 4.25 0 0
      vertex 5.8 0 0
      vertex 4.22672 -0.444246 0
    endloop
  endfacet
  facet normal 0 0 -1
    outer loop
      vertex 4.22672 -0.444246 0
      vertex 5.76823 -0.606265 0
      vertex 4.15713 -0.883625 0
    endloop
  endfacet
  facet normal 0 0 -1
    outer loop
      vertex 4.15713 -0.883625 0
      vertex 5.67326 -1.20589 0
      vertex 4.04199 -1.31332 0
    endloop
  endfacet
  facet normal 0 0 -1
    outer loop
      vertex 4.04199 -1.31332 0
      vertex 5.51613 -1.7923 0
      vertex 3.88257 -1.72863 0
    endloop
  endfacet
  facet normal -0 0 -1
    outer loop
      vertex 2.8438 3.15837 0
      vertex 4.31024 3.88096 0
      vertex 3.15837 2.8438 0
    endloop
  endfacet
  facet normal -0 0 -1
    outer loop
      vertex 2.49809 3.43832 0
      vertex 4.31024 3.88096 0
      vertex 2.8438 3.15837 0
    endloop
  endfacet
  facet normal -0 0 -1
    outer loop
      vertex 3.15837 2.8438 0
      vertex 4.6923 3.40915 0
      vertex 3.43832 2.49809 0
    endloop
  endfacet
  facet normal -0 0 -1
    outer loop
      vertex 3.43832 2.49809 0
      vertex 5.02295 2.9 0
      vertex 3.68061 2.125 0
    endloop
  endfacet
  facet normal -0 0 -1
    outer loop
      vertex 3.68061 2.125 0
      vertex 5.29856 2.35907 0
      vertex 3.88257 1.72863 0
    endloop
  endfacet
  facet normal -0 0 -1
    outer loop
      vertex 0.883625 4.15713 0
      vertex 2.35907 5.29856 0
      vertex 1.31332 4.04199 0
    endloop
  endfacet
  facet normal -0 0 -1
    outer loop
      vertex 0 4.25 0
      vertex 1.7923 5.51613 0
      vertex 0.444246 4.22672 0
    endloop
  endfacet
  facet normal 0 0 -1
    outer loop
      vertex -0.444246 4.22672 0
      vertex 1.20589 5.67326 0
      vertex 0 4.25 0
    endloop
  endfacet
  facet normal 0 0 -1
    outer loop
      vertex -0.883625 4.15713 0
      vertex 0.606265 5.76823 0
      vertex -0.444246 4.22672 0
    endloop
  endfacet
  facet normal 0 0 -1
    outer loop
      vertex -1.31332 4.04199 0
      vertex 0.606265 5.76823 0
      vertex -0.883625 4.15713 0
    endloop
  endfacet
  facet normal 0 0 -1
    outer loop
      vertex -1.72863 3.88257 0
      vertex 0 5.8 0
      vertex -1.31332 4.04199 0
    endloop
  endfacet
  facet normal 0 0 -1
    outer loop
      vertex -2.125 3.68061 0
      vertex -0.606265 5.76823 0
      vertex -1.72863 3.88257 0
    endloop
  endfacet
  facet normal 0 0 -1
    outer loop
      vertex -2.49809 3.43832 0
      vertex -0.606265 5.76823 0
      vertex -2.125 3.68061 0
    endloop
  endfacet
  facet normal 0 0 -1
    outer loop
      vertex -2.8438 3.15837 0
      vertex -1.20589 5.67326 0
      vertex -2.49809 3.43832 0
    endloop
  endfacet
  facet normal 0 -0 -1
    outer loop
      vertex -3.68061 2.125 0
      vertex -5.76823 -0.606265 0
      vertex -3.43832 2.49809 0
    endloop
  endfacet
  facet normal 0 0 -1
    outer loop
      vertex -3.15837 2.8438 0
      vertex -1.20589 5.67326 0
      vertex -2.8438 3.15837 0
    endloop
  endfacet
  facet normal 0 0 -1
    outer loop
      vertex -3.43832 2.49809 0
      vertex -1.20589 5.67326 0
      vertex -3.15837 2.8438 0
    endloop
  endfacet
  facet normal 0 0 -1
    outer loop
      vertex -5.76823 -0.606265 0
      vertex -1.20589 5.67326 0
      vertex -3.43832 2.49809 0
    endloop
  endfacet
  facet normal 0 -0 -1
    outer loop
      vertex -3.88257 1.72863 0
      vertex -5.76823 -0.606265 0
      vertex -3.68061 2.125 0
    endloop
  endfacet
  facet normal 0 -0 -1
    outer loop
      vertex -4.04199 1.31332 0
      vertex -5.76823 -0.606265 0
      vertex -3.88257 1.72863 0
    endloop
  endfacet
  facet normal 0 -0 -1
    outer loop
      vertex -4.15713 0.883625 0
      vertex -5.76823 -0.606265 0
      vertex -4.04199 1.31332 0
    endloop
  endfacet
  facet normal 0 -0 -1
    outer loop
      vertex -4.22672 0.444246 0
      vertex -5.76823 -0.606265 0
      vertex -4.15713 0.883625 0
    endloop
  endfacet
  facet normal -0 0 -1
    outer loop
      vertex 3.88257 1.72863 0
      vertex 5.51613 1.7923 0
      vertex 4.04199 1.31332 0
    endloop
  endfacet
  facet normal 0 -0 -1
    outer loop
      vertex -4.25 0 0
      vertex -5.76823 -0.606265 0
      vertex -4.22672 0.444246 0
    endloop
  endfacet
  facet normal -0 0 -1
    outer loop
      vertex 0.444246 4.22672 0
      vertex 2.35907 5.29856 0
      vertex 0.883625 4.15713 0
    endloop
  endfacet
  facet normal -0 0 -1
    outer loop
      vertex 1.31332 4.04199 0
      vertex 2.9 5.02295 0
      vertex 1.72863 3.88257 0
    endloop
  endfacet
  facet normal -0 0 -1
    outer loop
      vertex 1.72863 3.88257 0
      vertex 3.40915 4.6923 0
      vertex 2.125 3.68061 0
    endloop
  endfacet
  facet normal -0 0 -1
    outer loop
      vertex 2.125 3.68061 0
      vertex 3.88096 4.31024 0
      vertex 2.49809 3.43832 0
    endloop
  endfacet
  facet normal 0 0 -1
    outer loop
      vertex 4.04199 1.31332 0
      vertex 5.67326 1.20589 0
      vertex 4.15713 0.883625 0
    endloop
  endfacet
  facet normal -0.99863 0.052336 0
    outer loop
      vertex -5.8 0 0
      vertex -5.8 0 6
      vertex -5.76823 0.606265 0
    endloop
  endfacet
  facet normal -0.99863 0.052336 0
    outer loop
      vertex -5.76823 0.606265 0
      vertex -5.8 0 6
      vertex -5.76823 0.606265 6
    endloop
  endfacet
  facet normal -0.99863 -0.052336 -0
    outer loop
      vertex -5.8 0 0
      vertex -5.76823 -0.606265 0
      vertex -5.8 0 6
    endloop
  endfacet
  facet normal -0.99863 -0.052336 0
    outer loop
      vertex -5.8 0 6
      vertex -5.76823 -0.606265 0
      vertex -5.76823 -0.606265 6
    endloop
  endfacet
  facet normal -0.987688 -0.156435 -0
    outer loop
      vertex -5.76823 -0.606265 0
      vertex -5.67326 -1.20589 0
      vertex -5.76823 -0.606265 6
    endloop
  endfacet
  facet normal -0.987688 -0.156435 0
    outer loop
      vertex -5.76823 -0.606265 6
      vertex -5.67326 -1.20589 0
      vertex -5.67326 -1.20589 6
    endloop
  endfacet
  facet normal -0.965926 -0.258819 -0
    outer loop
      vertex -5.67326 -1.20589 0
      vertex -5.51613 -1.7923 0
      vertex -5.67326 -1.20589 6
    endloop
  endfacet
  facet normal -0.965926 -0.258819 0
    outer loop
      vertex -5.67326 -1.20589 6
      vertex -5.51613 -1.7923 0
      vertex -5.51613 -1.7923 6
    endloop
  endfacet
  facet normal -0.933581 -0.358368 -0
    outer loop
      vertex -5.51613 -1.7923 0
      vertex -5.29856 -2.35907 0
      vertex -5.51613 -1.7923 6
    endloop
  endfacet
  facet normal -0.933581 -0.358368 0
    outer loop
      vertex -5.51613 -1.7923 6
      vertex -5.29856 -2.35907 0
      vertex -5.29856 -2.35907 6
    endloop
  endfacet
  facet normal -0.891006 -0.453992 -0
    outer loop
      vertex -5.29856 -2.35907 0
      vertex -5.02295 -2.9 0
      vertex -5.29856 -2.35907 6
    endloop
  endfacet
  facet normal -0.891006 -0.453992 0
    outer loop
      vertex -5.29856 -2.35907 6
      vertex -5.02295 -2.9 0
      vertex -5.02295 -2.9 6
    endloop
  endfacet
  facet normal -0.838671 -0.544638 -0
    outer loop
      vertex -5.02295 -2.9 0
      vertex -4.6923 -3.40915 0
      vertex -5.02295 -2.9 6
    endloop
  endfacet
  facet normal -0.838671 -0.544638 0
    outer loop
      vertex -5.02295 -2.9 6
      vertex -4.6923 -3.40915 0
      vertex -4.6923 -3.40915 6
    endloop
  endfacet
  facet normal -0.777146 -0.62932 -0
    outer loop
      vertex -4.6923 -3.40915 0
      vertex -4.31024 -3.88096 0
      vertex -4.6923 -3.40915 6
    endloop
  endfacet
  facet normal -0.777146 -0.62932 0
    outer loop
      vertex -4.6923 -3.40915 6
      vertex -4.31024 -3.88096 0
      vertex -4.31024 -3.88096 6
    endloop
  endfacet
  facet normal -0.707107 -0.707107 0
    outer loop
      vertex -4.31024 -3.88096 6
      vertex -4.31024 -3.88096 0
      vertex -3.88096 -4.31024 0
    endloop
  endfacet
  facet normal -0.707107 -0.707107 0
    outer loop
      vertex -3.88096 -4.31024 6
      vertex -4.31024 -3.88096 6
      vertex -3.88096 -4.31024 0
    endloop
  endfacet
  facet normal -0.62932 -0.777146 0
    outer loop
      vertex -3.88096 -4.31024 6
      vertex -3.88096 -4.31024 0
      vertex -3.40915 -4.6923 0
    endloop
  endfacet
  facet normal -0.62932 -0.777146 0
    outer loop
      vertex -3.40915 -4.6923 6
      vertex -3.88096 -4.31024 6
      vertex -3.40915 -4.6923 0
    endloop
  endfacet
  facet normal -0.544638 -0.838671 0
    outer loop
      vertex -3.40915 -4.6923 6
      vertex -3.40915 -4.6923 0
      vertex -2.9 -5.02295 0
    endloop
  endfacet
  facet normal -0.544638 -0.838671 0
    outer loop
      vertex -2.9 -5.02295 6
      vertex -3.40915 -4.6923 6
      vertex -2.9 -5.02295 0
    endloop
  endfacet
  facet normal -0.453992 -0.891006 0
    outer loop
      vertex -2.9 -5.02295 6
      vertex -2.9 -5.02295 0
      vertex -2.35907 -5.29856 0
    endloop
  endfacet
  facet normal -0.453992 -0.891006 0
    outer loop
      vertex -2.35907 -5.29856 6
      vertex -2.9 -5.02295 6
      vertex -2.35907 -5.29856 0
    endloop
  endfacet
  facet normal -0.358368 -0.933581 0
    outer loop
      vertex -2.35907 -5.29856 6
      vertex -2.35907 -5.29856 0
      vertex -1.7923 -5.51613 0
    endloop
  endfacet
  facet normal -0.358368 -0.933581 0
    outer loop
      vertex -1.7923 -5.51613 6
      vertex -2.35907 -5.29856 6
      vertex -1.7923 -5.51613 0
    endloop
  endfacet
  facet normal -0.258819 -0.965926 0
    outer loop
      vertex -1.7923 -5.51613 6
      vertex -1.7923 -5.51613 0
      vertex -1.20589 -5.67326 0
    endloop
  endfacet
  facet normal -0.258819 -0.965926 0
    outer loop
      vertex -1.20589 -5.67326 6
      vertex -1.7923 -5.51613 6
      vertex -1.20589 -5.67326 0
    endloop
  endfacet
  facet normal -0.156435 -0.987688 0
    outer loop
      vertex -1.20589 -5.67326 6
      vertex -1.20589 -5.67326 0
      vertex -0.606265 -5.76823 0
    endloop
  endfacet
  facet normal -0.156435 -0.987688 0
    outer loop
      vertex -0.606265 -5.76823 6
      vertex -1.20589 -5.67326 6
      vertex -0.606265 -5.76823 0
    endloop
  endfacet
  facet normal -0.052336 -0.99863 0
    outer loop
      vertex -0.606265 -5.76823 6
      vertex -0.606265 -5.76823 0
      vertex 0 -5.8 0
    endloop
  endfacet
  facet normal -0.052336 -0.99863 0
    outer loop
      vertex 0 -5.8 6
      vertex -0.606265 -5.76823 6
      vertex 0 -5.8 0
    endloop
  endfacet
  facet normal 0.052336 -0.99863 0
    outer loop
      vertex 0 -5.8 6
      vertex 0 -5.8 0
      vertex 0.606265 -5.76823 0
    endloop
  endfacet
  facet normal 0.052336 -0.99863 0
    outer loop
      vertex 0.606265 -5.76823 6
      vertex 0 -5.8 6
      vertex 0.606265 -5.76823 0
    endloop
  endfacet
  facet normal 0.156435 -0.987688 0
    outer loop
      vertex 0.606265 -5.76823 6
      vertex 0.606265 -5.76823 0
      vertex 1.20589 -5.67326 0
    endloop
  endfacet
  facet normal 0.156435 -0.987688 0
    outer loop
      vertex 1.20589 -5.67326 6
      vertex 0.606265 -5.76823 6
      vertex 1.20589 -5.67326 0
    endloop
  endfacet
  facet normal 0.258819 -0.965926 0
    outer loop
      vertex 1.20589 -5.67326 6
      vertex 1.20589 -5.67326 0
      vertex 1.7923 -5.51613 0
    endloop
  endfacet
  facet normal 0.258819 -0.965926 0
    outer loop
      vertex 1.7923 -5.51613 6
      vertex 1.20589 -5.67326 6
      vertex 1.7923 -5.51613 0
    endloop
  endfacet
  facet normal 0.358368 -0.933581 0
    outer loop
      vertex 1.7923 -5.51613 6
      vertex 1.7923 -5.51613 0
      vertex 2.35907 -5.29856 0
    endloop
  endfacet
  facet normal 0.358368 -0.933581 0
    outer loop
      vertex 2.35907 -5.29856 6
      vertex 1.7923 -5.51613 6
      vertex 2.35907 -5.29856 0
    endloop
  endfacet
  facet normal 0.453992 -0.891006 0
    outer loop
      vertex 2.35907 -5.29856 6
      vertex 2.35907 -5.29856 0
      vertex 2.9 -5.02295 0
    endloop
  endfacet
  facet normal 0.453992 -0.891006 0
    outer loop
      vertex 2.9 -5.02295 6
      vertex 2.35907 -5.29856 6
      vertex 2.9 -5.02295 0
    endloop
  endfacet
  facet normal 0.544638 -0.838671 0
    outer loop
      vertex 2.9 -5.02295 6
      vertex 2.9 -5.02295 0
      vertex 3.40915 -4.6923 0
    endloop
  endfacet
  facet normal 0.544638 -0.838671 0
    outer loop
      vertex 3.40915 -4.6923 6
      vertex 2.9 -5.02295 6
      vertex 3.40915 -4.6923 0
    endloop
  endfacet
  facet normal 0.62932 -0.777146 0
    outer loop
      vertex 3.40915 -4.6923 6
      vertex 3.40915 -4.6923 0
      vertex 3.88096 -4.31024 0
    endloop
  endfacet
  facet normal 0.62932 -0.777146 0
    outer loop
      vertex 3.88096 -4.31024 6
      vertex 3.40915 -4.6923 6
      vertex 3.88096 -4.31024 0
    endloop
  endfacet
  facet normal 0.707107 -0.707107 0
    outer loop
      vertex 3.88096 -4.31024 6
      vertex 3.88096 -4.31024 0
      vertex 4.31024 -3.88096 0
    endloop
  endfacet
  facet normal 0.707107 -0.707107 0
    outer loop
      vertex 4.31024 -3.88096 6
      vertex 3.88096 -4.31024 6
      vertex 4.31024 -3.88096 0
    endloop
  endfacet
  facet normal 0.777146 -0.62932 0
    outer loop
      vertex 4.31024 -3.88096 6
      vertex 4.31024 -3.88096 0
      vertex 4.6923 -3.40915 0
    endloop
  endfacet
  facet normal 0.777146 -0.62932 0
    outer loop
      vertex 4.6923 -3.40915 6
      vertex 4.31024 -3.88096 6
      vertex 4.6923 -3.40915 0
    endloop
  endfacet
  facet normal 0.838671 -0.544638 0
    outer loop
      vertex 4.6923 -3.40915 6
      vertex 4.6923 -3.40915 0
      vertex 5.02295 -2.9 0
    endloop
  endfacet
  facet normal 0.838671 -0.544638 0
    outer loop
      vertex 5.02295 -2.9 6
      vertex 4.6923 -3.40915 6
      vertex 5.02295 -2.9 0
    endloop
  endfacet
  facet normal 0.891006 -0.453992 0
    outer loop
      vertex 5.02295 -2.9 6
      vertex 5.02295 -2.9 0
      vertex 5.29856 -2.35907 0
    endloop
  endfacet
  facet normal 0.891006 -0.453992 0
    outer loop
      vertex 5.29856 -2.35907 6
      vertex 5.02295 -2.9 6
      vertex 5.29856 -2.35907 0
    endloop
  endfacet
  facet normal 0.933581 -0.358368 0
    outer loop
      vertex 5.29856 -2.35907 6
      vertex 5.29856 -2.35907 0
      vertex 5.51613 -1.7923 0
    endloop
  endfacet
  facet normal 0.933581 -0.358368 0
    outer loop
      vertex 5.51613 -1.7923 6
      vertex 5.29856 -2.35907 6
      vertex 5.51613 -1.7923 0
    endloop
  endfacet
  facet normal 0.965926 -0.258819 0
    outer loop
      vertex 5.51613 -1.7923 6
      vertex 5.51613 -1.7923 0
      vertex 5.67326 -1.20589 0
    endloop
  endfacet
  facet normal 0.965926 -0.258819 0
    outer loop
      vertex 5.67326 -1.20589 6
      vertex 5.51613 -1.7923 6
      vertex 5.67326 -1.20589 0
    endloop
  endfacet
  facet normal 0.987688 -0.156435 0
    outer loop
      vertex 5.67326 -1.20589 6
      vertex 5.67326 -1.20589 0
      vertex 5.76823 -0.606265 0
    endloop
  endfacet
  facet normal 0.987688 -0.156435 0
    outer loop
      vertex 5.76823 -0.606265 6
      vertex 5.67326 -1.20589 6
      vertex 5.76823 -0.606265 0
    endloop
  endfacet
  facet normal 0.99863 -0.052336 0
    outer loop
      vertex 5.76823 -0.606265 6
      vertex 5.76823 -0.606265 0
      vertex 5.8 0 0
    endloop
  endfacet
  facet normal 0.99863 -0.052336 0
    outer loop
      vertex 5.8 0 6
      vertex 5.76823 -0.606265 6
      vertex 5.8 0 0
    endloop
  endfacet
  facet normal 0.99863 0.052336 0
    outer loop
      vertex 5.8 0 0
      vertex 5.76823 0.606265 0
      vertex 5.76823 0.606265 6
    endloop
  endfacet
  facet normal 0.99863 0.052336 -0
    outer loop
      vertex 5.8 0 6
      vertex 5.8 0 0
      vertex 5.76823 0.606265 6
    endloop
  endfacet
  facet normal 0.987688 0.156435 0
    outer loop
      vertex 5.76823 0.606265 0
      vertex 5.67326 1.20589 0
      vertex 5.67326 1.20589 6
    endloop
  endfacet
  facet normal 0.987688 0.156435 -0
    outer loop
      vertex 5.76823 0.606265 6
      vertex 5.76823 0.606265 0
      vertex 5.67326 1.20589 6
    endloop
  endfacet
  facet normal 0.965926 0.258819 0
    outer loop
      vertex 5.67326 1.20589 0
      vertex 5.51613 1.7923 0
      vertex 5.51613 1.7923 6
    endloop
  endfacet
  facet normal 0.965926 0.258819 -0
    outer loop
      vertex 5.67326 1.20589 6
      vertex 5.67326 1.20589 0
      vertex 5.51613 1.7923 6
    endloop
  endfacet
  facet normal 0.933581 0.358368 0
    outer loop
      vertex 5.51613 1.7923 0
      vertex 5.29856 2.35907 0
      vertex 5.29856 2.35907 6
    endloop
  endfacet
  facet normal 0.933581 0.358368 -0
    outer loop
      vertex 5.51613 1.7923 6
      vertex 5.51613 1.7923 0
      vertex 5.29856 2.35907 6
    endloop
  endfacet
  facet normal 0.891006 0.453992 0
    outer loop
      vertex 5.29856 2.35907 0
      vertex 5.02295 2.9 0
      vertex 5.02295 2.9 6
    endloop
  endfacet
  facet normal 0.891006 0.453992 -0
    outer loop
      vertex 5.29856 2.35907 6
      vertex 5.29856 2.35907 0
      vertex 5.02295 2.9 6
    endloop
  endfacet
  facet normal 0.838671 0.544638 0
    outer loop
      vertex 5.02295 2.9 0
      vertex 4.6923 3.40915 0
      vertex 4.6923 3.40915 6
    endloop
  endfacet
  facet normal 0.838671 0.544638 -0
    outer loop
      vertex 5.02295 2.9 6
      vertex 5.02295 2.9 0
      vertex 4.6923 3.40915 6
    endloop
  endfacet
  facet normal 0.777146 0.62932 0
    outer loop
      vertex 4.6923 3.40915 0
      vertex 4.31024 3.88096 0
      vertex 4.31024 3.88096 6
    endloop
  endfacet
  facet normal 0.777146 0.62932 -0
    outer loop
      vertex 4.6923 3.40915 6
      vertex 4.6923 3.40915 0
      vertex 4.31024 3.88096 6
    endloop
  endfacet
  facet normal 0.707107 0.707107 0
    outer loop
      vertex 3.88096 4.31024 0
      vertex 3.88096 4.31024 6
      vertex 4.31024 3.88096 0
    endloop
  endfacet
  facet normal 0.707107 0.707107 0
    outer loop
      vertex 4.31024 3.88096 0
      vertex 3.88096 4.31024 6
      vertex 4.31024 3.88096 6
    endloop
  endfacet
  facet normal 0.62932 0.777146 0
    outer loop
      vertex 3.40915 4.6923 0
      vertex 3.40915 4.6923 6
      vertex 3.88096 4.31024 0
    endloop
  endfacet
  facet normal 0.62932 0.777146 0
    outer loop
      vertex 3.88096 4.31024 0
      vertex 3.40915 4.6923 6
      vertex 3.88096 4.31024 6
    endloop
  endfacet
  facet normal 0.544638 0.838671 0
    outer loop
      vertex 2.9 5.02295 0
      vertex 2.9 5.02295 6
      vertex 3.40915 4.6923 0
    endloop
  endfacet
  facet normal 0.544638 0.838671 0
    outer loop
      vertex 3.40915 4.6923 0
      vertex 2.9 5.02295 6
      vertex 3.40915 4.6923 6
    endloop
  endfacet
  facet normal 0.453992 0.891006 0
    outer loop
      vertex 2.35907 5.29856 0
      vertex 2.35907 5.29856 6
      vertex 2.9 5.02295 0
    endloop
  endfacet
  facet normal 0.453992 0.891006 0
    outer loop
      vertex 2.9 5.02295 0
      vertex 2.35907 5.29856 6
      vertex 2.9 5.02295 6
    endloop
  endfacet
  facet normal 0.358368 0.933581 0
    outer loop
      vertex 1.7923 5.51613 0
      vertex 1.7923 5.51613 6
      vertex 2.35907 5.29856 0
    endloop
  endfacet
  facet normal 0.358368 0.933581 0
    outer loop
      vertex 2.35907 5.29856 0
      vertex 1.7923 5.51613 6
      vertex 2.35907 5.29856 6
    endloop
  endfacet
  facet normal 0.258819 0.965926 0
    outer loop
      vertex 1.20589 5.67326 0
      vertex 1.20589 5.67326 6
      vertex 1.7923 5.51613 0
    endloop
  endfacet
  facet normal 0.258819 0.965926 0
    outer loop
      vertex 1.7923 5.51613 0
      vertex 1.20589 5.67326 6
      vertex 1.7923 5.51613 6
    endloop
  endfacet
  facet normal 0.156435 0.987688 0
    outer loop
      vertex 0.606265 5.76823 0
      vertex 0.606265 5.76823 6
      vertex 1.20589 5.67326 0
    endloop
  endfacet
  facet normal 0.156435 0.987688 0
    outer loop
      vertex 1.20589 5.67326 0
      vertex 0.606265 5.76823 6
      vertex 1.20589 5.67326 6
    endloop
  endfacet
  facet normal 0.052336 0.99863 0
    outer loop
      vertex 0 5.8 0
      vertex 0 5.8 6
      vertex 0.606265 5.76823 0
    endloop
  endfacet
  facet normal 0.052336 0.99863 0
    outer loop
      vertex 0.606265 5.76823 0
      vertex 0 5.8 6
      vertex 0.606265 5.76823 6
    endloop
  endfacet
  facet normal -0.052336 0.99863 0
    outer loop
      vertex -0.606265 5.76823 0
      vertex -0.606265 5.76823 6
      vertex 0 5.8 0
    endloop
  endfacet
  facet normal -0.052336 0.99863 0
    outer loop
      vertex 0 5.8 0
      vertex -0.606265 5.76823 6
      vertex 0 5.8 6
    endloop
  endfacet
  facet normal -0.156435 0.987688 0
    outer loop
      vertex -1.20589 5.67326 0
      vertex -1.20589 5.67326 6
      vertex -0.606265 5.76823 0
    endloop
  endfacet
  facet normal -0.156435 0.987688 0
    outer loop
      vertex -0.606265 5.76823 0
      vertex -1.20589 5.67326 6
      vertex -0.606265 5.76823 6
    endloop
  endfacet
  facet normal -0.258819 0.965926 0
    outer loop
      vertex -1.7923 5.51613 0
      vertex -1.7923 5.51613 6
      vertex -1.20589 5.67326 0
    endloop
  endfacet
  facet normal -0.258819 0.965926 0
    outer loop
      vertex -1.20589 5.67326 0
      vertex -1.7923 5.51613 6
      vertex -1.20589 5.67326 6
    endloop
  endfacet
  facet normal -0.358368 0.933581 0
    outer loop
      vertex -2.35907 5.29856 0
      vertex -2.35907 5.29856 6
      vertex -1.7923 5.51613 0
    endloop
  endfacet
  facet normal -0.358368 0.933581 0
    outer loop
      vertex -1.7923 5.51613 0
      vertex -2.35907 5.29856 6
      vertex -1.7923 5.51613 6
    endloop
  endfacet
  facet normal -0.453992 0.891006 0
    outer loop
      vertex -2.9 5.02295 0
      vertex -2.9 5.02295 6
      vertex -2.35907 5.29856 0
    endloop
  endfacet
  facet normal -0.453992 0.891006 0
    outer loop
      vertex -2.35907 5.29856 0
      vertex -2.9 5.02295 6
      vertex -2.35907 5.29856 6
    endloop
  endfacet
  facet normal -0.544638 0.838671 0
    outer loop
      vertex -3.40915 4.6923 0
      vertex -3.40915 4.6923 6
      vertex -2.9 5.02295 0
    endloop
  endfacet
  facet normal -0.544638 0.838671 0
    outer loop
      vertex -2.9 5.02295 0
      vertex -3.40915 4.6923 6
      vertex -2.9 5.02295 6
    endloop
  endfacet
  facet normal -0.62932 0.777146 0
    outer loop
      vertex -3.88096 4.31024 0
      vertex -3.88096 4.31024 6
      vertex -3.40915 4.6923 0
    endloop
  endfacet
  facet normal -0.62932 0.777146 0
    outer loop
      vertex -3.40915 4.6923 0
      vertex -3.88096 4.31024 6
      vertex -3.40915 4.6923 6
    endloop
  endfacet
  facet normal -0.707107 0.707107 0
    outer loop
      vertex -4.31024 3.88096 0
      vertex -4.31024 3.88096 6
      vertex -3.88096 4.31024 0
    endloop
  endfacet
  facet normal -0.707107 0.707107 0
    outer loop
      vertex -3.88096 4.31024 0
      vertex -4.31024 3.88096 6
      vertex -3.88096 4.31024 6
    endloop
  endfacet
  facet normal -0.777146 0.62932 0
    outer loop
      vertex -4.6923 3.40915 0
      vertex -4.6923 3.40915 6
      vertex -4.31024 3.88096 0
    endloop
  endfacet
  facet normal -0.777146 0.62932 0
    outer loop
      vertex -4.31024 3.88096 0
      vertex -4.6923 3.40915 6
      vertex -4.31024 3.88096 6
    endloop
  endfacet
  facet normal -0.838671 0.544638 0
    outer loop
      vertex -5.02295 2.9 0
      vertex -5.02295 2.9 6
      vertex -4.6923 3.40915 0
    endloop
  endfacet
  facet normal -0.838671 0.544638 0
    outer loop
      vertex -4.6923 3.40915 0
      vertex -5.02295 2.9 6
      vertex -4.6923 3.40915 6
    endloop
  endfacet
  facet normal -0.891006 0.453992 0
    outer loop
      vertex -5.29856 2.35907 0
      vertex -5.29856 2.35907 6
      vertex -5.02295 2.9 0
    endloop
  endfacet
  facet normal -0.891006 0.453992 0
    outer loop
      vertex -5.02295 2.9 0
      vertex -5.29856 2.35907 6
      vertex -5.02295 2.9 6
    endloop
  endfacet
  facet normal -0.933581 0.358368 0
    outer loop
      vertex -5.51613 1.7923 0
      vertex -5.51613 1.7923 6
      vertex -5.29856 2.35907 0
    endloop
  endfacet
  facet normal -0.933581 0.358368 0
    outer loop
      vertex -5.29856 2.35907 0
      vertex -5.51613 1.7923 6
      vertex -5.29856 2.35907 6
    endloop
  endfacet
  facet normal -0.965926 0.258819 0
    outer loop
      vertex -5.67326 1.20589 0
      vertex -5.67326 1.20589 6
      vertex -5.51613 1.7923 0
    endloop
  endfacet
  facet normal -0.965926 0.258819 0
    outer loop
      vertex -5.51613 1.7923 0
      vertex -5.67326 1.20589 6
      vertex -5.51613 1.7923 6
    endloop
  endfacet
  facet normal -0.987688 0.156435 0
    outer loop
      vertex -5.76823 0.606265 0
      vertex -5.76823 0.606265 6
      vertex -5.67326 1.20589 0
    endloop
  endfacet
  facet normal -0.987688 0.156435 0
    outer loop
      vertex -5.67326 1.20589 0
      vertex -5.76823 0.606265 6
      vertex -5.67326 1.20589 6
    endloop
  endfacet
  facet normal 0.99863 0.0523361 0
    outer loop
      vertex -4.25 0 6
      vertex -4.22672 -0.444246 6
      vertex -4.22672 -0.444246 0
    endloop
  endfacet
  facet normal 0.99863 0.0523361 0
    outer loop
      vertex -4.25 0 0
      vertex -4.25 0 6
      vertex -4.22672 -0.444246 0
    endloop
  endfacet
  facet normal 0.99863 -0.0523361 0
    outer loop
      vertex -4.22672 0.444246 0
      vertex -4.22672 0.444246 6
      vertex -4.25 0 6
    endloop
  endfacet
  facet normal 0.99863 -0.0523361 0
    outer loop
      vertex -4.25 0 0
      vertex -4.22672 0.444246 0
      vertex -4.25 0 6
    endloop
  endfacet
  facet normal 0.987688 -0.156435 0
    outer loop
      vertex -4.15713 0.883625 0
      vertex -4.15713 0.883625 6
      vertex -4.22672 0.444246 6
    endloop
  endfacet
  facet normal 0.987688 -0.156435 0
    outer loop
      vertex -4.22672 0.444246 0
      vertex -4.15713 0.883625 0
      vertex -4.22672 0.444246 6
    endloop
  endfacet
  facet normal 0.965926 -0.258819 0
    outer loop
      vertex -4.04199 1.31332 0
      vertex -4.04199 1.31332 6
      vertex -4.15713 0.883625 6
    endloop
  endfacet
  facet normal 0.965926 -0.258819 0
    outer loop
      vertex -4.15713 0.883625 0
      vertex -4.04199 1.31332 0
      vertex -4.15713 0.883625 6
    endloop
  endfacet
  facet normal 0.933581 -0.358368 0
    outer loop
      vertex -3.88257 1.72863 0
      vertex -3.88257 1.72863 6
      vertex -4.04199 1.31332 6
    endloop
  endfacet
  facet normal 0.933581 -0.358368 0
    outer loop
      vertex -4.04199 1.31332 0
      vertex -3.88257 1.72863 0
      vertex -4.04199 1.31332 6
    endloop
  endfacet
  facet normal 0.891007 -0.45399 0
    outer loop
      vertex -3.68061 2.125 0
      vertex -3.68061 2.125 6
      vertex -3.88257 1.72863 6
    endloop
  endfacet
  facet normal 0.891007 -0.45399 0
    outer loop
      vertex -3.88257 1.72863 0
      vertex -3.68061 2.125 0
      vertex -3.88257 1.72863 6
    endloop
  endfacet
  facet normal 0.83867 -0.54464 0
    outer loop
      vertex -3.43832 2.49809 0
      vertex -3.43832 2.49809 6
      vertex -3.68061 2.125 6
    endloop
  endfacet
  facet normal 0.83867 -0.54464 0
    outer loop
      vertex -3.68061 2.125 0
      vertex -3.43832 2.49809 0
      vertex -3.68061 2.125 6
    endloop
  endfacet
  facet normal 0.777147 -0.629319 0
    outer loop
      vertex -3.15837 2.8438 0
      vertex -3.15837 2.8438 6
      vertex -3.43832 2.49809 6
    endloop
  endfacet
  facet normal 0.777147 -0.629319 0
    outer loop
      vertex -3.43832 2.49809 0
      vertex -3.15837 2.8438 0
      vertex -3.43832 2.49809 6
    endloop
  endfacet
  facet normal 0.707107 -0.707107 0
    outer loop
      vertex -2.8438 3.15837 0
      vertex -2.8438 3.15837 6
      vertex -3.15837 2.8438 6
    endloop
  endfacet
  facet normal 0.707107 -0.707107 0
    outer loop
      vertex -3.15837 2.8438 0
      vertex -2.8438 3.15837 0
      vertex -3.15837 2.8438 6
    endloop
  endfacet
  facet normal 0.629319 -0.777147 0
    outer loop
      vertex -2.49809 3.43832 0
      vertex -2.49809 3.43832 6
      vertex -2.8438 3.15837 6
    endloop
  endfacet
  facet normal 0.629319 -0.777147 0
    outer loop
      vertex -2.8438 3.15837 0
      vertex -2.49809 3.43832 0
      vertex -2.8438 3.15837 6
    endloop
  endfacet
  facet normal 0.54464 -0.83867 0
    outer loop
      vertex -2.125 3.68061 0
      vertex -2.125 3.68061 6
      vertex -2.49809 3.43832 6
    endloop
  endfacet
  facet normal 0.54464 -0.83867 0
    outer loop
      vertex -2.49809 3.43832 0
      vertex -2.125 3.68061 0
      vertex -2.49809 3.43832 6
    endloop
  endfacet
  facet normal 0.45399 -0.891007 0
    outer loop
      vertex -1.72863 3.88257 0
      vertex -1.72863 3.88257 6
      vertex -2.125 3.68061 6
    endloop
  endfacet
  facet normal 0.45399 -0.891007 0
    outer loop
      vertex -2.125 3.68061 0
      vertex -1.72863 3.88257 0
      vertex -2.125 3.68061 6
    endloop
  endfacet
  facet normal 0.358368 -0.933581 0
    outer loop
      vertex -1.31332 4.04199 0
      vertex -1.31332 4.04199 6
      vertex -1.72863 3.88257 6
    endloop
  endfacet
  facet normal 0.358368 -0.933581 0
    outer loop
      vertex -1.72863 3.88257 0
      vertex -1.31332 4.04199 0
      vertex -1.72863 3.88257 6
    endloop
  endfacet
  facet normal 0.258819 -0.965926 0
    outer loop
      vertex -0.883625 4.15713 0
      vertex -0.883625 4.15713 6
      vertex -1.31332 4.04199 6
    endloop
  endfacet
  facet normal 0.258819 -0.965926 0
    outer loop
      vertex -1.31332 4.04199 0
      vertex -0.883625 4.15713 0
      vertex -1.31332 4.04199 6
    endloop
  endfacet
  facet normal 0.156435 -0.987688 0
    outer loop
      vertex -0.444246 4.22672 0
      vertex -0.444246 4.22672 6
      vertex -0.883625 4.15713 6
    endloop
  endfacet
  facet normal 0.156435 -0.987688 0
    outer loop
      vertex -0.883625 4.15713 0
      vertex -0.444246 4.22672 0
      vertex -0.883625 4.15713 6
    endloop
  endfacet
  facet normal 0.0523361 -0.99863 0
    outer loop
      vertex 0 4.25 0
      vertex 0 4.25 6
      vertex -0.444246 4.22672 6
    endloop
  endfacet
  facet normal 0.0523361 -0.99863 0
    outer loop
      vertex -0.444246 4.22672 0
      vertex 0 4.25 0
      vertex -0.444246 4.22672 6
    endloop
  endfacet
  facet normal -0.0523361 -0.99863 -0
    outer loop
      vertex 0.444246 4.22672 0
      vertex 0.444246 4.22672 6
      vertex 0 4.25 6
    endloop
  endfacet
  facet normal -0.0523361 -0.99863 -0
    outer loop
      vertex 0 4.25 0
      vertex 0.444246 4.22672 0
      vertex 0 4.25 6
    endloop
  endfacet
  facet normal -0.156435 -0.987688 -0
    outer loop
      vertex 0.883625 4.15713 0
      vertex 0.883625 4.15713 6
      vertex 0.444246 4.22672 6
    endloop
  endfacet
  facet normal -0.156435 -0.987688 -0
    outer loop
      vertex 0.444246 4.22672 0
      vertex 0.883625 4.15713 0
      vertex 0.444246 4.22672 6
    endloop
  endfacet
  facet normal -0.258819 -0.965926 -0
    outer loop
      vertex 1.31332 4.04199 0
      vertex 1.31332 4.04199 6
      vertex 0.883625 4.15713 6
    endloop
  endfacet
  facet normal -0.258819 -0.965926 -0
    outer loop
      vertex 0.883625 4.15713 0
      vertex 1.31332 4.04199 0
      vertex 0.883625 4.15713 6
    endloop
  endfacet
  facet normal -0.358368 -0.933581 -0
    outer loop
      vertex 1.72863 3.88257 0
      vertex 1.72863 3.88257 6
      vertex 1.31332 4.04199 6
    endloop
  endfacet
  facet normal -0.358368 -0.933581 -0
    outer loop
      vertex 1.31332 4.04199 0
      vertex 1.72863 3.88257 0
      vertex 1.31332 4.04199 6
    endloop
  endfacet
  facet normal -0.45399 -0.891007 -0
    outer loop
      vertex 2.125 3.68061 0
      vertex 2.125 3.68061 6
      vertex 1.72863 3.88257 6
    endloop
  endfacet
  facet normal -0.45399 -0.891007 -0
    outer loop
      vertex 1.72863 3.88257 0
      vertex 2.125 3.68061 0
      vertex 1.72863 3.88257 6
    endloop
  endfacet
  facet normal -0.54464 -0.83867 -0
    outer loop
      vertex 2.49809 3.43832 0
      vertex 2.49809 3.43832 6
      vertex 2.125 3.68061 6
    endloop
  endfacet
  facet normal -0.54464 -0.83867 -0
    outer loop
      vertex 2.125 3.68061 0
      vertex 2.49809 3.43832 0
      vertex 2.125 3.68061 6
    endloop
  endfacet
  facet normal -0.629319 -0.777147 -0
    outer loop
      vertex 2.8438 3.15837 0
      vertex 2.8438 3.15837 6
      vertex 2.49809 3.43832 6
    endloop
  endfacet
  facet normal -0.629319 -0.777147 -0
    outer loop
      vertex 2.49809 3.43832 0
      vertex 2.8438 3.15837 0
      vertex 2.49809 3.43832 6
    endloop
  endfacet
  facet normal -0.707107 -0.707107 -0
    outer loop
      vertex 3.15837 2.8438 0
      vertex 3.15837 2.8438 6
      vertex 2.8438 3.15837 6
    endloop
  endfacet
  facet normal -0.707107 -0.707107 -0
    outer loop
      vertex 2.8438 3.15837 0
      vertex 3.15837 2.8438 0
      vertex 2.8438 3.15837 6
    endloop
  endfacet
  facet normal -0.777147 -0.629319 0
    outer loop
      vertex 3.43832 2.49809 6
      vertex 3.15837 2.8438 6
      vertex 3.43832 2.49809 0
    endloop
  endfacet
  facet normal -0.777147 -0.629319 0
    outer loop
      vertex 3.43832 2.49809 0
      vertex 3.15837 2.8438 6
      vertex 3.15837 2.8438 0
    endloop
  endfacet
  facet normal -0.83867 -0.54464 0
    outer loop
      vertex 3.68061 2.125 6
      vertex 3.43832 2.49809 6
      vertex 3.68061 2.125 0
    endloop
  endfacet
  facet normal -0.83867 -0.54464 0
    outer loop
      vertex 3.68061 2.125 0
      vertex 3.43832 2.49809 6
      vertex 3.43832 2.49809 0
    endloop
  endfacet
  facet normal -0.891007 -0.45399 0
    outer loop
      vertex 3.88257 1.72863 6
      vertex 3.68061 2.125 6
      vertex 3.88257 1.72863 0
    endloop
  endfacet
  facet normal -0.891007 -0.45399 0
    outer loop
      vertex 3.88257 1.72863 0
      vertex 3.68061 2.125 6
      vertex 3.68061 2.125 0
    endloop
  endfacet
  facet normal -0.933581 -0.358368 0
    outer loop
      vertex 4.04199 1.31332 6
      vertex 3.88257 1.72863 6
      vertex 4.04199 1.31332 0
    endloop
  endfacet
  facet normal -0.933581 -0.358368 0
    outer loop
      vertex 4.04199 1.31332 0
      vertex 3.88257 1.72863 6
      vertex 3.88257 1.72863 0
    endloop
  endfacet
  facet normal -0.965926 -0.258819 0
    outer loop
      vertex 4.15713 0.883625 6
      vertex 4.04199 1.31332 6
      vertex 4.15713 0.883625 0
    endloop
  endfacet
  facet normal -0.965926 -0.258819 0
    outer loop
      vertex 4.15713 0.883625 0
      vertex 4.04199 1.31332 6
      vertex 4.04199 1.31332 0
    endloop
  endfacet
  facet normal -0.987688 -0.156435 0
    outer loop
      vertex 4.22672 0.444246 6
      vertex 4.15713 0.883625 6
      vertex 4.22672 0.444246 0
    endloop
  endfacet
  facet normal -0.987688 -0.156435 0
    outer loop
      vertex 4.22672 0.444246 0
      vertex 4.15713 0.883625 6
      vertex 4.15713 0.883625 0
    endloop
  endfacet
  facet normal -0.99863 -0.0523361 0
    outer loop
      vertex 4.25 0 6
      vertex 4.22672 0.444246 6
      vertex 4.25 0 0
    endloop
  endfacet
  facet normal -0.99863 -0.0523361 0
    outer loop
      vertex 4.25 0 0
      vertex 4.22672 0.444246 6
      vertex 4.22672 0.444246 0
    endloop
  endfacet
  facet normal -0.99863 0.0523361 0
    outer loop
      vertex 4.25 0 6
      vertex 4.25 0 0
      vertex 4.22672 -0.444246 6
    endloop
  endfacet
  facet normal -0.99863 0.0523361 0
    outer loop
      vertex 4.22672 -0.444246 6
      vertex 4.25 0 0
      vertex 4.22672 -0.444246 0
    endloop
  endfacet
  facet normal -0.987688 0.156435 0
    outer loop
      vertex 4.22672 -0.444246 6
      vertex 4.22672 -0.444246 0
      vertex 4.15713 -0.883625 6
    endloop
  endfacet
  facet normal -0.987688 0.156435 0
    outer loop
      vertex 4.15713 -0.883625 6
      vertex 4.22672 -0.444246 0
      vertex 4.15713 -0.883625 0
    endloop
  endfacet
  facet normal -0.965926 0.258819 0
    outer loop
      vertex 4.15713 -0.883625 6
      vertex 4.15713 -0.883625 0
      vertex 4.04199 -1.31332 6
    endloop
  endfacet
  facet normal -0.965926 0.258819 0
    outer loop
      vertex 4.04199 -1.31332 6
      vertex 4.15713 -0.883625 0
      vertex 4.04199 -1.31332 0
    endloop
  endfacet
  facet normal -0.933581 0.358368 0
    outer loop
      vertex 4.04199 -1.31332 6
      vertex 4.04199 -1.31332 0
      vertex 3.88257 -1.72863 6
    endloop
  endfacet
  facet normal -0.933581 0.358368 0
    outer loop
      vertex 3.88257 -1.72863 6
      vertex 4.04199 -1.31332 0
      vertex 3.88257 -1.72863 0
    endloop
  endfacet
  facet normal -0.891007 0.45399 0
    outer loop
      vertex 3.88257 -1.72863 6
      vertex 3.88257 -1.72863 0
      vertex 3.68061 -2.125 6
    endloop
  endfacet
  facet normal -0.891007 0.45399 0
    outer loop
      vertex 3.68061 -2.125 6
      vertex 3.88257 -1.72863 0
      vertex 3.68061 -2.125 0
    endloop
  endfacet
  facet normal -0.83867 0.54464 0
    outer loop
      vertex 3.68061 -2.125 6
      vertex 3.68061 -2.125 0
      vertex 3.43832 -2.49809 6
    endloop
  endfacet
  facet normal -0.83867 0.54464 0
    outer loop
      vertex 3.43832 -2.49809 6
      vertex 3.68061 -2.125 0
      vertex 3.43832 -2.49809 0
    endloop
  endfacet
  facet normal -0.777147 0.629319 0
    outer loop
      vertex 3.43832 -2.49809 6
      vertex 3.43832 -2.49809 0
      vertex 3.15837 -2.8438 6
    endloop
  endfacet
  facet normal -0.777147 0.629319 0
    outer loop
      vertex 3.15837 -2.8438 6
      vertex 3.43832 -2.49809 0
      vertex 3.15837 -2.8438 0
    endloop
  endfacet
  facet normal -0.707107 0.707107 0
    outer loop
      vertex 3.15837 -2.8438 6
      vertex 3.15837 -2.8438 0
      vertex 2.8438 -3.15837 6
    endloop
  endfacet
  facet normal -0.707107 0.707107 0
    outer loop
      vertex 2.8438 -3.15837 6
      vertex 3.15837 -2.8438 0
      vertex 2.8438 -3.15837 0
    endloop
  endfacet
  facet normal -0.629319 0.777147 0
    outer loop
      vertex 2.8438 -3.15837 6
      vertex 2.8438 -3.15837 0
      vertex 2.49809 -3.43832 6
    endloop
  endfacet
  facet normal -0.629319 0.777147 0
    outer loop
      vertex 2.49809 -3.43832 6
      vertex 2.8438 -3.15837 0
      vertex 2.49809 -3.43832 0
    endloop
  endfacet
  facet normal -0.54464 0.83867 0
    outer loop
      vertex 2.49809 -3.43832 6
      vertex 2.49809 -3.43832 0
      vertex 2.125 -3.68061 6
    endloop
  endfacet
  facet normal -0.54464 0.83867 0
    outer loop
      vertex 2.125 -3.68061 6
      vertex 2.49809 -3.43832 0
      vertex 2.125 -3.68061 0
    endloop
  endfacet
  facet normal -0.45399 0.891007 0
    outer loop
      vertex 2.125 -3.68061 6
      vertex 2.125 -3.68061 0
      vertex 1.72863 -3.88257 6
    endloop
  endfacet
  facet normal -0.45399 0.891007 0
    outer loop
      vertex 1.72863 -3.88257 6
      vertex 2.125 -3.68061 0
      vertex 1.72863 -3.88257 0
    endloop
  endfacet
  facet normal -0.358368 0.933581 0
    outer loop
      vertex 1.72863 -3.88257 6
      vertex 1.72863 -3.88257 0
      vertex 1.31332 -4.04199 6
    endloop
  endfacet
  facet normal -0.358368 0.933581 0
    outer loop
      vertex 1.31332 -4.04199 6
      vertex 1.72863 -3.88257 0
      vertex 1.31332 -4.04199 0
    endloop
  endfacet
  facet normal -0.258819 0.965926 0
    outer loop
      vertex 1.31332 -4.04199 6
      vertex 1.31332 -4.04199 0
      vertex 0.883625 -4.15713 6
    endloop
  endfacet
  facet normal -0.258819 0.965926 0
    outer loop
      vertex 0.883625 -4.15713 6
      vertex 1.31332 -4.04199 0
      vertex 0.883625 -4.15713 0
    endloop
  endfacet
  facet normal -0.156435 0.987688 0
    outer loop
      vertex 0.883625 -4.15713 6
      vertex 0.883625 -4.15713 0
      vertex 0.444246 -4.22672 6
    endloop
  endfacet
  facet normal -0.156435 0.987688 0
    outer loop
      vertex 0.444246 -4.22672 6
      vertex 0.883625 -4.15713 0
      vertex 0.444246 -4.22672 0
    endloop
  endfacet
  facet normal -0.0523361 0.99863 0
    outer loop
      vertex 0.444246 -4.22672 6
      vertex 0.444246 -4.22672 0
      vertex 0 -4.25 6
    endloop
  endfacet
  facet normal -0.0523361 0.99863 0
    outer loop
      vertex 0 -4.25 6
      vertex 0.444246 -4.22672 0
      vertex 0 -4.25 0
    endloop
  endfacet
  facet normal 0.0523361 0.99863 -0
    outer loop
      vertex 0 -4.25 6
      vertex 0 -4.25 0
      vertex -0.444246 -4.22672 6
    endloop
  endfacet
  facet normal 0.0523361 0.99863 -0
    outer loop
      vertex -0.444246 -4.22672 6
      vertex 0 -4.25 0
      vertex -0.444246 -4.22672 0
    endloop
  endfacet
  facet normal 0.156435 0.987688 -0
    outer loop
      vertex -0.444246 -4.22672 6
      vertex -0.444246 -4.22672 0
      vertex -0.883625 -4.15713 6
    endloop
  endfacet
  facet normal 0.156435 0.987688 -0
    outer loop
      vertex -0.883625 -4.15713 6
      vertex -0.444246 -4.22672 0
      vertex -0.883625 -4.15713 0
    endloop
  endfacet
  facet normal 0.258819 0.965926 -0
    outer loop
      vertex -0.883625 -4.15713 6
      vertex -0.883625 -4.15713 0
      vertex -1.31332 -4.04199 6
    endloop
  endfacet
  facet normal 0.258819 0.965926 -0
    outer loop
      vertex -1.31332 -4.04199 6
      vertex -0.883625 -4.15713 0
      vertex -1.31332 -4.04199 0
    endloop
  endfacet
  facet normal 0.358368 0.933581 -0
    outer loop
      vertex -1.31332 -4.04199 6
      vertex -1.31332 -4.04199 0
      vertex -1.72863 -3.88257 6
    endloop
  endfacet
  facet normal 0.358368 0.933581 -0
    outer loop
      vertex -1.72863 -3.88257 6
      vertex -1.31332 -4.04199 0
      vertex -1.72863 -3.88257 0
    endloop
  endfacet
  facet normal 0.45399 0.891007 -0
    outer loop
      vertex -1.72863 -3.88257 6
      vertex -1.72863 -3.88257 0
      vertex -2.125 -3.68061 6
    endloop
  endfacet
  facet normal 0.45399 0.891007 -0
    outer loop
      vertex -2.125 -3.68061 6
      vertex -1.72863 -3.88257 0
      vertex -2.125 -3.68061 0
    endloop
  endfacet
  facet normal 0.54464 0.83867 -0
    outer loop
      vertex -2.125 -3.68061 6
      vertex -2.125 -3.68061 0
      vertex -2.49809 -3.43832 6
    endloop
  endfacet
  facet normal 0.54464 0.83867 -0
    outer loop
      vertex -2.49809 -3.43832 6
      vertex -2.125 -3.68061 0
      vertex -2.49809 -3.43832 0
    endloop
  endfacet
  facet normal 0.629319 0.777147 -0
    outer loop
      vertex -2.49809 -3.43832 6
      vertex -2.49809 -3.43832 0
      vertex -2.8438 -3.15837 6
    endloop
  endfacet
  facet normal 0.629319 0.777147 -0
    outer loop
      vertex -2.8438 -3.15837 6
      vertex -2.49809 -3.43832 0
      vertex -2.8438 -3.15837 0
    endloop
  endfacet
  facet normal 0.707107 0.707107 -0
    outer loop
      vertex -2.8438 -3.15837 6
      vertex -2.8438 -3.15837 0
      vertex -3.15837 -2.8438 6
    endloop
  endfacet
  facet normal 0.707107 0.707107 -0
    outer loop
      vertex -3.15837 -2.8438 6
      vertex -2.8438 -3.15837 0
      vertex -3.15837 -2.8438 0
    endloop
  endfacet
  facet normal 0.777147 0.629319 0
    outer loop
      vertex -3.43832 -2.49809 6
      vertex -3.15837 -2.8438 6
      vertex -3.15837 -2.8438 0
    endloop
  endfacet
  facet normal 0.777147 0.629319 0
    outer loop
      vertex -3.43832 -2.49809 0
      vertex -3.43832 -2.49809 6
      vertex -3.15837 -2.8438 0
    endloop
  endfacet
  facet normal 0.83867 0.54464 0
    outer loop
      vertex -3.68061 -2.125 6
      vertex -3.43832 -2.49809 6
      vertex -3.43832 -2.49809 0
    endloop
  endfacet
  facet normal 0.83867 0.54464 0
    outer loop
      vertex -3.68061 -2.125 0
      vertex -3.68061 -2.125 6
      vertex -3.43832 -2.49809 0
    endloop
  endfacet
  facet normal 0.891007 0.45399 0
    outer loop
      vertex -3.88257 -1.72863 6
      vertex -3.68061 -2.125 6
      vertex -3.68061 -2.125 0
    endloop
  endfacet
  facet normal 0.891007 0.45399 0
    outer loop
      vertex -3.88257 -1.72863 0
      vertex -3.88257 -1.72863 6
      vertex -3.68061 -2.125 0
    endloop
  endfacet
  facet normal 0.933581 0.358368 0
    outer loop
      vertex -4.04199 -1.31332 6
      vertex -3.88257 -1.72863 6
      vertex -3.88257 -1.72863 0
    endloop
  endfacet
  facet normal 0.933581 0.358368 0
    outer loop
      vertex -4.04199 -1.31332 0
      vertex -4.04199 -1.31332 6
      vertex -3.88257 -1.72863 0
    endloop
  endfacet
  facet normal 0.965926 0.258819 0
    outer loop
      vertex -4.15713 -0.883625 6
      vertex -4.04199 -1.31332 6
      vertex -4.04199 -1.31332 0
    endloop
  endfacet
  facet normal 0.965926 0.258819 0
    outer loop
      vertex -4.15713 -0.883625 0
      vertex -4.15713 -0.883625 6
      vertex -4.04199 -1.31332 0
    endloop
  endfacet
  facet normal 0.987688 0.156435 0
    outer loop
      vertex -4.22672 -0.444246 6
      vertex -4.15713 -0.883625 6
      vertex -4.15713 -0.883625 0
    endloop
  endfacet
  facet normal 0.987688 0.156435 0
    outer loop
      vertex -4.22672 -0.444246 0
      vertex -4.22672 -0.444246 6
      vertex -4.15713 -0.883625 0
    endloop
  endfacet
  facet normal 0 0 1
    outer loop
      vertex -5.76823 0.606265 6
      vertex -5.8 0 6
      vertex -5.76823 -0.606265 6
    endloop
  endfacet
  facet normal 0 0 1
    outer loop
      vertex -5.51613 -1.7923 6
      vertex -5.76823 0.606265 6
      vertex -5.67326 -1.20589 6
    endloop
  endfacet
  facet normal 0 0 1
    outer loop
      vertex -5.67326 -1.20589 6
      vertex -5.76823 0.606265 6
      vertex -5.76823 -0.606265 6
    endloop
  endfacet
  facet normal 0 0 1
    outer loop
      vertex -5.29856 -2.35907 6
      vertex -5.76823 0.606265 6
      vertex -5.51613 -1.7923 6
    endloop
  endfacet
  facet normal 0 0 1
    outer loop
      vertex -5.02295 -2.9 6
      vertex -5.76823 0.606265 6
      vertex -5.29856 -2.35907 6
    endloop
  endfacet
  facet normal 0 0 1
    outer loop
      vertex -4.6923 -3.40915 6
      vertex -5.76823 0.606265 6
      vertex -5.02295 -2.9 6
    endloop
  endfacet
  facet normal 0 0 1
    outer loop
      vertex -4.31024 -3.88096 6
      vertex -5.76823 0.606265 6
      vertex -4.6923 -3.40915 6
    endloop
  endfacet
  facet normal 0 0 1
    outer loop
      vertex -3.88096 -4.31024 6
      vertex -5.76823 0.606265 6
      vertex -4.31024 -3.88096 6
    endloop
  endfacet
  facet normal 0 0 1
    outer loop
      vertex -3.40915 -4.6923 6
      vertex -5.76823 0.606265 6
      vertex -3.88096 -4.31024 6
    endloop
  endfacet
  facet normal 0 0 1
    outer loop
      vertex -2.9 -5.02295 6
      vertex -5.76823 0.606265 6
      vertex -3.40915 -4.6923 6
    endloop
  endfacet
  facet normal 0 0 1
    outer loop
      vertex -2.35907 -5.29856 6
      vertex -5.76823 0.606265 6
      vertex -2.9 -5.02295 6
    endloop
  endfacet
  facet normal 0 0 1
    outer loop
      vertex -1.7923 -5.51613 6
      vertex -5.76823 0.606265 6
      vertex -2.35907 -5.29856 6
    endloop
  endfacet
  facet normal 0 0 1
    outer loop
      vertex -1.20589 -5.67326 6
      vertex -5.76823 0.606265 6
      vertex -1.7923 -5.51613 6
    endloop
  endfacet
  facet normal -0 -0 1
    outer loop
      vertex -3.43832 -2.49809 6
      vertex -5.76823 0.606265 6
      vertex -1.20589 -5.67326 6
    endloop
  endfacet
  facet normal 0 0 1
    outer loop
      vertex -3.43832 -2.49809 6
      vertex -3.68061 -2.125 6
      vertex -5.76823 0.606265 6
    endloop
  endfacet
  facet normal -0 -0 1
    outer loop
      vertex -2.125 -3.68061 6
      vertex -2.49809 -3.43832 6
      vertex -0.606265 -5.76823 6
    endloop
  endfacet
  facet normal -0 -0 1
    outer loop
      vertex -1.31332 -4.04199 6
      vertex -1.72863 -3.88257 6
      vertex 0 -5.8 6
    endloop
  endfacet
  facet normal 0 -0 1
    outer loop
      vertex 3.68061 -2.125 6
      vertex 3.43832 -2.49809 6
      vertex 5.02295 -2.9 6
    endloop
  endfacet
  facet normal 0 -0 1
    outer loop
      vertex 3.88257 -1.72863 6
      vertex 3.68061 -2.125 6
      vertex 5.29856 -2.35907 6
    endloop
  endfacet
  facet normal 0 -0 1
    outer loop
      vertex 4.04199 -1.31332 6
      vertex 3.88257 -1.72863 6
      vertex 5.51613 -1.7923 6
    endloop
  endfacet
  facet normal 0 0 1
    outer loop
      vertex -4.22672 0.444246 6
      vertex -4.15713 0.883625 6
      vertex -5.76823 0.606265 6
    endloop
  endfacet
  facet normal 0 -0 1
    outer loop
      vertex 3.43832 -2.49809 6
      vertex 3.15837 -2.8438 6
      vertex 4.6923 -3.40915 6
    endloop
  endfacet
  facet normal 0 0 1
    outer loop
      vertex 4.15713 0.883625 6
      vertex 4.22672 0.444246 6
      vertex 5.76823 0.606265 6
    endloop
  endfacet
  facet normal 0 0 1
    outer loop
      vertex 3.68061 2.125 6
      vertex 3.88257 1.72863 6
      vertex 5.29856 2.35907 6
    endloop
  endfacet
  facet normal 0 0 1
    outer loop
      vertex 2.125 3.68061 6
      vertex 2.49809 3.43832 6
      vertex 3.88096 4.31024 6
    endloop
  endfacet
  facet normal 0 0 1
    outer loop
      vertex 0.444246 4.22672 6
      vertex 0.883625 4.15713 6
      vertex 2.35907 5.29856 6
    endloop
  endfacet
  facet normal 0 0 1
    outer loop
      vertex -1.72863 3.88257 6
      vertex -1.31332 4.04199 6
      vertex 0.606265 5.76823 6
    endloop
  endfacet
  facet normal 0 0 1
    outer loop
      vertex -0.883625 4.15713 6
      vertex -0.444246 4.22672 6
      vertex 1.20589 5.67326 6
    endloop
  endfacet
  facet normal 0 -0 1
    outer loop
      vertex -0.606265 5.76823 6
      vertex -5.76823 0.606265 6
      vertex 0 5.8 6
    endloop
  endfacet
  facet normal 0 -0 1
    outer loop
      vertex -1.20589 5.67326 6
      vertex -5.76823 0.606265 6
      vertex -0.606265 5.76823 6
    endloop
  endfacet
  facet normal 0 -0 1
    outer loop
      vertex -1.7923 5.51613 6
      vertex -5.76823 0.606265 6
      vertex -1.20589 5.67326 6
    endloop
  endfacet
  facet normal 0 -0 1
    outer loop
      vertex -2.35907 5.29856 6
      vertex -5.76823 0.606265 6
      vertex -1.7923 5.51613 6
    endloop
  endfacet
  facet normal 0 -0 1
    outer loop
      vertex -2.9 5.02295 6
      vertex -5.76823 0.606265 6
      vertex -2.35907 5.29856 6
    endloop
  endfacet
  facet normal 0 -0 1
    outer loop
      vertex -3.40915 4.6923 6
      vertex -5.76823 0.606265 6
      vertex -2.9 5.02295 6
    endloop
  endfacet
  facet normal 0 -0 1
    outer loop
      vertex -3.88096 4.31024 6
      vertex -5.76823 0.606265 6
      vertex -3.40915 4.6923 6
    endloop
  endfacet
  facet normal 0 -0 1
    outer loop
      vertex -4.31024 3.88096 6
      vertex -5.76823 0.606265 6
      vertex -3.88096 4.31024 6
    endloop
  endfacet
  facet normal 0 -0 1
    outer loop
      vertex -4.6923 3.40915 6
      vertex -5.76823 0.606265 6
      vertex -4.31024 3.88096 6
    endloop
  endfacet
  facet normal 0 -0 1
    outer loop
      vertex -5.02295 2.9 6
      vertex -5.76823 0.606265 6
      vertex -4.6923 3.40915 6
    endloop
  endfacet
  facet normal 0 -0 1
    outer loop
      vertex -5.29856 2.35907 6
      vertex -5.76823 0.606265 6
      vertex -5.02295 2.9 6
    endloop
  endfacet
  facet normal 0 -0 1
    outer loop
      vertex -5.51613 1.7923 6
      vertex -5.76823 0.606265 6
      vertex -5.29856 2.35907 6
    endloop
  endfacet
  facet normal 0 -0 1
    outer loop
      vertex -5.67326 1.20589 6
      vertex -5.76823 0.606265 6
      vertex -5.51613 1.7923 6
    endloop
  endfacet
  facet normal 0 -0 1
    outer loop
      vertex 0.444246 -4.22672 6
      vertex 0 -4.25 6
      vertex 1.7923 -5.51613 6
    endloop
  endfacet
  facet normal 0 -0 1
    outer loop
      vertex 2.49809 -3.43832 6
      vertex 2.125 -3.68061 6
      vertex 3.88096 -4.31024 6
    endloop
  endfacet
  facet normal 0 -0 1
    outer loop
      vertex 4.15713 -0.883625 6
      vertex 4.04199 -1.31332 6
      vertex 5.67326 -1.20589 6
    endloop
  endfacet
  facet normal 0 0 1
    outer loop
      vertex 3.88257 1.72863 6
      vertex 4.04199 1.31332 6
      vertex 5.51613 1.7923 6
    endloop
  endfacet
  facet normal 0 0 1
    outer loop
      vertex 2.49809 3.43832 6
      vertex 2.8438 3.15837 6
      vertex 4.31024 3.88096 6
    endloop
  endfacet
  facet normal 0 0 1
    outer loop
      vertex 0.883625 4.15713 6
      vertex 1.31332 4.04199 6
      vertex 2.9 5.02295 6
    endloop
  endfacet
  facet normal 0 0 1
    outer loop
      vertex -4.04199 -1.31332 6
      vertex -4.15713 -0.883625 6
      vertex -5.76823 0.606265 6
    endloop
  endfacet
  facet normal 0 0 1
    outer loop
      vertex -2.8438 3.15837 6
      vertex -2.49809 3.43832 6
      vertex 0 5.8 6
    endloop
  endfacet
  facet normal 0 0 1
    outer loop
      vertex -0.444246 4.22672 6
      vertex 0 4.25 6
      vertex 1.7923 5.51613 6
    endloop
  endfacet
  facet normal 0 0 1
    outer loop
      vertex -3.15837 2.8438 6
      vertex -5.76823 0.606265 6
      vertex -3.43832 2.49809 6
    endloop
  endfacet
  facet normal 0 0 1
    outer loop
      vertex -2.8438 3.15837 6
      vertex -5.76823 0.606265 6
      vertex -3.15837 2.8438 6
    endloop
  endfacet
  facet normal 0 0 1
    outer loop
      vertex -2.49809 3.43832 6
      vertex -2.125 3.68061 6
      vertex 0 5.8 6
    endloop
  endfacet
  facet normal 0 0 1
    outer loop
      vertex 0 5.8 6
      vertex -5.76823 0.606265 6
      vertex -2.8438 3.15837 6
    endloop
  endfacet
  facet normal 0 -0 1
    outer loop
      vertex 0 5.8 6
      vertex -2.125 3.68061 6
      vertex 0.606265 5.76823 6
    endloop
  endfacet
  facet normal 0 0 1
    outer loop
      vertex -2.125 3.68061 6
      vertex -1.72863 3.88257 6
      vertex 0.606265 5.76823 6
    endloop
  endfacet
  facet normal 0 -0 1
    outer loop
      vertex 0.606265 5.76823 6
      vertex -1.31332 4.04199 6
      vertex 1.20589 5.67326 6
    endloop
  endfacet
  facet normal 0 0 1
    outer loop
      vertex -1.31332 4.04199 6
      vertex -0.883625 4.15713 6
      vertex 1.20589 5.67326 6
    endloop
  endfacet
  facet normal 0 -0 1
    outer loop
      vertex 1.20589 5.67326 6
      vertex -0.444246 4.22672 6
      vertex 1.7923 5.51613 6
    endloop
  endfacet
  facet normal -0 0 1
    outer loop
      vertex -3.68061 2.125 6
      vertex -3.43832 2.49809 6
      vertex -5.76823 0.606265 6
    endloop
  endfacet
  facet normal 0 -0 1
    outer loop
      vertex 1.7923 5.51613 6
      vertex 0 4.25 6
      vertex 2.35907 5.29856 6
    endloop
  endfacet
  facet normal 0 0 1
    outer loop
      vertex 0 4.25 6
      vertex 0.444246 4.22672 6
      vertex 2.35907 5.29856 6
    endloop
  endfacet
  facet normal 0 -0 1
    outer loop
      vertex 2.35907 5.29856 6
      vertex 0.883625 4.15713 6
      vertex 2.9 5.02295 6
    endloop
  endfacet
  facet normal 0 0 1
    outer loop
      vertex 1.31332 4.04199 6
      vertex 1.72863 3.88257 6
      vertex 3.40915 4.6923 6
    endloop
  endfacet
  facet normal 0 -0 1
    outer loop
      vertex 2.9 5.02295 6
      vertex 1.31332 4.04199 6
      vertex 3.40915 4.6923 6
    endloop
  endfacet
  facet normal -0 0 1
    outer loop
      vertex -3.88257 1.72863 6
      vertex -3.68061 2.125 6
      vertex -5.76823 0.606265 6
    endloop
  endfacet
  facet normal 0 -0 1
    outer loop
      vertex 3.40915 4.6923 6
      vertex 1.72863 3.88257 6
      vertex 3.88096 4.31024 6
    endloop
  endfacet
  facet normal 0 0 1
    outer loop
      vertex 1.72863 3.88257 6
      vertex 2.125 3.68061 6
      vertex 3.88096 4.31024 6
    endloop
  endfacet
  facet normal 0 -0 1
    outer loop
      vertex 3.88096 4.31024 6
      vertex 2.49809 3.43832 6
      vertex 4.31024 3.88096 6
    endloop
  endfacet
  facet normal 0 -0 1
    outer loop
      vertex 4.31024 3.88096 6
      vertex 2.8438 3.15837 6
      vertex 4.6923 3.40915 6
    endloop
  endfacet
  facet normal 0 0 1
    outer loop
      vertex 3.15837 2.8438 6
      vertex 3.43832 2.49809 6
      vertex 5.02295 2.9 6
    endloop
  endfacet
  facet normal 0 -0 1
    outer loop
      vertex 4.6923 3.40915 6
      vertex 3.15837 2.8438 6
      vertex 5.02295 2.9 6
    endloop
  endfacet
  facet normal -0 0 1
    outer loop
      vertex -4.04199 1.31332 6
      vertex -3.88257 1.72863 6
      vertex -5.76823 0.606265 6
    endloop
  endfacet
  facet normal 0 -0 1
    outer loop
      vertex 5.02295 2.9 6
      vertex 3.43832 2.49809 6
      vertex 5.29856 2.35907 6
    endloop
  endfacet
  facet normal 0 0 1
    outer loop
      vertex 3.43832 2.49809 6
      vertex 3.68061 2.125 6
      vertex 5.29856 2.35907 6
    endloop
  endfacet
  facet normal 0 -0 1
    outer loop
      vertex 5.29856 2.35907 6
      vertex 3.88257 1.72863 6
      vertex 5.51613 1.7923 6
    endloop
  endfacet
  facet normal 0 0 1
    outer loop
      vertex 2.8438 3.15837 6
      vertex 3.15837 2.8438 6
      vertex 4.6923 3.40915 6
    endloop
  endfacet
  facet normal 0 -0 1
    outer loop
      vertex 5.51613 1.7923 6
      vertex 4.04199 1.31332 6
      vertex 5.67326 1.20589 6
    endloop
  endfacet
  facet normal 0 -0 1
    outer loop
      vertex 5.67326 1.20589 6
      vertex 4.15713 0.883625 6
      vertex 5.76823 0.606265 6
    endloop
  endfacet
  facet normal 0 0 1
    outer loop
      vertex 4.22672 0.444246 6
      vertex 4.25 0 6
      vertex 5.8 0 6
    endloop
  endfacet
  facet normal 0 -0 1
    outer loop
      vertex 5.76823 0.606265 6
      vertex 4.22672 0.444246 6
      vertex 5.8 0 6
    endloop
  endfacet
  facet normal -0 0 1
    outer loop
      vertex -4.15713 0.883625 6
      vertex -4.04199 1.31332 6
      vertex -5.76823 0.606265 6
    endloop
  endfacet
  facet normal 0 0 1
    outer loop
      vertex 5.8 0 6
      vertex 4.25 0 6
      vertex 5.76823 -0.606265 6
    endloop
  endfacet
  facet normal -0 0 1
    outer loop
      vertex 5.76823 -0.606265 6
      vertex 4.22672 -0.444246 6
      vertex 5.67326 -1.20589 6
    endloop
  endfacet
  facet normal 0 0 1
    outer loop
      vertex 4.04199 1.31332 6
      vertex 4.15713 0.883625 6
      vertex 5.67326 1.20589 6
    endloop
  endfacet
  facet normal 0 -0 1
    outer loop
      vertex 4.22672 -0.444246 6
      vertex 4.15713 -0.883625 6
      vertex 5.67326 -1.20589 6
    endloop
  endfacet
  facet normal 0 0 1
    outer loop
      vertex 5.67326 -1.20589 6
      vertex 4.04199 -1.31332 6
      vertex 5.51613 -1.7923 6
    endloop
  endfacet
  facet normal -0 0 1
    outer loop
      vertex 5.51613 -1.7923 6
      vertex 3.88257 -1.72863 6
      vertex 5.29856 -2.35907 6
    endloop
  endfacet
  facet normal -0 0 1
    outer loop
      vertex 5.29856 -2.35907 6
      vertex 3.68061 -2.125 6
      vertex 5.02295 -2.9 6
    endloop
  endfacet
  facet normal 0 -0 1
    outer loop
      vertex 4.25 0 6
      vertex 4.22672 -0.444246 6
      vertex 5.76823 -0.606265 6
    endloop
  endfacet
  facet normal -0 0 1
    outer loop
      vertex 5.02295 -2.9 6
      vertex 3.43832 -2.49809 6
      vertex 4.6923 -3.40915 6
    endloop
  endfacet
  facet normal -0 0 1
    outer loop
      vertex 4.6923 -3.40915 6
      vertex 3.15837 -2.8438 6
      vertex 4.31024 -3.88096 6
    endloop
  endfacet
  facet normal 0 -0 1
    outer loop
      vertex 3.15837 -2.8438 6
      vertex 2.8438 -3.15837 6
      vertex 4.31024 -3.88096 6
    endloop
  endfacet
  facet normal -0 0 1
    outer loop
      vertex 4.31024 -3.88096 6
      vertex 2.49809 -3.43832 6
      vertex 3.88096 -4.31024 6
    endloop
  endfacet
  facet normal -0 0 1
    outer loop
      vertex 3.88096 -4.31024 6
      vertex 2.125 -3.68061 6
      vertex 3.40915 -4.6923 6
    endloop
  endfacet
  facet normal -0 0 1
    outer loop
      vertex 3.40915 -4.6923 6
      vertex 1.72863 -3.88257 6
      vertex 2.9 -5.02295 6
    endloop
  endfacet
  facet normal -0 0 1
    outer loop
      vertex 2.9 -5.02295 6
      vertex 1.31332 -4.04199 6
      vertex 2.35907 -5.29856 6
    endloop
  endfacet
  facet normal 0 -0 1
    outer loop
      vertex 1.31332 -4.04199 6
      vertex 0.883625 -4.15713 6
      vertex 2.35907 -5.29856 6
    endloop
  endfacet
  facet normal -0 0 1
    outer loop
      vertex 2.35907 -5.29856 6
      vertex 0.444246 -4.22672 6
      vertex 1.7923 -5.51613 6
    endloop
  endfacet
  facet normal 0 -0 1
    outer loop
      vertex 2.125 -3.68061 6
      vertex 1.72863 -3.88257 6
      vertex 3.40915 -4.6923 6
    endloop
  endfacet
  facet normal -0 0 1
    outer loop
      vertex 1.7923 -5.51613 6
      vertex 0 -4.25 6
      vertex 1.20589 -5.67326 6
    endloop
  endfacet
  facet normal -0 0 1
    outer loop
      vertex 1.20589 -5.67326 6
      vertex -0.444246 -4.22672 6
      vertex 0.606265 -5.76823 6
    endloop
  endfacet
  facet normal 0 0 1
    outer loop
      vertex -3.88257 -1.72863 6
      vertex -4.04199 -1.31332 6
      vertex -5.76823 0.606265 6
    endloop
  endfacet
  facet normal -0 -0 1
    outer loop
      vertex -0.444246 -4.22672 6
      vertex -0.883625 -4.15713 6
      vertex 0.606265 -5.76823 6
    endloop
  endfacet
  facet normal -0 0 1
    outer loop
      vertex 0.606265 -5.76823 6
      vertex -1.31332 -4.04199 6
      vertex 0 -5.8 6
    endloop
  endfacet
  facet normal 0 0 1
    outer loop
      vertex 0 -5.8 6
      vertex -1.72863 -3.88257 6
      vertex -0.606265 -5.76823 6
    endloop
  endfacet
  facet normal -0 -0 1
    outer loop
      vertex -1.72863 -3.88257 6
      vertex -2.125 -3.68061 6
      vertex -0.606265 -5.76823 6
    endloop
  endfacet
  facet normal 0 0 1
    outer loop
      vertex -0.606265 -5.76823 6
      vertex -2.49809 -3.43832 6
      vertex -1.20589 -5.67326 6
    endloop
  endfacet
  facet normal -0 -0 1
    outer loop
      vertex -2.49809 -3.43832 6
      vertex -2.8438 -3.15837 6
      vertex -1.20589 -5.67326 6
    endloop
  endfacet
  facet normal -0 -0 1
    outer loop
      vertex -2.8438 -3.15837 6
      vertex -3.15837 -2.8438 6
      vertex -1.20589 -5.67326 6
    endloop
  endfacet
  facet normal -0 -0 1
    outer loop
      vertex -3.15837 -2.8438 6
      vertex -3.43832 -2.49809 6
      vertex -1.20589 -5.67326 6
    endloop
  endfacet
  facet normal 0 0 1
    outer loop
      vertex -3.68061 -2.125 6
      vertex -3.88257 -1.72863 6
      vertex -5.76823 0.606265 6
    endloop
  endfacet
  facet normal 0 -0 1
    outer loop
      vertex 0.883625 -4.15713 6
      vertex 0.444246 -4.22672 6
      vertex 2.35907 -5.29856 6
    endloop
  endfacet
  facet normal -0 -0 1
    outer loop
      vertex 0 -4.25 6
      vertex -0.444246 -4.22672 6
      vertex 1.20589 -5.67326 6
    endloop
  endfacet
  facet normal -0 -0 1
    outer loop
      vertex -0.883625 -4.15713 6
      vertex -1.31332 -4.04199 6
      vertex 0.606265 -5.76823 6
    endloop
  endfacet
  facet normal 0 0 1
    outer loop
      vertex -4.15713 -0.883625 6
      vertex -4.22672 -0.444246 6
      vertex -5.76823 0.606265 6
    endloop
  endfacet
  facet normal 0 0 1
    outer loop
      vertex -4.22672 -0.444246 6
      vertex -4.25 0 6
      vertex -5.76823 0.606265 6
    endloop
  endfacet
  facet normal 0 -0 1
    outer loop
      vertex 1.72863 -3.88257 6
      vertex 1.31332 -4.04199 6
      vertex 2.9 -5.02295 6
    endloop
  endfacet
  facet normal 0 -0 1
    outer loop
      vertex 2.8438 -3.15837 6
      vertex 2.49809 -3.43832 6
      vertex 4.31024 -3.88096 6
    endloop
  endfacet
  facet normal 0 0 1
    outer loop
      vertex -4.25 0 6
      vertex -4.22672 0.444246 6
      vertex -5.76823 0.606265 6
    endloop
  endfacet
endsolid OpenSCAD_Model
