solid OpenSCAD_Model
  facet normal -1 -0 -0
    outer loop
      vertex 0 0 0
      vertex 0 0 1.6
      vertex 0 56 0
    endloop
  endfacet
  facet normal -1 0 0
    outer loop
      vertex 0 56 0
      vertex 0 0 1.6
      vertex 0 56 1.6
    endloop
  endfacet
  facet normal 0 -1 0
    outer loop
      vertex 0 0 1.6
      vertex 0 0 0
      vertex 64.4 0 0
    endloop
  endfacet
  facet normal 0 -1 0
    outer loop
      vertex 64.4 0 1.6
      vertex 0 0 1.6
      vertex 64.4 0 0
    endloop
  endfacet
  facet normal 0 0 -1
    outer loop
      vertex 34 49.4 0
      vertex 64.4 0 0
      vertex 1 49.4 0
    endloop
  endfacet
  facet normal 0 -0 -1
    outer loop
      vertex 34 54.5 0
      vertex 0 56 0
      vertex 39.6 56 0
    endloop
  endfacet
  facet normal -0 0 -1
    outer loop
      vertex 74.7 38.95 0
      vertex 85 56 0
      vertex 85 38.95 0
    endloop
  endfacet
  facet normal 0 0 -1
    outer loop
      vertex 64.4 0 0
      vertex 51.6 45 0
      vertex 51.6 56 0
    endloop
  endfacet
  facet normal 0 -0 -1
    outer loop
      vertex 74.7 38.95 0
      vertex 51.6 56 0
      vertex 85 56 0
    endloop
  endfacet
  facet normal 0 -0 -1
    outer loop
      vertex 64.4 18.12 0
      vertex 51.6 56 0
      vertex 74.7 38.95 0
    endloop
  endfacet
  facet normal 0 0 -1
    outer loop
      vertex 34 49.4 0
      vertex 39.6 45 0
      vertex 64.4 0 0
    endloop
  endfacet
  facet normal -0 0 -1
    outer loop
      vertex 64.4 18.12 0
      vertex 74.7 38.95 0
      vertex 74.7 18.12 0
    endloop
  endfacet
  facet normal 0 0 -1
    outer loop
      vertex 64.4 0 0
      vertex 51.6 56 0
      vertex 64.4 18.12 0
    endloop
  endfacet
  facet normal -0 -0 -1
    outer loop
      vertex 1 54.5 0
      vertex 0 56 0
      vertex 34 54.5 0
    endloop
  endfacet
  facet normal 0 -0 -1
    outer loop
      vertex 0 0 0
      vertex 0 56 0
      vertex 1 54.5 0
    endloop
  endfacet
  facet normal 0 0 -1
    outer loop
      vertex 0 0 0
      vertex 1 54.5 0
      vertex 1 49.4 0
    endloop
  endfacet
  facet normal -0 0 -1
    outer loop
      vertex 0 0 0
      vertex 1 49.4 0
      vertex 64.4 0 0
    endloop
  endfacet
  facet normal 0 0 -1
    outer loop
      vertex 39.6 45 0
      vertex 34 49.4 0
      vertex 39.6 56 0
    endloop
  endfacet
  facet normal 0 -0 -1
    outer loop
      vertex 34 49.4 0
      vertex 34 54.5 0
      vertex 39.6 56 0
    endloop
  endfacet
  facet normal 0 0 -1
    outer loop
      vertex 51.6 45 0
      vertex 64.4 0 0
      vertex 39.6 45 0
    endloop
  endfacet
  facet normal 0 1 0
    outer loop
      vertex 0 56 0
      vertex 0 56 1.6
      vertex 39.6 56 0
    endloop
  endfacet
  facet normal 0 1 0
    outer loop
      vertex 39.6 56 0
      vertex 0 56 1.6
      vertex 39.6 56 1.6
    endloop
  endfacet
  facet normal 0 -0 1
    outer loop
      vertex 0 56 1.6
      vertex 0 0 1.6
      vertex 64.4 0 1.6
    endloop
  endfacet
  facet normal -0 0 1
    outer loop
      vertex 74.7 18.12 1.6
      vertex 0 56 1.6
      vertex 64.4 18.12 1.6
    endloop
  endfacet
  facet normal -0 0 1
    outer loop
      vertex 64.4 18.12 1.6
      vertex 0 56 1.6
      vertex 64.4 0 1.6
    endloop
  endfacet
  facet normal -0 -0 1
    outer loop
      vertex 39.6 45 1.6
      vertex 0 56 1.6
      vertex 74.7 18.12 1.6
    endloop
  endfacet
  facet normal 0 0 1
    outer loop
      vertex 39.6 45 1.6
      vertex 39.6 56 1.6
      vertex 0 56 1.6
    endloop
  endfacet
  facet normal 0 -0 1
    outer loop
      vertex 51.6 45 1.6
      vertex 39.6 45 1.6
      vertex 74.7 38.95 1.6
    endloop
  endfacet
  facet normal 0 0 1
    outer loop
      vertex 85 56 1.6
      vertex 51.6 56 1.6
      vertex 85 38.95 1.6
    endloop
  endfacet
  facet normal -0 0 1
    outer loop
      vertex 85 38.95 1.6
      vertex 51.6 45 1.6
      vertex 74.7 38.95 1.6
    endloop
  endfacet
  facet normal -0 0 1
    outer loop
      vertex 74.7 38.95 1.6
      vertex 39.6 45 1.6
      vertex 74.7 18.12 1.6
    endloop
  endfacet
  facet normal 0 -0 1
    outer loop
      vertex 51.6 56 1.6
      vertex 51.6 45 1.6
      vertex 85 38.95 1.6
    endloop
  endfacet
  facet normal 1 0 0
    outer loop
      vertex 64.4 18.12 0
      vertex 64.4 18.12 1.6
      vertex 64.4 0 1.6
    endloop
  endfacet
  facet normal 1 0 0
    outer loop
      vertex 64.4 0 0
      vertex 64.4 18.12 0
      vertex 64.4 0 1.6
    endloop
  endfacet
  facet normal 0 -1 0
    outer loop
      vertex 74.7 18.12 0
      vertex 74.7 18.12 1.6
      vertex 64.4 18.12 1.6
    endloop
  endfacet
  facet normal -0 -1 -0
    outer loop
      vertex 64.4 18.12 0
      vertex 74.7 18.12 0
      vertex 64.4 18.12 1.6
    endloop
  endfacet
  facet normal 1 0 0
    outer loop
      vertex 74.7 38.95 0
      vertex 74.7 38.95 1.6
      vertex 74.7 18.12 1.6
    endloop
  endfacet
  facet normal 1 0 0
    outer loop
      vertex 74.7 18.12 0
      vertex 74.7 38.95 0
      vertex 74.7 18.12 1.6
    endloop
  endfacet
  facet normal 0 -1 0
    outer loop
      vertex 85 38.95 0
      vertex 85 38.95 1.6
      vertex 74.7 38.95 1.6
    endloop
  endfacet
  facet normal -0 -1 -0
    outer loop
      vertex 74.7 38.95 0
      vertex 85 38.95 0
      vertex 74.7 38.95 1.6
    endloop
  endfacet
  facet normal 1 0 -0
    outer loop
      vertex 85 38.95 1.6
      vertex 85 38.95 0
      vertex 85 56 0
    endloop
  endfacet
  facet normal 1 0 0
    outer loop
      vertex 85 56 1.6
      vertex 85 38.95 1.6
      vertex 85 56 0
    endloop
  endfacet
  facet normal 0 1 0
    outer loop
      vertex 51.6 56 0
      vertex 51.6 56 1.6
      vertex 85 56 0
    endloop
  endfacet
  facet normal 0 1 0
    outer loop
      vertex 85 56 0
      vertex 51.6 56 1.6
      vertex 85 56 1.6
    endloop
  endfacet
  facet normal -1 0 0
    outer loop
      vertex 51.6 56 1.6
      vertex 51.6 56 0
      vertex 51.6 45 1.6
    endloop
  endfacet
  facet normal -1 0 0
    outer loop
      vertex 51.6 45 1.6
      vertex 51.6 56 0
      vertex 51.6 45 0
    endloop
  endfacet
  facet normal 0 1 0
    outer loop
      vertex 51.6 45 1.6
      vertex 51.6 45 0
      vertex 39.6 45 1.6
    endloop
  endfacet
  facet normal 0 1 -0
    outer loop
      vertex 39.6 45 1.6
      vertex 51.6 45 0
      vertex 39.6 45 0
    endloop
  endfacet
  facet normal 1 0 0
    outer loop
      vertex 39.6 56 0
      vertex 39.6 56 1.6
      vertex 39.6 45 1.6
    endloop
  endfacet
  facet normal 1 0 0
    outer loop
      vertex 39.6 45 0
      vertex 39.6 56 0
      vertex 39.6 45 1.6
    endloop
  endfacet
  facet normal -1 -0 -0
    outer loop
      vertex 1 49.4 -10
      vertex 1 49.4 0
      vertex 1 54.5 -10
    endloop
  endfacet
  facet normal -1 0 0
    outer loop
      vertex 1 54.5 -10
      vertex 1 49.4 0
      vertex 1 54.5 0
    endloop
  endfacet
  facet normal 0 1 0
    outer loop
      vertex 1 54.5 -10
      vertex 1 54.5 0
      vertex 34 54.5 -10
    endloop
  endfacet
  facet normal 0 1 0
    outer loop
      vertex 34 54.5 -10
      vertex 1 54.5 0
      vertex 34 54.5 0
    endloop
  endfacet
  facet normal 1 0 -0
    outer loop
      vertex 34 49.4 0
      vertex 34 49.4 -10
      vertex 34 54.5 -10
    endloop
  endfacet
  facet normal 1 0 0
    outer loop
      vertex 34 54.5 0
      vertex 34 49.4 0
      vertex 34 54.5 -10
    endloop
  endfacet
  facet normal 0 -1 0
    outer loop
      vertex 1 49.4 0
      vertex 1 49.4 -10
      vertex 34 49.4 -10
    endloop
  endfacet
  facet normal 0 -1 0
    outer loop
      vertex 34 49.4 0
      vertex 1 49.4 0
      vertex 34 49.4 -10
    endloop
  endfacet
  facet normal -0 -0 -1
    outer loop
      vertex 1 49.4 -10
      vertex 1 54.5 -10
      vertex 34 49.4 -10
    endloop
  endfacet
  facet normal 0 0 -1
    outer loop
      vertex 34 49.4 -10
      vertex 1 54.5 -10
      vertex 34 54.5 -10
    endloop
  endfacet
endsolid OpenSCAD_Model
