solid OpenSCAD_Model
  facet normal -1 -0 -0
    outer loop
      vertex 0 0 0
      vertex 0 0 1.6
      vertex 0 30 0
    endloop
  endfacet
  facet normal -1 0 0
    outer loop
      vertex 0 30 0
      vertex 0 0 1.6
      vertex 0 30 1.6
    endloop
  endfacet
  facet normal 0 -1 0
    outer loop
      vertex 0 0 1.6
      vertex 0 0 0
      vertex 20 0 0
    endloop
  endfacet
  facet normal 0 -1 0
    outer loop
      vertex 20 0 1.6
      vertex 0 0 1.6
      vertex 20 0 0
    endloop
  endfacet
  facet normal 0 0 -1
    outer loop
      vertex 19 24 0
      vertex 20 0 0
      vertex 1 24 0
    endloop
  endfacet
  facet normal 0 -0 -1
    outer loop
      vertex 1 29.1 0
      vertex 0 30 0
      vertex 20 30 0
    endloop
  endfacet
  facet normal 0 -0 -1
    outer loop
      vertex 19 29.1 0
      vertex 1 29.1 0
      vertex 20 30 0
    endloop
  endfacet
  facet normal 0 -0 -1
    outer loop
      vertex 0 0 0
      vertex 0 30 0
      vertex 1 24 0
    endloop
  endfacet
  facet normal -0 0 -1
    outer loop
      vertex 0 0 0
      vertex 1 24 0
      vertex 20 0 0
    endloop
  endfacet
  facet normal 0 0 -1
    outer loop
      vertex 20 0 0
      vertex 19 24 0
      vertex 20 30 0
    endloop
  endfacet
  facet normal 0 -0 -1
    outer loop
      vertex 19 24 0
      vertex 19 29.1 0
      vertex 20 30 0
    endloop
  endfacet
  facet normal 0 0 -1
    outer loop
      vertex 1 24 0
      vertex 0 30 0
      vertex 1 29.1 0
    endloop
  endfacet
  facet normal 0 1 0
    outer loop
      vertex 0 30 0
      vertex 0 30 1.6
      vertex 20 30 0
    endloop
  endfacet
  facet normal 0 1 0
    outer loop
      vertex 20 30 0
      vertex 0 30 1.6
      vertex 20 30 1.6
    endloop
  endfacet
  facet normal 0 -0 1
    outer loop
      vertex 0 30 1.6
      vertex 0 0 1.6
      vertex 20 0 1.6
    endloop
  endfacet
  facet normal 0 0 1
    outer loop
      vertex 20 30 1.6
      vertex 0 30 1.6
      vertex 20 0 1.6
    endloop
  endfacet
  facet normal 1 0 -0
    outer loop
      vertex 20 0 1.6
      vertex 20 0 0
      vertex 20 30 0
    endloop
  endfacet
  facet normal 1 0 0
    outer loop
      vertex 20 30 1.6
      vertex 20 0 1.6
      vertex 20 30 0
    endloop
  endfacet
  facet normal -1 -0 -0
    outer loop
      vertex 1 24 -8
      vertex 1 24 0
      vertex 1 29.1 -8
    endloop
  endfacet
  facet normal -1 0 0
    outer loop
      vertex 1 29.1 -8
      vertex 1 24 0
      vertex 1 29.1 0
    endloop
  endfacet
  facet normal 0 1 0
    outer loop
      vertex 1 29.1 -8
      vertex 1 29.1 0
      vertex 19 29.1 -8
    endloop
  endfacet
  facet normal 0 1 0
    outer loop
      vertex 19 29.1 -8
      vertex 1 29.1 0
      vertex 19 29.1 0
    endloop
  endfacet
  facet normal 1 0 -0
    outer loop
      vertex 19 24 0
      vertex 19 24 -8
      vertex 19 29.1 -8
    endloop
  endfacet
  facet normal 1 0 0
    outer loop
      vertex 19 29.1 0
      vertex 19 24 0
      vertex 19 29.1 -8
    endloop
  endfacet
  facet normal 0 -1 0
    outer loop
      vertex 1 24 0
      vertex 1 24 -8
      vertex 19 24 -8
    endloop
  endfacet
  facet normal 0 -1 0
    outer loop
      vertex 19 24 0
      vertex 1 24 0
      vertex 19 24 -8
    endloop
  endfacet
  facet normal -0 -0 -1
    outer loop
      vertex 1 24 -8
      vertex 1 29.1 -8
      vertex 19 24 -8
    endloop
  endfacet
  facet normal 0 0 -1
    outer loop
      vertex 19 24 -8
      vertex 1 29.1 -8
      vertex 19 29.1 -8
    endloop
  endfacet
  facet normal -1 -0 -0
    outer loop
      vertex 5 0 1.6
      vertex 5 0 5.6
      vertex 5 10 1.6
    endloop
  endfacet
  facet normal -1 0 0
    outer loop
      vertex 5 10 1.6
      vertex 5 0 5.6
      vertex 5 10 5.6
    endloop
  endfacet
  facet normal 0 -1 0
    outer loop
      vertex 5 0 5.6
      vertex 5 0 1.6
      vertex 15 0 1.6
    endloop
  endfacet
  facet normal 0 -1 0
    outer loop
      vertex 15 0 5.6
      vertex 5 0 5.6
      vertex 15 0 1.6
    endloop
  endfacet
  facet normal -0 -0 -1
    outer loop
      vertex 5 0 1.6
      vertex 5 10 1.6
      vertex 15 0 1.6
    endloop
  endfacet
  facet normal 0 0 -1
    outer loop
      vertex 15 0 1.6
      vertex 5 10 1.6
      vertex 15 10 1.6
    endloop
  endfacet
  facet normal 0 1 0
    outer loop
      vertex 5 10 1.6
      vertex 5 10 5.6
      vertex 15 10 1.6
    endloop
  endfacet
  facet normal 0 1 0
    outer loop
      vertex 15 10 1.6
      vertex 5 10 5.6
      vertex 15 10 5.6
    endloop
  endfacet
  facet normal 0 -0 1
    outer loop
      vertex 5 10 5.6
      vertex 5 0 5.6
      vertex 15 0 5.6
    endloop
  endfacet
  facet normal 0 0 1
    outer loop
      vertex 15 10 5.6
      vertex 5 10 5.6
      vertex 15 0 5.6
    endloop
  endfacet
  facet normal 1 0 -0
    outer loop
      vertex 15 0 5.6
      vertex 15 0 1.6
      vertex 15 10 1.6
    endloop
  endfacet
  facet normal 1 0 0
    outer loop
      vertex 15 10 5.6
      vertex 15 0 5.6
      vertex 15 10 1.6
    endloop
  endfacet
endsolid OpenSCAD_Model
