<?xml version="1.0" encoding="UTF-8" standalone="no"?>
<!-- Created with Inkscape (http://www.inkscape.org/) -->

<svg
   xmlns:dc="http://purl.org/dc/elements/1.1/"
   xmlns:cc="http://creativecommons.org/ns#"
   xmlns:rdf="http://www.w3.org/1999/02/22-rdf-syntax-ns#"
   xmlns:svg="http://www.w3.org/2000/svg"
   xmlns="http://www.w3.org/2000/svg"
   xmlns:sodipodi="http://sodipodi.sourceforge.net/DTD/sodipodi-0.dtd"
   xmlns:inkscape="http://www.inkscape.org/namespaces/inkscape"
   width="800mm"
   height="450mm"
   viewBox="0 0 2834.6456 1594.4881"
   id="svg2"
   version="1.1"
   inkscape:version="0.91 r13725"
   sodipodi:docname="BA3_base.svg">
  <defs
     id="defs4" />
  <sodipodi:namedview
     id="base"
     pagecolor="#ffffff"
     bordercolor="#666666"
     borderopacity="1.0"
     inkscape:pageopacity="0.0"
     inkscape:pageshadow="2"
     inkscape:zoom="0.22627417"
     inkscape:cx="847.60617"
     inkscape:cy="969.37151"
     inkscape:document-units="mm"
     inkscape:current-layer="layer1"
     showgrid="true"
     gridtolerance="1"
     guidetolerance="1"
     inkscape:window-width="1366"
     inkscape:window-height="706"
     inkscape:window-x="-8"
     inkscape:window-y="-8"
     inkscape:window-maximized="1">
    <inkscape:grid
       type="xygrid"
       id="grid4201"
       units="mm"
       spacingx="35.433071"
       spacingy="35.433072"
       snapvisiblegridlinesonly="false"
       enabled="true" />
  </sodipodi:namedview>
  <metadata
     id="metadata7">
    <rdf:RDF>
      <cc:Work
         rdf:about="">
        <dc:format>image/svg+xml</dc:format>
        <dc:type
           rdf:resource="http://purl.org/dc/dcmitype/StillImage" />
        <dc:title></dc:title>
      </cc:Work>
    </rdf:RDF>
  </metadata>
  <g
     inkscape:label="Layer 1"
     inkscape:groupmode="layer"
     id="layer1"
     transform="translate(0,542.12593)">
    <path
       style="fill:none;fill-opacity:0.19298245;fill-rule:evenodd;stroke:#000000;stroke-width:0.70866144;stroke-linecap:butt;stroke-linejoin:miter;stroke-miterlimit:4;stroke-dasharray:none;stroke-opacity:1"
       d="m 1417.4393,820.892 c -0.4058,42.9466 -19.125,84.3217 -46.663,116.71526 -28.6857,33.8071 -69.3931,55.865 -113.5851,61.75154 -12.183,1.7435 -24.6234,4.5798 -36.7596,2 -63.122,-10.50554 -125.7145,-23.94614 -188.4079,-36.71304 C 979.94508,953.91946 927.90988,942.98036 876.15329,930.78 744.87029,900.4829 613.63003,871.9309 482.85073,839.5197 465.26974,835.8704 448.87834,826.4186 432.36444,819.6125 342.77634,781.597 259.32544,726.4662 194.92344,652.9629 86.303336,523.36 34.458876,347.8685 55.717136,180.04162 70.600136,59.541718 120.74814,-56.834387 200.28284,-148.78329 c 68.7223,-75.84759 157.4837,-131.57889 252.33,-168.81729 18,-7.8334 37.49899,-13.0295 56.35599,-18.1188 144.97743,-35.3272 290.26966,-67.3921 435.80645,-100.3385 86.93242,-18.1691 173.78512,-36.8361 261.19162,-52.6102 13.7562,-2.2148 27.6423,-3.4565 41.6424,-1.474 40.2298,3.2286 78.6964,19.2037 107.9113,46.8943 33.5059,31.6147 57.1535,74.9057 61.4192,121.1042 1.1806,21.3035 0.1861,42.6758 0.5399,64.0043 0.2025,271.020194 0.5608,542.03988 0.1644,813.05958 -0.068,88.6569 -0.1365,177.3138 -0.2048,265.9707 z"
       id="path4268-6-7"
       inkscape:connector-curvature="0"
       sodipodi:nodetypes="cccccccccccccccccccccc" />
    <path
       style="fill:none;fill-opacity:0.19298245;fill-rule:evenodd;stroke:#000000;stroke-width:0.70866144;stroke-linecap:butt;stroke-linejoin:miter;stroke-miterlimit:4;stroke-dasharray:none;stroke-opacity:1"
       d="m 1417.2061,820.89103 10e-5,10e-4 c 0.4058,42.9466 19.125,84.3217 46.663,116.7152 28.6857,33.80709 69.3931,55.86499 113.5851,61.75157 12.183,1.7435 24.6234,4.5798 36.7596,2 63.122,-10.50558 125.7145,-23.94618 188.4079,-36.71308 52.0786,-10.7263 104.1138,-21.66539 155.8704,-33.86569 131.283,-30.2971 262.5232,-58.8491 393.3025,-91.2603 17.581,-3.6493 33.9724,-13.1011 50.4863,-19.9072 89.5881,-38.0155 173.039,-93.1463 237.441,-166.6496 108.6201,-129.6029 160.4646,-305.09443 139.2063,-472.92131 -14.883,-120.499901 -65.031,-236.876 -144.5657,-328.82491 -68.7223,-75.84759 -157.4838,-131.57889 -252.33,-168.81729 -18,-7.8334 -37.499,-13.0295 -56.3561,-18.1188 -144.9773,-35.3272 -290.2696,-67.3921 -435.8064,-100.3385 -86.9323,-18.1691 -173.7851,-36.8361 -261.1916,-52.6102 -13.7562,-2.2148 -27.6423,-3.4565 -41.6424,-1.474 -40.2298,3.2286 -78.6964,19.2037 -107.9113,46.8943 -33.5059,31.6147 -57.1534,74.9057 -61.4192,121.1042 -1.1806,21.3035 -0.1861,42.6758 -0.5399,64.0043"
       id="path4268-6-7-6"
       inkscape:connector-curvature="0"
       sodipodi:nodetypes="cccccccccccccccccccc" />
    <path
       style="color:#000000;clip-rule:nonzero;display:inline;overflow:visible;visibility:visible;opacity:1;isolation:auto;mix-blend-mode:normal;color-interpolation:sRGB;color-interpolation-filters:linearRGB;solid-color:#000000;solid-opacity:1;fill:#ff0000;fill-opacity:1;fill-rule:evenodd;stroke:none;stroke-width:109.84252167;stroke-linecap:round;stroke-linejoin:miter;stroke-miterlimit:4;stroke-dasharray:none;stroke-dashoffset:0;stroke-opacity:1;color-rendering:auto;image-rendering:auto;shape-rendering:auto;text-rendering:auto;enable-background:accumulate"
       d="m 285.42906,255.11816 c 0,9.78458 -7.93196,17.71654 -17.71654,17.71654 -9.78457,0 -17.71653,-7.93197 -17.71653,-17.71654 0,-9.78457 7.93196,-17.71653 17.71653,-17.71653 9.78457,0 17.71654,7.93196 17.71654,17.71653 z"
       id="path4166-5"
       inkscape:connector-curvature="0"
       sodipodi:nodetypes="sssss" />
    <path
       style="color:#000000;clip-rule:nonzero;display:inline;overflow:visible;visibility:visible;opacity:1;isolation:auto;mix-blend-mode:normal;color-interpolation:sRGB;color-interpolation-filters:linearRGB;solid-color:#000000;solid-opacity:1;fill:#ff0000;fill-opacity:1;fill-rule:evenodd;stroke:none;stroke-width:109.84252167;stroke-linecap:round;stroke-linejoin:miter;stroke-miterlimit:4;stroke-dasharray:none;stroke-dashoffset:0;stroke-opacity:1;color-rendering:auto;image-rendering:auto;shape-rendering:auto;text-rendering:auto;enable-background:accumulate"
       d="m 1078.3766,255.11816 c 0,9.7846 -7.932,17.71658 -17.7166,17.71654 -9.7846,-2e-5 -17.7165,-7.93198 -17.7165,-17.71654 0,-9.78456 7.9319,-17.71651 17.7165,-17.71653 9.7846,-4e-5 17.7166,7.93193 17.7166,17.71653 z"
       id="path4166-1"
       inkscape:connector-curvature="0"
       sodipodi:nodetypes="sssss" />
    <path
       style="color:#000000;clip-rule:nonzero;display:inline;overflow:visible;visibility:visible;opacity:1;isolation:auto;mix-blend-mode:normal;color-interpolation:sRGB;color-interpolation-filters:linearRGB;solid-color:#000000;solid-opacity:1;fill:#ff0000;fill-opacity:1;fill-rule:evenodd;stroke:none;stroke-width:109.84252167;stroke-linecap:round;stroke-linejoin:miter;stroke-miterlimit:4;stroke-dasharray:none;stroke-dashoffset:0;stroke-opacity:1;color-rendering:auto;image-rendering:auto;shape-rendering:auto;text-rendering:auto;enable-background:accumulate"
       d="m 669.58049,-166.95563 c 0,9.78458 -7.93196,17.71654 -17.71654,17.71654 -9.78457,0 -17.71653,-7.93197 -17.71653,-17.71654 0,-9.78457 7.93196,-17.71653 17.71653,-17.71653 9.78457,0 17.71654,7.93196 17.71654,17.71653 z"
       id="path4166"
       inkscape:connector-curvature="0"
       sodipodi:nodetypes="sssss" />
    <path
       style="color:#000000;clip-rule:nonzero;display:inline;overflow:visible;visibility:visible;opacity:1;isolation:auto;mix-blend-mode:normal;color-interpolation:sRGB;color-interpolation-filters:linearRGB;solid-color:#000000;solid-opacity:1;fill:#ff0000;fill-opacity:1;fill-rule:evenodd;stroke:none;stroke-width:109.84252167;stroke-linecap:round;stroke-linejoin:miter;stroke-miterlimit:4;stroke-dasharray:none;stroke-dashoffset:0;stroke-opacity:1;color-rendering:auto;image-rendering:auto;shape-rendering:auto;text-rendering:auto;enable-background:accumulate"
       d="m 669.58049,677.19196 c 0,9.78457 -7.93197,17.71653 -17.71654,17.71653 -9.78457,0 -17.71653,-7.93196 -17.71653,-17.71653 0,-9.78457 7.93196,-17.71654 17.71653,-17.71654 9.78458,0 17.71654,7.93196 17.71654,17.71654 z"
       id="path4166-6"
       inkscape:connector-curvature="0"
       sodipodi:nodetypes="sssss" />
    <path
       style="color:#000000;clip-rule:nonzero;display:inline;overflow:visible;visibility:visible;opacity:1;isolation:auto;mix-blend-mode:normal;color-interpolation:sRGB;color-interpolation-filters:linearRGB;solid-color:#000000;solid-opacity:1;fill:#ff0000;fill-opacity:1;fill-rule:evenodd;stroke:none;stroke-width:109.84252167;stroke-linecap:round;stroke-linejoin:miter;stroke-miterlimit:4;stroke-dasharray:none;stroke-dashoffset:0;stroke-opacity:1;color-rendering:auto;image-rendering:auto;shape-rendering:auto;text-rendering:auto;enable-background:accumulate"
       d="m 2550.9436,255.11819 c 0,9.7846 7.932,17.71658 17.7166,17.71654 9.7846,-2e-5 17.7165,-7.93198 17.7165,-17.71654 0,-9.78456 -7.9319,-17.71651 -17.7165,-17.71653 -9.7846,-4e-5 -17.7166,7.93193 -17.7166,17.71653 z"
       id="path4166-5-0"
       inkscape:connector-curvature="0"
       sodipodi:nodetypes="sssss" />
    <path
       style="color:#000000;clip-rule:nonzero;display:inline;overflow:visible;visibility:visible;opacity:1;isolation:auto;mix-blend-mode:normal;color-interpolation:sRGB;color-interpolation-filters:linearRGB;solid-color:#000000;solid-opacity:1;fill:#ff0000;fill-opacity:1;fill-rule:evenodd;stroke:none;stroke-width:109.84252167;stroke-linecap:round;stroke-linejoin:miter;stroke-miterlimit:4;stroke-dasharray:none;stroke-dashoffset:0;stroke-opacity:1;color-rendering:auto;image-rendering:auto;shape-rendering:auto;text-rendering:auto;enable-background:accumulate"
       d="m 1757.996,255.11819 c 0,9.78456 7.9319,17.71652 17.7165,17.71654 9.7846,4e-5 17.7166,-7.93194 17.7166,-17.71654 0,-9.7846 -7.932,-17.71657 -17.7166,-17.71653 -9.7846,2e-5 -17.7165,7.93197 -17.7165,17.71653 z"
       id="path4166-1-1"
       inkscape:connector-curvature="0"
       sodipodi:nodetypes="sssss" />
    <path
       style="color:#000000;clip-rule:nonzero;display:inline;overflow:visible;visibility:visible;opacity:1;isolation:auto;mix-blend-mode:normal;color-interpolation:sRGB;color-interpolation-filters:linearRGB;solid-color:#000000;solid-opacity:1;fill:#ff0000;fill-opacity:1;fill-rule:evenodd;stroke:none;stroke-width:109.84252167;stroke-linecap:round;stroke-linejoin:miter;stroke-miterlimit:4;stroke-dasharray:none;stroke-dashoffset:0;stroke-opacity:1;color-rendering:auto;image-rendering:auto;shape-rendering:auto;text-rendering:auto;enable-background:accumulate"
       d="m 2166.792,-166.95561 c 0,9.78456 7.9319,17.71651 17.7165,17.71653 9.7846,4e-5 17.7166,-7.93193 17.7166,-17.71653 0,-9.7846 -7.932,-17.71658 -17.7166,-17.71654 -9.7846,2e-5 -17.7165,7.93198 -17.7165,17.71654 z"
       id="path4166-8"
       inkscape:connector-curvature="0"
       sodipodi:nodetypes="sssss" />
    <path
       style="color:#000000;clip-rule:nonzero;display:inline;overflow:visible;visibility:visible;opacity:1;isolation:auto;mix-blend-mode:normal;color-interpolation:sRGB;color-interpolation-filters:linearRGB;solid-color:#000000;solid-opacity:1;fill:#ff0000;fill-opacity:1;fill-rule:evenodd;stroke:none;stroke-width:109.84252167;stroke-linecap:round;stroke-linejoin:miter;stroke-miterlimit:4;stroke-dasharray:none;stroke-dashoffset:0;stroke-opacity:1;color-rendering:auto;image-rendering:auto;shape-rendering:auto;text-rendering:auto;enable-background:accumulate"
       d="m 2166.792,677.19202 c 0,9.78456 7.9319,17.71651 17.7165,17.71653 9.7846,4e-5 17.7166,-7.93193 17.7166,-17.71653 0,-9.7846 -7.932,-17.71658 -17.7166,-17.71654 -9.7846,2e-5 -17.7165,7.93198 -17.7165,17.71654 z"
       id="path4166-6-9"
       inkscape:connector-curvature="0"
       sodipodi:nodetypes="sssss" />
  </g>
</svg>
